<?xml version="1.0" encoding="iso-8859-1"?>
<!-- Generator: Adobe Illustrator 18.0.0, SVG Export Plug-In . SVG Version: 6.00 Build 0)  -->
<!DOCTYPE svg PUBLIC "-//W3C//DTD SVG 1.1//EN" "http://www.w3.org/Graphics/SVG/1.1/DTD/svg11.dtd">
<svg version="1.1" id="Capa_1" xmlns="http://www.w3.org/2000/svg" xmlns:xlink="http://www.w3.org/1999/xlink" x="0px" y="0px"
	 viewBox="0 0 469.815 469.815" style="enable-background:new 0 0 469.815 469.815;" xml:space="preserve">
<g>
	<path d="M240.219,215.755c6.385,0,12.395,2.496,16.889,7.006l26.502,26.494c7.955,0.311,15.351,3.523,20.949,9.121l3.042,3.042
		c3.024-8.305,4.945-17.155,4.945-26.51c0-42.879-34.76-77.639-77.639-77.639c-42.879,0-77.639,34.76-77.639,77.639
		c0,42.879,34.76,77.639,77.639,77.639c9.992,0,19.473-2.053,28.243-5.49l-3.639-3.639c-5.303-5.303-8.414-12.271-8.989-19.675
		l-27.193-27.202c-4.51-4.51-7-10.514-7-16.889c0-6.377,2.489-12.381,6.984-16.875C227.832,218.251,233.834,215.755,240.219,215.755
		z"/>
	<path d="M364.22,318.036c15.483-24.005,24.582-52.505,24.582-83.129c0-84.855-69.039-153.894-153.894-153.894
		c-84.855,0-153.894,69.039-153.894,153.894c0,84.855,69.039,153.894,153.894,153.894c31.223,0,60.259-9.409,84.544-25.445
		l-23.142-23.15c-18.065,10.576-39.006,16.743-61.402,16.743c-67.297,0-122.042-54.745-122.042-122.042
		c0-67.297,54.745-122.042,122.042-122.042s122.042,54.745,122.042,122.042c0,21.804-5.816,42.24-15.88,59.979L364.22,318.036z"/>
	<path d="M339.982,409.206l0.373-1.104c-30.786,18.818-66.806,29.861-105.447,29.861c-111.964,0-203.056-91.092-203.056-203.056
		S122.943,31.852,234.908,31.852s203.056,91.091,203.056,203.056c0,38.323-10.863,74.07-29.395,104.684l1.562-0.529
		c2.465-0.823,5.033-1.252,7.628-1.252c6.377,0,12.373,2.489,16.883,6.999l4.961,4.961c19.162-33.999,30.212-73.137,30.212-114.864
		C469.815,105.377,364.438,0,234.908,0S0,105.377,0,234.908s105.377,234.908,234.908,234.908c42.202,0,81.737-11.338,116-30.895
		l-5.187-5.187C339.259,427.271,337.058,417.885,339.982,409.206z"/>
	<path d="M423.383,356.07c-1.516-1.516-3.555-2.333-5.624-2.333c-0.855,0-1.71,0.14-2.542,0.42l-27.948,9.449L293.3,269.637
		c-3.04-3.042-6.984-4.48-10.957-4.48c-1.578,0-3.156,0.226-4.689,0.669l-31.806-31.806c-1.554-1.554-3.593-2.34-5.63-2.34
		c-2.037,0-4.076,0.785-5.63,2.34c-3.11,3.11-3.11,8.151,0,11.261l32.186,32.186c-1.143,5.139,0,10.693,3.997,14.689l93.859,93.853
		l-9.565,28.297c-0.964,2.862-0.225,6.028,1.913,8.165l37.009,37.009c1.508,1.508,3.531,2.325,5.614,2.325
		c0.607,0,1.214-0.07,1.82-0.21c2.674-0.623,4.837-2.59,5.716-5.195l12.675-37.498l37.496-12.675
		c2.605-0.879,4.574-3.04,5.195-5.716c0.631-2.682-0.17-5.49-2.115-7.434L423.383,356.07z"/>
</g>
<g>
</g>
<g>
</g>
<g>
</g>
<g>
</g>
<g>
</g>
<g>
</g>
<g>
</g>
<g>
</g>
<g>
</g>
<g>
</g>
<g>
</g>
<g>
</g>
<g>
</g>
<g>
</g>
<g>
</g>
</svg>
