<?xml version="1.0" encoding="UTF-8" standalone="no"?>
<!-- Created with Inkscape (http://www.inkscape.org/) -->
<svg
   xmlns:dc="http://purl.org/dc/elements/1.1/"
   xmlns:cc="http://creativecommons.org/ns#"
   xmlns:rdf="http://www.w3.org/1999/02/22-rdf-syntax-ns#"
   xmlns:svg="http://www.w3.org/2000/svg"
   xmlns="http://www.w3.org/2000/svg"
   xmlns:sodipodi="http://sodipodi.sourceforge.net/DTD/sodipodi-0.dtd"
   xmlns:inkscape="http://www.inkscape.org/namespaces/inkscape"
   width="192.91824"
   height="303.52567"
   id="svg2"
   sodipodi:version="0.32"
   inkscape:version="0.46"
   version="1.0"
   sodipodi:docname="ContinentSouthAmerica.svg"
   inkscape:output_extension="org.inkscape.output.svg.inkscape">
  <defs
     id="defs4">
    <inkscape:perspective
       sodipodi:type="inkscape:persp3d"
       inkscape:vp_x="0 : 526.18109 : 1"
       inkscape:vp_y="0 : 1000 : 0"
       inkscape:vp_z="744.09448 : 526.18109 : 1"
       inkscape:persp3d-origin="372.04724 : 350.78739 : 1"
       id="perspective10" />
    <inkscape:perspective
       id="perspective2390"
       inkscape:persp3d-origin="372.04724 : 350.78739 : 1"
       inkscape:vp_z="744.09448 : 526.18109 : 1"
       inkscape:vp_y="0 : 1000 : 0"
       inkscape:vp_x="0 : 526.18109 : 1"
       sodipodi:type="inkscape:persp3d" />
    <inkscape:perspective
       id="perspective2589"
       inkscape:persp3d-origin="372.04724 : 350.78739 : 1"
       inkscape:vp_z="744.09448 : 526.18109 : 1"
       inkscape:vp_y="0 : 1000 : 0"
       inkscape:vp_x="0 : 526.18109 : 1"
       sodipodi:type="inkscape:persp3d" />
    <inkscape:perspective
       id="perspective2624"
       inkscape:persp3d-origin="372.04724 : 350.78739 : 1"
       inkscape:vp_z="744.09448 : 526.18109 : 1"
       inkscape:vp_y="0 : 1000 : 0"
       inkscape:vp_x="0 : 526.18109 : 1"
       sodipodi:type="inkscape:persp3d" />
    <inkscape:perspective
       id="perspective2659"
       inkscape:persp3d-origin="372.04724 : 350.78739 : 1"
       inkscape:vp_z="744.09448 : 526.18109 : 1"
       inkscape:vp_y="0 : 1000 : 0"
       inkscape:vp_x="0 : 526.18109 : 1"
       sodipodi:type="inkscape:persp3d" />
    <inkscape:perspective
       id="perspective2694"
       inkscape:persp3d-origin="372.04724 : 350.78739 : 1"
       inkscape:vp_z="744.09448 : 526.18109 : 1"
       inkscape:vp_y="0 : 1000 : 0"
       inkscape:vp_x="0 : 526.18109 : 1"
       sodipodi:type="inkscape:persp3d" />
    <inkscape:perspective
       id="perspective2729"
       inkscape:persp3d-origin="372.04724 : 350.78739 : 1"
       inkscape:vp_z="744.09448 : 526.18109 : 1"
       inkscape:vp_y="0 : 1000 : 0"
       inkscape:vp_x="0 : 526.18109 : 1"
       sodipodi:type="inkscape:persp3d" />
    <inkscape:perspective
       id="perspective2764"
       inkscape:persp3d-origin="372.04724 : 350.78739 : 1"
       inkscape:vp_z="744.09448 : 526.18109 : 1"
       inkscape:vp_y="0 : 1000 : 0"
       inkscape:vp_x="0 : 526.18109 : 1"
       sodipodi:type="inkscape:persp3d" />
  </defs>
  <sodipodi:namedview
     id="base"
     pagecolor="#ffffff"
     bordercolor="#666666"
     borderopacity="1.0"
     inkscape:pageopacity="0.0"
     inkscape:pageshadow="2"
     inkscape:zoom="1.8684589"
     inkscape:cx="153.30342"
     inkscape:cy="119.34969"
     inkscape:document-units="px"
     inkscape:current-layer="layer1"
     showgrid="false"
     inkscape:window-width="1280"
     inkscape:window-height="781"
     inkscape:window-x="0"
     inkscape:window-y="0" />
  <metadata
     id="metadata7">
    <rdf:RDF>
      <cc:Work
         rdf:about="">
        <dc:format>image/svg+xml</dc:format>
        <dc:type
           rdf:resource="http://purl.org/dc/dcmitype/StillImage" />
      </cc:Work>
    </rdf:RDF>
  </metadata>
  <g
     inkscape:label="Ebene 1"
     inkscape:groupmode="layer"
     id="layer1"
     transform="translate(-417.71189,-53.854192)">
    <path
       style="fill:#000000"
       d=""
       id="path2396" />
    <path
       style="fill:#088708;fill-opacity:1"
       d="M 519.42419,356.53491 C 517.68112,355.8797 514.27467,353.21712 511.8543,350.61805 C 509.01775,347.57207 506.6181,345.89247 505.10283,345.89247 C 501.51486,345.89247 492.60023,335.93479 490.48489,329.56419 C 489.54041,326.71974 487.43135,323.14376 485.79809,321.61755 C 483.10311,319.0992 482.96854,318.68312 484.3427,317.11755 C 487.15087,313.91819 487.37206,311.09253 485.06765,307.85629 C 483.87911,306.18715 483.16644,304.14454 483.48394,303.31716 C 483.83675,302.39773 482.44475,300.0592 479.90372,297.30251 C 476.45504,293.56113 475.71481,292.03757 475.56185,288.36592 C 475.46044,285.93148 474.85742,283.31305 474.22182,282.5472 C 473.42114,281.58244 473.25783,278.1197 473.69011,271.2736 C 474.15861,263.8541 473.88572,259.27491 472.59471,252.89247 C 470.6775,243.41419 469.69821,225.75429 470.19638,209.64247 C 470.30267,206.20497 469.8388,201.41747 469.16557,199.00357 C 467.56492,193.26435 460.5717,186.44251 451.28791,181.56402 C 444.87406,178.19363 443.9627,177.3193 441.44509,172.1211 C 439.91912,168.97035 437.00275,164.26139 434.96427,161.65674 C 432.92578,159.05209 430.70948,155.22709 430.03915,153.15674 C 427.91154,146.58551 424.16098,139.98285 421.6043,138.30765 C 420.24379,137.41621 418.69598,135.11263 418.16473,133.18858 C 417.32962,130.16409 417.55056,129.15879 419.79612,125.76552 L 422.39343,121.84072 L 420.05266,119.34909 L 417.71189,116.85745 L 420.00427,112.13905 C 421.26508,109.54392 424.45488,104.70835 427.09273,101.39332 C 433.15208,93.778434 434.62436,88.767039 433.04179,81.143803 L 431.87654,75.530831 L 436.98497,70.809426 C 439.79461,68.212654 442.09341,65.572535 442.09341,64.942495 C 442.09341,63.050013 447.22793,58.892467 449.56512,58.892467 C 450.76393,58.892467 452.80166,57.767467 454.09341,56.392467 C 456.32963,54.012124 459.10574,53.038377 459.08259,54.642467 C 459.07663,55.054967 458.4199,57.540776 457.62319,60.166487 C 456.01748,65.45838 456.50204,68.158544 458.96924,67.667189 C 460.11004,67.439993 460.59341,66.264616 460.59341,63.71782 C 460.59341,60.986166 461.24888,59.574062 463.25114,57.99219 C 466.62106,55.329806 467.30582,55.358873 470.81701,58.313349 C 474.14129,61.110541 484.9676,64.213131 488.39888,63.351936 C 493.29118,62.124047 506.51032,70.161584 511.47713,77.384034 C 513.84212,80.823074 521.39744,84.28396 524.71974,83.450116 C 531.69428,81.699619 540.54115,88.372752 543.45285,97.580364 C 545.74691,104.83482 545.60025,105.58381 541.09341,109.62968 C 536.5886,113.67374 535.7566,116.47531 539.33862,115.5386 C 540.65865,115.1934 543.34642,115.80472 545.86127,117.02213 C 550.52354,119.2791 549.60062,119.51209 556.91063,114.23277 C 559.10015,112.65148 559.47214,112.67794 563.66063,114.71287 C 567.81813,116.73273 568.54295,117.67052 568.18537,120.56706 C 567.95523,122.43129 569.87094,123.0819 572.09133,121.89358 C 573.56562,121.10456 576.35709,121.10706 582.16724,121.90258 C 589.52242,122.90964 590.53353,123.33259 594.09134,126.8904 C 596.39084,129.1899 599.73823,131.2802 602.2861,132.00768 C 607.70204,133.55405 609.71238,135.23731 610.43027,138.82679 C 611.29241,143.13747 609.34326,148.63522 605.00869,154.11886 C 602.85529,156.84312 601.09341,159.43908 601.09341,159.88765 C 601.09341,160.33623 599.47598,162.63918 597.49913,165.00532 C 594.01086,169.1805 593.92355,169.48562 594.53893,175.34993 C 595.69912,186.40603 590.79697,205.39808 585.28781,211.19092 C 583.00724,213.58891 582.1021,213.90079 578.96253,213.37036 C 576.64773,212.97928 575.0362,213.17601 574.58587,213.90467 C 574.19384,214.539 572.01015,215.87709 569.73324,216.87821 C 567.45634,217.87933 564.06649,220.00263 562.20025,221.59665 C 558.97013,224.35561 558.86196,224.66113 559.94896,227.95477 C 561.20224,231.75227 560.35824,236.24859 557.6723,240.0833 C 556.80391,241.3231 556.09341,243.43238 556.09341,244.77059 C 556.09341,246.10879 555.05607,248.59616 553.78822,250.29808 C 552.52036,251.99999 550.21243,255.64247 548.65949,258.39247 C 545.5685,263.86609 542.50934,266.83578 539.92632,266.87023 C 539.00941,266.88246 536.17952,266.001 533.63765,264.91143 C 529.64631,263.20055 528.9377,263.13466 528.4413,264.42827 C 528.09894,265.32043 528.87205,266.71711 530.35311,267.88211 C 534.07639,270.81084 536.44675,276.36372 535.07099,278.93436 C 533.34056,282.1677 528.02744,284.8846 523.42674,284.88873 C 519.01069,284.89269 517.74378,286.18721 519.26372,289.14247 C 521.21709,292.94044 516.89346,296.31654 513.12695,293.93436 C 512.2005,293.34841 511.19557,293.39272 510.39796,294.05468 C 508.86224,295.32921 510.24093,298.52908 513.41116,301.04817 C 515.15851,302.43662 515.28576,302.95577 514.19958,304.26454 C 513.48719,305.12292 513.10956,306.40286 513.36041,307.10885 C 513.61125,307.81484 512.70385,310.31723 511.34396,312.66972 L 508.87143,316.94696 L 512.59036,320.45437 C 516.95407,324.56987 517.18415,326.58377 514.08419,333.53011 L 511.79141,338.66776 L 514.02841,342.2873 C 516.25861,345.89583 528.19852,354.45543 533.09341,355.95479 C 535.32519,356.63841 535.20449,356.72979 531.96841,356.80652 C 529.97466,356.85379 527.04966,357.08006 525.46841,357.30933 C 523.88716,357.5386 521.16726,357.19011 519.42419,356.53491 z M 546.29341,113.69247 C 544.47752,111.87658 544.8501,110.10447 547.20492,109.35708 C 549.76888,108.54331 552.63671,111.03428 551.76154,113.31493 C 551.04562,115.18058 547.99234,115.39139 546.29341,113.69247 z"
       id="path2770" />
  </g>
</svg>
