<?xml version="1.0" encoding="iso-8859-1"?>
<!-- Generator: Adobe Illustrator 18.1.1, SVG Export Plug-In . SVG Version: 6.00 Build 0)  -->
<svg version="1.1" id="Capa_1" xmlns="http://www.w3.org/2000/svg" xmlns:xlink="http://www.w3.org/1999/xlink" x="0px" y="0px"
	 viewBox="0 0 52 52" style="enable-background:new 0 0 52 52;" xml:space="preserve">
<g>
	<g>
		<path style="fill:#010002;" d="M47,21C47,9.4,37.6,0,26,0S5,9.4,5,21c0,7.4,3.9,13.9,9.7,17.7L9.6,52h32.9l-5.1-13.3
			C43.1,34.9,47,28.4,47,21z M7.8,21C7.8,11,16,2.8,26,2.8S44.2,11,44.2,21S36,39.2,26,39.2S7.8,31,7.8,21z M38.4,49.2H13.6l3.5-9.2
			c2.7,1.2,5.7,2,8.8,2c3.1,0,6.1-0.7,8.8-2L38.4,49.2z"/>
		<path style="fill:#010002;" d="M31.3,31c0.3,0.4,0.7,0.6,1.2,0.6h0.1l5.5-0.4c0.9-0.1,1.5-0.8,1.4-1.7s-0.8-1.5-1.7-1.4l-4.7,0.4
			l-6.5-8.4H32c0,0.1,0.1,0.1,0.1,0.2l0.6,0.6l-1.5,1.5c-0.4,0.4-0.4,1,0,1.3l3.4,3.4c0.4,0.4,1,0.4,1.3,0l5.3-5.3
			c0.4-0.4,0.4-1,0-1.3l-3.4-3.4c-0.4-0.4-1-0.4-1.3,0L35,18.6L34.4,18c-0.2-0.2-0.5-0.2-0.7,0l0,0c-0.2-0.6-0.8-1-1.5-1h-9.4
			c-0.5,0-1,0-1.9,0.7l-4.5,3.6L14,18.9c-0.6-0.6-1.6-0.5-2.2,0.1s-0.5,1.6,0.1,2.2l3.4,3c0.3,0.3,0.7,0.4,1,0.4s0.7-0.1,1-0.3
			l3.1-2.5l2.9,4L22.2,26c-0.4,0.1-0.8,0.3-1.1,0.7L17,33.4c-0.4,0.7-0.2,1.7,0.5,2.1c0.3,0.2,0.5,0.2,0.8,0.2c0.5,0,1-0.3,1.3-0.8
			l3.7-6.1l5.5-0.9L31.3,31z M34.1,18.8l0.2,0.2l-1,1l-0.2-0.2L34.1,18.8z"/>
		<circle style="fill:#010002;" cx="19.4" cy="14.2" r="3.5"/>
	</g>
</g>
<g>
</g>
<g>
</g>
<g>
</g>
<g>
</g>
<g>
</g>
<g>
</g>
<g>
</g>
<g>
</g>
<g>
</g>
<g>
</g>
<g>
</g>
<g>
</g>
<g>
</g>
<g>
</g>
<g>
</g>
</svg>
