<?xml version="1.0" encoding="iso-8859-1"?>
<!-- Generator: Adobe Illustrator 18.1.1, SVG Export Plug-In . SVG Version: 6.00 Build 0)  -->
<svg version="1.1" id="Capa_1" xmlns="http://www.w3.org/2000/svg" xmlns:xlink="http://www.w3.org/1999/xlink" x="0px" y="0px"
	 viewBox="0 0 60.569 60.569" style="enable-background:new 0 0 60.569 60.569;" xml:space="preserve">
<g>
	<g>
		<ellipse style="fill:#010002;" cx="27.177" cy="8.041" rx="4.754" ry="4.844"/>
		<path style="fill:#010002;" d="M34.633,14.662c-0.371-0.185-0.736-0.29-1.092-0.333l-0.005-0.083
			c-2.301-0.481-3.194-0.089-3.194-0.089l-2.533,5.308l0.552-4.737h0.093v-0.785h-1.917v0.785h0.098l0.651,4.739l-2.535-5.524
			c-0.234,0.066,0.057,0.009-0.166,0.098c0,0-0.863-1.005-4.05,0.552c-0.224,0.059-0.453,0.144-0.682,0.258
			c-3.139,1.562-6.357,3.922-7.085,7.632c-0.706,3.599,1.324,6.766,3.713,9.2c1.372,1.398,3.103,1.097,4.228,0.08l-0.019,7.422
			v18.613c0,1.533,1.1,2.771,2.645,2.771c1.544,0,2.795-1.237,2.795-2.771V38.406c0,0,0.09-0.984,1.073-0.996
			c0.983-0.01,0.958,0.947,0.958,0.947v19.389c0,1.532,1.252,2.771,2.797,2.771c1.544,0,2.797-1.237,2.797-2.771l0.092-20.01
			c0-0.082,0.004-2.799,0.01-6.094c1.125,0.961,2.81,1.219,4.149-0.148c2.39-2.433,4.421-5.601,3.714-9.2
			C40.991,18.583,37.769,16.224,34.633,14.662z M20.721,26.916c-0.751-0.746-2.312-2.32-1.77-3.318
			c0.436-0.802,1.066-1.407,1.784-1.908L20.721,26.916z M27.471,30.611c-0.469,0-0.851-0.391-0.851-0.869
			c0-0.479,0.382-0.869,0.851-0.869c0.47,0,0.853,0.39,0.853,0.869C28.324,30.22,27.941,30.611,27.471,30.611z M27.471,27.879
			c-0.469,0-0.851-0.39-0.851-0.869s0.382-0.868,0.851-0.868c0.47,0,0.853,0.389,0.853,0.868S27.941,27.879,27.471,27.879z
			 M27.534,25.146c-0.471,0-0.853-0.389-0.853-0.869s0.382-0.868,0.853-0.868c0.47,0,0.854,0.389,0.854,0.868
			S28.004,25.146,27.534,25.146z M33.86,26.632c0.003-1.962,0.004-3.775,0.005-5.042c0.67,0.484,1.257,1.061,1.669,1.82
			C36.053,24.366,34.639,25.854,33.86,26.632z"/>
		<path style="fill:#010002;" d="M46.626,4.774c0.702-0.179,1.208-0.843,1.181-1.606c-0.017-0.423-0.194-0.818-0.5-1.107
			C47,1.771,46.602,1.62,46.184,1.637c-0.074,0.002-0.148,0.01-0.222,0.026c-0.243-1-1.151-1.7-2.176-1.661
			c-0.791,0.032-1.504,0.504-1.853,1.222c-0.354-0.15-0.728-0.218-1.111-0.205c-0.709,0.028-1.364,0.335-1.848,0.866
			c-0.483,0.531-0.734,1.221-0.707,1.945c0.037,1.078,0.696,2.017,1.666,2.413c-0.358,0.435-0.551,0.989-0.527,1.561
			c0.002,0.034,0.005,0.065,0.008,0.096l0.002,0.035l0.096-0.01c-0.231,0.232-0.459,0.466-0.68,0.709
			c-0.368,0.409-0.693,0.855-1.033,1.288c-0.683,0.865-1.357,1.732-2.027,2.608l0.023,0.022c0.741-0.814,1.477-1.634,2.201-2.46
			c0.366-0.41,0.747-0.808,1.083-1.245c0.335-0.438,0.66-0.883,0.944-1.362L40,7.464c-0.094,0.083-0.18,0.171-0.273,0.255
			c0-0.539,0.219-1.056,0.606-1.429l0.205-0.197l-0.271-0.079c-0.965-0.289-1.644-1.172-1.68-2.195
			c-0.023-0.635,0.198-1.243,0.62-1.708c0.425-0.467,1.003-0.737,1.627-0.761c0.386-0.015,0.757,0.065,1.109,0.242l0.155,0.076
			l0.063-0.163c0.271-0.684,0.914-1.145,1.634-1.173c0.92-0.035,1.729,0.638,1.879,1.56l0.031,0.185l0.176-0.055
			c0.104-0.033,0.209-0.051,0.312-0.056c0.331-0.012,0.649,0.107,0.891,0.338c0.242,0.229,0.386,0.541,0.397,0.879
			c0.023,0.697-0.512,1.285-1.174,1.314L46.126,4.51L46.125,4.7c0.001,0.022,0,0.046-0.002,0.069l-0.005,0.116l0.103,0.046
			c0.832,0.377,1.371,1.184,1.403,2.109c0.024,0.645-0.198,1.258-0.629,1.73c-0.431,0.473-1.015,0.744-1.646,0.771
			c-0.691,0.026-1.358-0.257-1.83-0.778l-0.141-0.157l-0.113,0.178c-0.34,0.536-0.92,0.873-1.543,0.896
			c-0.314,0.012-0.621-0.058-0.903-0.197c0.206-0.197,0.405-0.401,0.596-0.616l-0.021-0.026c-0.479,0.277-0.926,0.598-1.363,0.927
			c-0.438,0.331-0.839,0.707-1.252,1.068c-0.832,0.717-1.656,1.441-2.475,2.171l0.021,0.025c0.878-0.657,1.749-1.321,2.614-1.993
			c0.438-0.333,0.883-0.651,1.295-1.016c0.109-0.099,0.223-0.201,0.333-0.303c0.356,0.204,0.759,0.304,1.168,0.289
			c0.663-0.025,1.278-0.35,1.687-0.881c0.522,0.501,1.219,0.77,1.939,0.741c0.719-0.026,1.383-0.337,1.869-0.874
			c0.488-0.537,0.742-1.234,0.717-1.966C47.912,6.084,47.415,5.245,46.626,4.774z"/>
		<path style="fill:#010002;" d="M13.37,7c-0.091,0.226-0.134,0.461-0.125,0.703c0.016,0.448,0.203,0.864,0.527,1.169
			c0.323,0.306,0.743,0.464,1.185,0.448c0.656-0.025,1.227-0.443,1.469-1.055c0.265,0.227,0.603,0.348,0.951,0.334
			c0.019-0.001,0.04-0.002,0.058-0.004l0.021-0.003L17.45,8.533c0.14,0.147,0.285,0.29,0.433,0.43
			c0.248,0.232,0.519,0.437,0.783,0.652c0.528,0.432,1.056,0.859,1.589,1.282l0.013-0.016c-0.496-0.468-0.995-0.932-1.498-1.39
			c-0.25-0.231-0.491-0.473-0.757-0.685c-0.267-0.211-0.539-0.418-0.83-0.599L17.17,8.222c0.049,0.061,0.104,0.116,0.155,0.173
			c-0.329,0-0.645-0.137-0.871-0.384l-0.12-0.128l-0.049,0.171c-0.175,0.611-0.713,1.039-1.335,1.063
			c-0.388,0.014-0.758-0.125-1.042-0.395c-0.284-0.267-0.448-0.633-0.463-1.027c-0.009-0.243,0.04-0.478,0.146-0.701l0.047-0.099
			l-0.1-0.041c-0.417-0.171-0.696-0.577-0.714-1.032c-0.022-0.581,0.388-1.094,0.949-1.188l0.114-0.02l-0.034-0.111
			c-0.021-0.065-0.03-0.131-0.034-0.197c-0.008-0.209,0.065-0.409,0.206-0.563c0.14-0.154,0.329-0.242,0.535-0.251
			c0.425-0.016,0.783,0.323,0.801,0.742l0.007,0.115l0.117,0.002c0.016-0.001,0.029,0,0.044,0l0.069,0.004l0.028-0.064
			c0.229-0.526,0.721-0.867,1.285-0.889c0.392-0.016,0.765,0.126,1.053,0.397s0.454,0.642,0.469,1.042
			c0.018,0.436-0.155,0.858-0.473,1.156l-0.097,0.089l0.108,0.072c0.326,0.216,0.531,0.581,0.545,0.975
			c0.007,0.198-0.036,0.394-0.119,0.571c-0.121-0.129-0.246-0.256-0.376-0.376l-0.017,0.013c0.17,0.304,0.364,0.585,0.565,0.862
			c0.201,0.276,0.43,0.53,0.649,0.791c0.436,0.526,0.877,1.046,1.323,1.564l0.017-0.012c-0.401-0.555-0.806-1.106-1.215-1.653
			c-0.202-0.276-0.397-0.558-0.619-0.817c-0.061-0.07-0.122-0.141-0.184-0.211c0.123-0.227,0.185-0.481,0.176-0.738
			c-0.016-0.42-0.215-0.81-0.538-1.066c0.305-0.33,0.469-0.771,0.452-1.226c-0.018-0.455-0.206-0.875-0.533-1.183
			C17.77,3.345,17.345,3.184,16.899,3.2c-0.576,0.022-1.084,0.337-1.371,0.835c-0.11-0.443-0.512-0.762-0.978-0.745
			c-0.259,0.01-0.499,0.122-0.674,0.316c-0.178,0.193-0.27,0.446-0.259,0.709c0.001,0.046,0.005,0.093,0.015,0.141
			c-0.607,0.154-1.035,0.728-1.011,1.374C12.644,6.331,12.933,6.78,13.37,7z"/>
	</g>
</g>
<g>
</g>
<g>
</g>
<g>
</g>
<g>
</g>
<g>
</g>
<g>
</g>
<g>
</g>
<g>
</g>
<g>
</g>
<g>
</g>
<g>
</g>
<g>
</g>
<g>
</g>
<g>
</g>
<g>
</g>
</svg>
