<?xml version="1.0" encoding="iso-8859-1"?>
<!-- Generator: Adobe Illustrator 18.0.0, SVG Export Plug-In . SVG Version: 6.00 Build 0)  -->
<!DOCTYPE svg PUBLIC "-//W3C//DTD SVG 1.1//EN" "http://www.w3.org/Graphics/SVG/1.1/DTD/svg11.dtd">
<svg version="1.1" id="Capa_1" xmlns="http://www.w3.org/2000/svg" xmlns:xlink="http://www.w3.org/1999/xlink" x="0px" y="0px"
	 viewBox="0 0 66.689 66.689" style="enable-background:new 0 0 66.689 66.689;" xml:space="preserve">
<path style="fill:#231F20;" d="M55.106,62.611l-8.01-20.827c3.743-3.61,6.084-8.664,6.084-14.262c0-1.657-1.343-3-3-3H19.717
	l27.557-14.115c1.475-0.755,2.058-2.563,1.303-4.038C46.411,2.144,43.358,0,39.503,0c-3.712,0-7.473,1.963-11.828,4.236
	c-0.639,0.334-1.292,0.674-1.956,1.014c-0.664,0.34-1.321,0.67-1.965,0.994c-5.453,2.74-10.163,5.106-11.646,9.645
	c-0.846,2.586-0.465,5.388,1.162,8.566c0.231,0.452,0.58,0.822,0.992,1.102c-0.462,0.528-0.751,1.21-0.751,1.966
	c0,5.598,2.34,10.651,6.083,14.261l-8.01,20.828c-0.595,1.546,0.177,3.282,1.724,3.877c0.354,0.136,0.718,0.201,1.076,0.201
	c1.205,0,2.342-0.732,2.801-1.924l4.326-11.25h8.835v7.002c0,1.657,1.343,3,3,3c1.657,0,3-1.343,3-3v-7.002h8.834l4.327,11.25
	c0.458,1.192,1.595,1.924,2.8,1.924c0.358,0,0.722-0.065,1.077-0.201C54.93,65.894,55.701,64.158,55.106,62.611z M22.664,50.516
	l1.996-5.189c1.766,0.865,3.675,1.471,5.686,1.778v3.41H22.664z M36.345,50.516v-3.411c2.011-0.307,3.919-0.913,5.685-1.778
	l1.996,5.189H36.345z"/>
<g>
</g>
<g>
</g>
<g>
</g>
<g>
</g>
<g>
</g>
<g>
</g>
<g>
</g>
<g>
</g>
<g>
</g>
<g>
</g>
<g>
</g>
<g>
</g>
<g>
</g>
<g>
</g>
<g>
</g>
</svg>
