<?xml version="1.0" encoding="iso-8859-1"?>
<!-- Generator: Adobe Illustrator 18.0.0, SVG Export Plug-In . SVG Version: 6.00 Build 0)  -->
<!DOCTYPE svg PUBLIC "-//W3C//DTD SVG 1.1//EN" "http://www.w3.org/Graphics/SVG/1.1/DTD/svg11.dtd">
<svg version="1.1" id="Capa_1" xmlns="http://www.w3.org/2000/svg" xmlns:xlink="http://www.w3.org/1999/xlink" x="0px" y="0px"
	 viewBox="0 0 459.943 459.943" style="enable-background:new 0 0 459.943 459.943;" xml:space="preserve">
<g id="XMLID_87_">
	<path id="XMLID_95_" d="M107.318,205.282c0-34.72,28.237-62.965,62.957-62.965h156.28L300.4,78.348
		c-6.754-16.506-25.617-24.419-42.133-17.667L20.075,158.12c-7.936,3.241-14.254,9.5-17.562,17.396
		c-3.311,7.899-3.355,16.791-0.107,24.72l62.121,151.886c6.751,16.506,25.617,24.419,42.131,17.667l0.675-0.277
		c0-0.045-0.016-0.089-0.016-0.134V205.282z"/>
	<path id="XMLID_92_" d="M427.649,172.98H170.275c-17.831,0-32.294,14.464-32.294,32.302v164.097
		c0,17.831,14.463,32.295,32.294,32.295h257.374c17.83,0,32.294-14.464,32.294-32.295V205.282
		C459.943,187.444,445.479,172.98,427.649,172.98z M436.855,372.2c0,4.237-3.429,7.666-7.666,7.666H167.447
		c-4.238,0-7.666-3.429-7.666-7.666V202.453c0-4.238,3.428-7.666,7.666-7.666h261.742c4.237,0,7.666,3.428,7.666,7.666V372.2z"/>
	<path id="XMLID_88_" d="M175.112,210.119v154.414h246.412V210.119H175.112z M254.673,243.403c0.449-1.633,1.618-2.958,3.176-3.625
		l11.393-4.858c1.272-0.538,2.695-0.59,4.012-0.127l32.686,11.462l-39.571,16.881l-10.84-15.002
		C254.538,246.763,254.224,245.026,254.673,243.403z M382.192,241.762c3.101,7.276-10.811,20.189-18.102,23.298l-27.878,11.886
		l-4.118,14.218l-14.357,49.572c-0.449,1.603-1.617,2.904-3.144,3.564l-11.318,4.821c-1.497,0.637-3.204,0.585-4.657-0.149
		c-1.452-0.734-2.515-2.075-2.904-3.662l-8.413-35.041l-2.711-11.304l-34.66,14.784c-0.016,0-0.016,0-0.016,0.007l-4.671,1.984
		c-4.836,2.066-10.45,0.165-13.041-4.409l-11.679-20.594l-5.824-10.273c-0.778-1.376-0.942-3.016-0.434-4.513
		c0.509-1.498,1.631-2.703,3.085-3.324l8.863-3.788c1.841-0.785,3.968-0.517,5.555,0.695l7.006,5.361l10.466,8.002l103.622-44.19
		c3.28-1.407,8.954-2.395,14.464-2.395C374.017,236.313,380.486,237.78,382.192,241.762z"/>
</g>
<g>
</g>
<g>
</g>
<g>
</g>
<g>
</g>
<g>
</g>
<g>
</g>
<g>
</g>
<g>
</g>
<g>
</g>
<g>
</g>
<g>
</g>
<g>
</g>
<g>
</g>
<g>
</g>
<g>
</g>
</svg>
