<?xml version="1.0" encoding="UTF-8" standalone="no"?>
<svg
   xmlns:dc="http://purl.org/dc/elements/1.1/"
   xmlns:cc="http://creativecommons.org/ns#"
   xmlns:rdf="http://www.w3.org/1999/02/22-rdf-syntax-ns#"
   xmlns:svg="http://www.w3.org/2000/svg"
   xmlns="http://www.w3.org/2000/svg"
   xmlns:sodipodi="http://sodipodi.sourceforge.net/DTD/sodipodi-0.dtd"
   xmlns:inkscape="http://www.inkscape.org/namespaces/inkscape"
   height="512px"
   width="512px"
   xml:space="preserve"
   style="enable-background:new 0 0 25.944 25.944;"
   viewBox="0 0 25.944 25.944"
   y="0px"
   x="0px"
   id="Capa_1"
   version="1.1"
   inkscape:version="0.91 r13725"
   sodipodi:docname="cliffdiving.svg"><sodipodi:namedview
     pagecolor="#ffffff"
     bordercolor="#666666"
     borderopacity="1"
     objecttolerance="10"
     gridtolerance="10"
     guidetolerance="10"
     inkscape:pageopacity="0"
     inkscape:pageshadow="2"
     inkscape:window-width="1097"
     inkscape:window-height="668"
     id="namedview4193"
     showgrid="false"
     inkscape:zoom="0.91992188"
     inkscape:cx="256"
     inkscape:cy="256"
     inkscape:window-x="-8"
     inkscape:window-y="-8"
     inkscape:window-maximized="1"
     inkscape:current-layer="Capa_1" /><metadata
     id="metadata4361"><rdf:RDF><cc:Work
         rdf:about=""><dc:format>image/svg+xml</dc:format><dc:type
           rdf:resource="http://purl.org/dc/dcmitype/StillImage" /><dc:title /></cc:Work></rdf:RDF></metadata><defs
     id="defs4359" /><g
     id="g4327" /><g
     id="g4329" /><g
     id="g4331" /><g
     id="g4333" /><g
     id="g4335" /><g
     id="g4337" /><g
     id="g4339" /><g
     id="g4341" /><g
     id="g4343" /><g
     id="g4345" /><g
     id="g4347" /><g
     id="g4349" /><g
     id="g4351" /><g
     id="g4353" /><g
     id="g4355" /><path
     id="path6338"
     d="m 4.1416408,26.065027 c -0.084957,-0.09735 -0.1408838,-0.175372 -0.124282,-0.173391 0.029507,0.0035 0.3187744,0.350383 0.2922032,0.350383 -0.0074,0 -0.082964,-0.07965 -0.1679212,-0.176992 z"
     style="fill:#000000" /><g
     transform="matrix(0.07206667,0,0,0.07206667,-0.98939057,-12.092543)"
     id="g6350" /><g
     transform="matrix(0.07206667,0,0,0.07206667,-0.98939057,-12.092543)"
     id="g6352" /><g
     transform="matrix(0.07206667,0,0,0.07206667,-0.98939057,-12.092543)"
     id="g6354" /><g
     transform="matrix(0.07206667,0,0,0.07206667,-0.98939057,-12.092543)"
     id="g6356" /><g
     transform="matrix(0.07206667,0,0,0.07206667,-0.98939057,-12.092543)"
     id="g6358" /><g
     transform="matrix(0.07206667,0,0,0.07206667,-0.98939057,-12.092543)"
     id="g6360" /><g
     transform="matrix(0.07206667,0,0,0.07206667,-0.98939057,-12.092543)"
     id="g6362" /><g
     transform="matrix(0.07206667,0,0,0.07206667,-0.98939057,-12.092543)"
     id="g6364" /><g
     transform="matrix(0.07206667,0,0,0.07206667,-0.98939057,-12.092543)"
     id="g6366" /><g
     transform="matrix(0.07206667,0,0,0.07206667,-0.98939057,-12.092543)"
     id="g6368" /><g
     transform="matrix(0.07206667,0,0,0.07206667,-0.98939057,-12.092543)"
     id="g6370" /><g
     transform="matrix(0.07206667,0,0,0.07206667,-0.98939057,-12.092543)"
     id="g6372" /><g
     transform="matrix(0.07206667,0,0,0.07206667,-0.98939057,-12.092543)"
     id="g6374" /><g
     transform="matrix(0.07206667,0,0,0.07206667,-0.98939057,-12.092543)"
     id="g6376" /><g
     transform="matrix(0.07206667,0,0,0.07206667,-0.98939057,-12.092543)"
     id="g6378" /><g
     transform="matrix(0.23692644,0,0,0.23692644,7.0983231,1.9789848)"
     id="g6565"><g
       id="g6519"><g
         id="g6521"><circle
           style="fill:#006df0"
           cx="24.716999"
           cy="13.693"
           r="5.23"
           id="circle6523" /><path
           style="fill:#006df0"
           d="M 53.63,46.605 C 50.921,41.853 46.859,38.611 41.872,36.568 41.564,30.383 38.557,24.561 33.732,20.632 c -2.45,-1.996 -5.831,-2.375 -8.219,0.044 -0.147,0.148 -0.282,0.309 -0.41,0.475 C 20.181,18.347 14.761,16.247 9.757,14.549 5.961,13.261 4.345,19.25 8.109,20.527 c 5.665,1.921 11.892,4.411 17.076,8.021 0.118,0.12 0.239,0.238 0.372,0.347 2.971,2.418 4.816,5.292 4.714,9.184 -0.017,0.635 0.056,1.211 0.194,1.738 -0.323,2.008 -0.792,3.994 -1.384,5.941 -1.833,-1.894 -3.54,-3.896 -4.959,-6.148 -2.658,-4.213 -9.365,-0.327 -6.691,3.91 2.849,4.519 6.565,8.263 10.473,11.86 1.642,1.513 5.065,1.63 6.085,-0.784 1.532,-3.627 2.754,-7.281 3.578,-11.049 0.25,-0.062 0.495,-0.145 0.736,-0.234 0.262,0.178 0.551,0.332 0.875,0.457 2.498,0.955 4.568,2.482 6.199,4.476 -1.785,1.862 -3.742,3.521 -6.092,4.716 -4.453,2.268 -0.531,8.952 3.911,6.689 3.878,-1.973 7.054,-5.045 9.824,-8.354 1.146,-1.359 1.53,-3.074 0.61,-4.692 z"
           id="path6525" /><path
           style="fill:#006df0"
           d="m 21.456,7.669 c 0.73,-0.27 1.516,-0.811 2.339,-0.811 1.853,0 3.531,0.748 4.755,1.955 -0.797,-2.208 -1.572,-4.425 -2.297,-6.659 -1.227,-3.787 -7.213,-2.166 -5.978,1.648 0.378,1.165 0.782,2.709 1.181,3.867 z"
           id="path6527" /></g></g><g
       id="g6529" /><g
       id="g6531" /><g
       id="g6533" /><g
       id="g6535" /><g
       id="g6537" /><g
       id="g6539" /><g
       id="g6541" /><g
       id="g6543" /><g
       id="g6545" /><g
       id="g6547" /><g
       id="g6549" /><g
       id="g6551" /><g
       id="g6553" /><g
       id="g6555" /><g
       id="g6557" /></g><path
     style="color:#000000;font-style:normal;font-variant:normal;font-weight:normal;font-stretch:normal;font-size:medium;line-height:normal;font-family:sans-serif;text-indent:0;text-align:start;text-decoration:none;text-decoration-line:none;text-decoration-style:solid;text-decoration-color:#000000;letter-spacing:normal;word-spacing:normal;text-transform:none;direction:ltr;block-progression:tb;writing-mode:lr-tb;baseline-shift:baseline;text-anchor:start;white-space:normal;clip-rule:nonzero;display:inline;overflow:visible;visibility:visible;opacity:1;isolation:auto;mix-blend-mode:normal;color-interpolation:sRGB;color-interpolation-filters:linearRGB;solid-color:#000000;solid-opacity:1;fill:#006df0;fill-opacity:1;fill-rule:nonzero;stroke:none;stroke-width:1.01343751;stroke-linecap:round;stroke-linejoin:round;stroke-miterlimit:4;stroke-dasharray:none;stroke-dashoffset:0;stroke-opacity:1;color-rendering:auto;image-rendering:auto;shape-rendering:auto;text-rendering:auto;enable-background:accumulate"
     d="M 3.1953125,1.390625 A 0.50676943,0.50676943 0 0 0 2.9257812,1.4863281 L 1.9941406,2.1640625 a 0.50676943,0.50676943 0 0 0 0.3164063,0.9160156 c 0.1440237,-0.00554 0.2970896,-0.00402 0.4589843,-0.00391 a 0.50676943,0.50676943 0 0 0 0.00781,0 C 3.1149143,3.0716054 3.4408749,3.0612058 3.7578125,3.0664062 4.3439033,3.0877073 4.9280974,3.1498335 5.5,3.2578125 5.6117116,3.2791531 5.7209681,3.3218408 5.8320312,3.3496094 5.6883499,3.4751155 5.5410942,3.6039166 5.4003906,3.7207031 a 0.50676943,0.50676943 0 0 0 -0.015625,0.011719 C 5.2484968,3.8550144 5.0835174,4.0029242 4.9394531,4.2128906 4.7865626,4.4107255 4.6386752,4.6064243 4.4921875,4.796875 l 0.035156,-0.039063 C 4.308273,4.9881953 4.1253923,5.239807 3.96875,5.5 3.8645695,5.6661392 3.763448,5.8322569 3.6660156,6.0019531 A 0.50676943,0.50676943 0 0 0 3.6503906,6.03125 C 3.5541536,6.2279272 3.4531417,6.4436987 3.3789062,6.6875 3.3353338,6.8041697 3.2583139,6.9505586 3.1855469,7.1542969 a 0.50676943,0.50676943 0 0 0 -0.00977,0.03125 c -0.077843,0.2729508 -0.060374,0.4730794 -0.074219,0.5722656 l 0.019531,-0.083984 C 3.0342772,7.9480602 3.0033883,8.2104271 2.9824219,8.4492188 2.93053,8.7373059 2.9199353,8.9913899 2.8867188,9.1933594 2.8332447,9.4812499 2.8215466,9.7520682 2.8105469,10 a 0.50676943,0.50676943 0 0 0 -0.00195,0.0098 c -0.00635,0.246294 -0.010129,0.492928 -0.00977,0.742187 a 0.50676943,0.50676943 0 0 0 0,0.0059 c 0.00333,0.262042 -0.046573,0.567167 -0.076172,0.917969 a 0.50676943,0.50676943 0 0 0 0,0.002 c -0.029501,0.381945 -0.053469,0.766119 -0.070312,1.152344 a 0.50676943,0.50676943 0 0 0 -0.00195,0.0078 c -0.00798,0.269096 -0.00297,0.52764 -0.00391,0.777343 a 0.50676943,0.50676943 0 0 0 0,0.002 c -6.733e-4,0.360413 0.078904,0.669739 0.1328125,0.929687 a 0.50676943,0.50676943 0 0 0 0.013672,0.05273 c 0.1274692,0.391363 0.2445705,0.796084 0.3730468,1.207032 a 0.50676943,0.50676943 0 0 0 0.00977,0.0293 c 0.1754294,0.462851 0.3561578,0.92643 0.5527344,1.388671 a 0.50676943,0.50676943 0 0 0 0.00195,0.002 c 0.1663534,0.387509 0.3075268,0.802647 0.46875,1.230469 a 0.50676943,0.50676943 0 0 0 0.00586,0.01172 c 0.2120288,0.522851 0.4875368,0.976162 0.7128907,1.408203 l -0.00195,-0.0078 c 0.1956163,0.388456 0.3752277,0.782367 0.5371094,1.18164 0.039861,0.101802 0.060437,0.236657 0.066406,0.410157 l 0,-0.04688 c -0.015168,0.266616 0.037101,0.462806 0.052734,0.589844 0.013224,0.11888 0.015873,0.259673 0.019531,0.410156 -0.015602,0.110468 -0.041935,0.213012 -0.089844,0.304688 l 0.095703,-0.128906 c -0.2508991,0.243811 -0.3005488,0.494807 -0.3417968,0.580078 a 0.50676943,0.50676943 0 0 0 -0.017578,0.03906 c -0.064329,0.168622 -0.1346834,0.317306 -0.2148437,0.447266 -0.093124,0.09302 -0.1996115,0.183029 -0.3203125,0.275391 -0.010401,0.0061 -0.029106,0.01715 -0.033203,0.01953 -0.0041,0.0024 -0.034639,0.02309 -0.035156,0.02344 0,0 -0.00586,0.0039 -0.00586,0.0039 0,0 -0.00781,0.0039 -0.00781,0.0039 0,0 -0.017578,0.01563 -0.017578,0.01563 0,0 -0.011719,0.0078 -0.011719,0.0078 0,0 -0.00674,0.0085 -0.00781,0.0098 0.00141,-0.0012 -0.00311,0.001 -0.00195,0 -1.406e-4,1.68e-4 1.545e-4,0.0018 0,0.002 0.016636,-0.01437 0.00852,-0.0057 -0.021484,0.01563 -0.0016,9.29e-4 -3.455e-4,0.001 -0.00195,0.002 0.011514,-0.0083 -0.0052,2.64e-4 -0.017578,0.0078 -0.00703,0.0043 -0.011759,0.0082 -0.017578,0.01172 -0.00145,8.86e-4 -0.00339,0.0011 -0.00781,0.0039 -0.00221,0.0014 -0.017509,0.01167 -0.017578,0.01172 0,0 -0.011719,0.0098 -0.011719,0.0098 0,0 -0.011719,0.0078 -0.011719,0.0078 0,0 -0.017578,0.01563 -0.017578,0.01563 0,0 0.023279,0.02647 0.027344,0.03125 -2.175e-4,2.59e-4 -0.00391,0.0039 -0.00391,0.0039 0,0 0.00384,0.0019 0.00391,0.002 5.501e-4,-0.001 0.00143,-9.93e-4 0.00195,-0.002 7.477e-4,8.78e-4 0.00306,0.0049 0.00391,0.0059 1.538e-4,1.81e-4 0.0018,-1.84e-4 0.00195,0 1.161e-4,6.8e-5 0.00181,0.0019 0.00195,0.002 0.012919,0.01518 0.036748,0.04362 0.064453,0.07617 -0.00414,0.0018 -0.00758,0.006 -0.011719,0.0078 -0.028038,-0.0122 -0.089835,-0.03908 -0.089844,-0.03906 -2.19e-5,5.1e-5 0.00997,-0.01746 0.019531,-0.03516 l -0.40625,0.322266 a 0.50676943,0.50676943 0 0 0 0.5175781,0.861328 c 0.1046683,-0.04569 0.1978224,-0.09301 0.2851563,-0.136719 0.5424885,-0.227818 1.0304034,-0.539475 1.4765625,-0.867187 a 0.50676943,0.50676943 0 0 0 0.015625,-0.01367 c 0.1574899,-0.125955 0.3558731,-0.282585 0.5175781,-0.527344 a 0.50676943,0.50676943 0 0 0 0.019531,-0.0332 c 0.1243435,-0.222028 0.2185571,-0.438661 0.3066406,-0.638672 a 0.50676943,0.50676943 0 0 0 0.00195,-0.0039 c 0.053525,-0.123403 0.1164434,-0.23955 0.1953125,-0.361329 a 0.50676943,0.50676943 0 0 0 0.041016,-0.07617 c 0.08607,-0.202718 0.1690321,-0.447657 0.171875,-0.732422 a 0.50676943,0.50676943 0 0 0 0,-0.0078 c -0.00117,-0.192243 -0.011736,-0.387674 -0.035156,-0.585937 a 0.50676943,0.50676943 0 0 0 0,-0.002 c -0.021979,-0.18131 -0.042828,-0.319683 -0.041016,-0.421875 a 0.50676943,0.50676943 0 0 0 -0.00195,-0.04492 C 7.5236367,20.643275 7.4805061,20.37306 7.359375,20.103516 a 0.50676943,0.50676943 0 0 0 -0.00586,-0.01367 C 7.1474982,19.668327 6.9263581,19.279734 6.7441406,18.898438 a 0.50676943,0.50676943 0 0 0 -0.00781,-0.01563 C 6.5056762,18.439014 6.2875171,17.998661 6.1054688,17.552734 5.9419737,17.131505 5.7722043,16.721206 5.6113281,16.3125 a 0.50676943,0.50676943 0 0 0 -0.00586,-0.01367 C 5.4161193,15.853196 5.2358104,15.412102 5.0839844,14.96875 4.9634955,14.581903 4.85141,14.194135 4.7519531,13.806641 4.7011709,13.543838 4.6579295,13.31091 4.6601562,13.113281 a 0.50676943,0.50676943 0 0 0 0,-0.0078 c -0.00151,-0.249262 3.239e-4,-0.50065 0.00195,-0.753907 a 0.50676943,0.50676943 0 0 0 0,-0.002 c 0.00128,-0.364642 0.011361,-0.719975 0.048828,-1.0625 l -0.00195,0.0078 c 0.038646,-0.307036 0.1081105,-0.655603 0.1074218,-1.052734 l 0,-0.002 c 7.244e-4,-0.2463585 -0.00186,-0.4807849 0.00781,-0.7011715 0.01001,-0.2286952 0.032555,-0.4524006 0.070312,-0.6738281 a 0.50676943,0.50676943 0 0 0 0.00391,-0.023437 c 0.032949,-0.2667691 0.053206,-0.5164076 0.089844,-0.7441407 a 0.50676943,0.50676943 0 0 0 0.00391,-0.025391 C 5.0147228,7.8664807 5.0546337,7.6618217 5.109375,7.453125 a 0.50676943,0.50676943 0 0 0 0.013672,-0.068359 C 5.1472049,7.1784884 5.1554589,7.0642421 5.1679688,7.0332031 5.2359106,6.8680274 5.2992192,6.7023105 5.359375,6.5351562 l 0.00195,-0.00586 C 5.4283251,6.3517257 5.4997443,6.1882926 5.5800781,6.0449219 5.6781155,5.8834597 5.7731587,5.7248815 5.8691406,5.5722656 a 0.50676943,0.50676943 0 0 0 0.00195,-0.00391 C 5.9985415,5.3629743 6.131629,5.1775266 6.28125,5.0136719 a 0.50676943,0.50676943 0 0 0 0.023437,-0.027344 C 6.4584237,4.7919189 6.6237307,4.5917178 6.7890625,4.3769531 6.8777391,4.2726082 6.9821708,4.1711321 7.0996094,4.0664062 a 0.50676943,0.50676943 0 0 0 0.00195,0 C 7.339155,3.8536928 7.5895049,3.6408077 7.8417969,3.4140625 a 0.50676943,0.50676943 0 0 0 0.019531,-0.017578 C 7.9578015,3.3006825 8.1181356,3.1865224 8.2285156,2.9042969 8.2837056,2.7631841 8.3084356,2.534226 8.2128906,2.3378906 8.1173456,2.1415553 7.9525555,2.028277 7.7949219,1.9570312 A 0.50676943,0.50676943 0 0 0 7.7480469,1.9394531 C 7.3373376,1.801411 6.9371213,1.7313663 6.5742188,1.6542969 a 0.50676943,0.50676943 0 0 0 -0.00391,0 C 5.9269211,1.523473 5.3003913,1.483441 4.7050781,1.4238281 A 0.50676943,0.50676943 0 0 0 4.6835938,1.421875 C 4.3467038,1.401923 4.0171124,1.3985619 3.6953125,1.3945312 a 0.50676943,0.50676943 0 0 0 -0.00586,0 c -0.1580007,1.019e-4 -0.3070819,0.00175 -0.4453125,-0.00391 a 0.50676943,0.50676943 0 0 0 -0.048828,0 z m 0.4667969,11.830078 c 0.011065,0.290464 0.053099,0.564758 0.097656,0.794922 a 0.50676943,0.50676943 0 0 0 0.00586,0.0293 c 0.1071529,0.418833 0.2283395,0.830714 0.3554688,1.238281 a 0.50676943,0.50676943 0 0 0 0.00391,0.01367 c 0.1647582,0.481116 0.3541297,0.944814 0.546875,1.398437 0.1644476,0.417419 0.3325362,0.825827 0.4902344,1.232422 a 0.50676943,0.50676943 0 0 0 0.00391,0.0078 c 0.2008283,0.491928 0.4335597,0.96123 0.6699219,1.416015 l -0.00586,-0.01562 c 0.2011994,0.421016 0.4199602,0.805549 0.6054688,1.183593 0.052889,0.11769 0.081147,0.262917 0.09375,0.439453 l 0,-0.04492 c -0.00407,0.229416 0.031053,0.41587 0.048828,0.5625 0.017765,0.151096 0.0262,0.305725 0.027344,0.464844 -2.527e-4,0.01889 -0.016719,0.05108 -0.019531,0.07227 -0.00329,-0.0454 -4.945e-4,-0.08148 -0.00586,-0.128906 a 0.50676943,0.50676943 0 0 0 -0.00195,-0.0039 C 6.5528626,21.675578 6.5272517,21.542937 6.53125,21.472656 a 0.50676943,0.50676943 0 0 0 0,-0.04687 c -0.00764,-0.222182 -0.028957,-0.48103 -0.1367188,-0.751953 a 0.50676943,0.50676943 0 0 0 -0.00195,-0.0039 C 6.218856,20.241445 6.0264522,19.823416 5.8203125,19.414062 a 0.50676943,0.50676943 0 0 0 -0.00391,-0.0059 C 5.5704895,18.93674 5.3155875,18.509706 5.1445312,18.087891 4.9923178,17.68316 4.8447022,17.258011 4.6601562,16.828125 l 0.00195,0 C 4.4773663,16.393709 4.302691,15.951597 4.1328125,15.503906 l -0.00391,-0.01172 C 4.0098121,15.110667 3.8979652,14.719145 3.7695312,14.322266 3.7124605,14.047789 3.6578461,13.810277 3.6582031,13.619141 c 5.151e-4,-0.137989 0.0035,-0.265909 0.00391,-0.398438 z m 0.9101562,10.806641 c -0.020881,0.0249 -0.054067,0.06581 -0.074219,0.08984 -1.818e-4,2.77e-4 0.037599,-0.05215 0.048828,-0.06445 0.014184,-0.01554 0.017097,-0.01775 0.023437,-0.02344 5.284e-4,-4.74e-4 0.00146,-0.0015 0.00195,-0.002 z"
     id="path6601"
     inkscape:connector-curvature="0" /><path
     style="color:#000000;font-style:normal;font-variant:normal;font-weight:normal;font-stretch:normal;font-size:medium;line-height:normal;font-family:sans-serif;text-indent:0;text-align:start;text-decoration:none;text-decoration-line:none;text-decoration-style:solid;text-decoration-color:#000000;letter-spacing:normal;word-spacing:normal;text-transform:none;direction:ltr;block-progression:tb;writing-mode:lr-tb;baseline-shift:baseline;text-anchor:start;white-space:normal;clip-rule:nonzero;display:inline;overflow:visible;visibility:visible;opacity:1;isolation:auto;mix-blend-mode:normal;color-interpolation:sRGB;color-interpolation-filters:linearRGB;solid-color:#000000;solid-opacity:1;fill:#006df0;fill-opacity:1;fill-rule:nonzero;stroke:none;stroke-width:1.01343751;stroke-linecap:round;stroke-linejoin:round;stroke-miterlimit:4;stroke-dasharray:none;stroke-dashoffset:0;stroke-opacity:1;color-rendering:auto;image-rendering:auto;shape-rendering:auto;text-rendering:auto;enable-background:accumulate"
     d="m 13.289062,20.830078 a 0.50676943,0.50676943 0 0 0 -0.04687,0.0039 c 0.06177,-0.0071 -0.08065,-0.06311 -0.34375,0.07227 -0.395253,0.203398 -0.765233,0.429002 -1.123047,0.646484 -0.137446,0.08356 -0.192688,0.160107 -0.207032,0.173828 -0.198202,0.189638 -0.345667,0.366783 -0.484375,0.490235 a 0.50676943,0.50676943 0 0 0 -0.0039,0.0039 c -0.478125,0.43581 -1.001244,0.837897 -1.5371092,1.244141 a 0.50676943,0.50676943 0 0 0 0.4902342,0.876953 l 1.070313,-0.414063 a 0.50676943,0.50676943 0 0 0 0.228515,-0.175781 c 0.06211,-0.086 0.07173,-0.08965 0.0098,-0.03125 0.108709,-0.102446 0.282504,-0.212256 0.484375,-0.375 0.288389,-0.232493 0.571024,-0.474471 0.847656,-0.722656 0.181761,0.08555 0.395996,0.196236 0.574219,0.347656 7.12e-4,6.05e-4 0.0012,0.0013 0.002,0.002 0.152809,0.146107 0.300215,0.313448 0.457031,0.494141 a 0.50676943,0.50676943 0 0 0 0.101563,0.08984 c -0.04589,-0.03059 0.0084,0.05691 0.220703,0.125 0.304709,0.09768 0.523729,0.01489 0.697265,-0.04492 0.173537,-0.05981 0.319662,-0.129345 0.376954,-0.150391 l -0.02539,0.0078 c 0.263309,-0.08058 0.458379,-0.190117 0.615234,-0.25586 l 0.0039,-0.002 c 0.105744,-0.04249 0.269651,-0.08019 0.474609,-0.175781 a 0.50676943,0.50676943 0 0 0 0.01172,-0.0059 c 0.182001,-0.09025 0.333058,-0.175164 0.470703,-0.234376 l 0.01563,-0.0059 c 0.0018,-7.64e-4 0.004,-0.0032 0.0059,-0.0039 0.117764,-0.04401 0.213655,-0.08986 0.316407,-0.136719 0.04212,0.03854 0.03541,0.03374 0.09375,0.109375 0.111114,0.144032 0.222555,0.314628 0.298828,0.429688 a 0.50676943,0.50676943 0 0 0 0.01367,0.01953 c 0.119818,0.162265 0.221852,0.41846 0.402343,0.716797 a 0.50676943,0.50676943 0 0 0 0.0039,0.0039 c 0.158767,0.256359 0.364088,0.397809 0.505859,0.501953 a 0.50676943,0.50676943 0 0 0 0.02344,0.01563 c 0.263045,0.171384 0.514132,0.200736 0.679688,0.230469 a 0.50676943,0.50676943 0 0 0 0.01563,0.002 c 0.284375,0.04221 0.550579,0.04582 0.798828,0.05078 0.396126,0.04152 0.741475,-0.08116 1.017578,-0.21875 a 0.50676943,0.50676943 0 0 0 0.002,0 c 0.571175,-0.285926 1.136191,-0.606976 1.621094,-1.11914 0.12701,-0.09545 0.189426,-0.157862 0.230469,-0.210938 0.04567,0.02011 0.0712,0.02947 0.109375,0.04687 a 0.50676943,0.50676943 0 0 0 0.02539,0.0098 c 0.18457,0.0728 0.345449,0.18207 0.503907,0.326172 0.08659,0.103337 0.173768,0.221264 0.279297,0.353515 a 0.50676943,0.50676943 0 0 0 0.01758,0.01953 c 0.06994,0.07912 0.0016,-0.0059 0.05273,0.06445 a 0.50676943,0.50676943 0 0 0 0.0059,0.0059 0.50676943,0.50676943 0 0 0 0.01953,0.02539 0.50676943,0.50676943 0 0 0 0.0078,0.0098 0.50676943,0.50676943 0 0 0 0.01172,0.01367 0.50676943,0.50676943 0 0 0 0.02344,0.02148 0.50676943,0.50676943 0 0 0 0.03125,0.02539 0.50676943,0.50676943 0 0 0 0.0059,0.0059 0.50676943,0.50676943 0 0 0 0.01758,0.01172 0.50676943,0.50676943 0 0 0 0.03711,0.02344 0.50676943,0.50676943 0 0 0 0.01953,0.0098 0.50676943,0.50676943 0 0 0 0.02344,0.01172 0.50676943,0.50676943 0 0 0 0.01563,0.0078 0.50676943,0.50676943 0 0 0 0.03516,0.01172 0.50676943,0.50676943 0 0 0 0.0059,0.002 0.50676943,0.50676943 0 0 0 0.0293,0.0078 0.50676943,0.50676943 0 0 0 0.04883,0.0098 0.50676943,0.50676943 0 0 0 0.04102,0.0039 0.50676943,0.50676943 0 0 0 0.0098,0.002 0.50676943,0.50676943 0 0 0 0.01953,0 0.50676943,0.50676943 0 0 0 0.002,0 0.50676943,0.50676943 0 0 0 0.05078,-0.002 0.50676943,0.50676943 0 0 0 0.09961,-0.02148 0.50676943,0.50676943 0 0 0 0.0918,-0.03906 0.50676943,0.50676943 0 0 0 0.01758,-0.0098 0.50676943,0.50676943 0 0 0 0.02539,-0.01563 l 0.958985,-0.572265 a 0.50676943,0.50676943 0 0 0 0.123047,-0.765625 c -0.03795,-0.04379 -0.05491,-0.05967 -0.07813,-0.08398 l -0.0098,-0.01172 c -0.105954,-0.132443 -0.218495,-0.278066 -0.351562,-0.425782 a 0.50676943,0.50676943 0 0 0 -0.04102,-0.04102 c -0.04096,-0.03619 -0.102624,-0.102226 -0.201172,-0.179688 -0.23187,-0.18226 -0.46391,-0.268508 -0.640625,-0.34375 l -0.0098,-0.0039 c -0.144718,-0.06626 -0.347574,-0.187104 -0.609374,-0.267578 -0.435127,-0.13376 -0.844359,0.03569 -1.119141,0.220703 -0.274783,0.185013 -0.484589,0.401722 -0.638672,0.529297 a 0.50676943,0.50676943 0 0 0 -0.02734,0.02344 c -0.146308,0.139174 -0.285997,0.266412 -0.427734,0.375 a 0.50676943,0.50676943 0 0 0 -0.0059,0.0039 c -0.223048,0.175829 -0.38269,0.352498 -0.529297,0.482422 -0.241938,-0.0029 -0.468665,-0.0087 -0.675782,-0.03516 l -0.0059,0 c -0.116342,-0.02025 -0.210283,-0.04544 -0.28125,-0.07227 -0.08571,-0.05986 -0.157004,-0.113509 -0.177734,-0.142578 l -0.002,-0.002 c -2.4e-4,-3.45e-4 -0.0017,-0.0016 -0.002,-0.002 -0.133681,-0.20188 -0.263997,-0.4719 -0.474609,-0.751953 l -0.0059,-0.0078 c -0.06968,-0.09601 -0.100721,-0.138146 -0.115235,-0.158204 -0.0028,-0.004 -0.0035,-0.0065 -0.0059,-0.0098 -7.94e-4,-0.0011 -0.0032,-9.91e-4 -0.0039,-0.002 -5.74e-4,-8.02e-4 4.84e-4,-0.0032 0,-0.0039 -0.0018,-0.0024 -0.0029,-0.0026 -0.0039,-0.0039 6.1e-4,7.41e-4 0.0015,0.0033 0.002,0.0039 -5.63e-4,-7.38e-4 -0.0071,-0.0069 -0.0078,-0.0078 0.0016,0.0019 0.0049,0.0027 0.0059,0.0039 0,0 0,-0.002 0,-0.002 0,0 -0.002,-0.002 -0.002,-0.002 -3.67e-4,-5.06e-4 -0.0039,-0.0058 -0.0039,-0.0059 0,0 -0.0039,-0.0059 -0.0039,-0.0059 0,0 -0.0019,0.0019 -0.002,0.002 -8.9e-5,-1.17e-4 -0.0019,1.19e-4 -0.002,0 -0.0031,0.0022 -0.185759,0.133374 -0.367187,0.263672 0.01114,-0.111345 0.04297,-0.427734 0.04297,-0.427734 -4e-5,-3e-5 0.310619,0.150465 0.310547,0.150391 -5.7e-5,-5.8e-5 0.0084,0.008 0.01367,0.01367 -0.01684,-0.02229 -0.0473,-0.06551 -0.128906,-0.175781 -0.09802,-0.132441 -0.248738,-0.409794 -0.533203,-0.636719 -0.154494,-0.123257 -0.248789,-0.132555 -0.220703,-0.11914 a 0.50676943,0.50676943 0 0 0 -0.404297,-0.01367 c -0.231225,0.09153 -0.399548,0.188148 -0.529297,0.236328 l 0.01367,-0.0039 c -0.226756,0.07761 -0.42501,0.181139 -0.605469,0.283203 l 0.03125,-0.01758 c -0.07841,0.03723 -0.125066,0.065 -0.144531,0.07422 0.03404,-0.01612 -0.102302,-0.0084 -0.328125,0.117188 l -0.01172,0.0039 c -0.220412,0.08559 -0.405321,0.187362 -0.496093,0.216797 a 0.50676943,0.50676943 0 0 0 -0.0078,0.002 c -0.159775,0.05403 -0.285932,0.104277 -0.416016,0.154297 -0.122907,-0.126416 -0.244116,-0.256739 -0.371093,-0.373047 a 0.50676943,0.50676943 0 0 0 -0.02149,-0.01953 c -0.199084,-0.162156 -0.399549,-0.290413 -0.603515,-0.408203 -0.131776,-0.0761 -0.318289,-0.191512 -0.535157,-0.275391 -0.125619,-0.04858 -0.21408,-0.06421 -0.255859,-0.07617 a 0.50676943,0.50676943 0 0 0 -0.150391,-0.01953 z m 4.423829,1.03125 c 1.02e-4,8.2e-5 0.0018,0.0019 0.002,0.002 l -0.02539,0 c 0.109526,0.05232 0.107364,0.065 0.02344,-0.002 z m -4.277344,0.06641 c 0.08777,0.04389 0.183407,0.09246 0.287109,0.152344 0.05713,0.03299 0.09849,0.06905 0.150391,0.101563 -0.110916,-0.09385 -0.302098,-0.156523 -0.441406,-0.251953 0.0013,-0.0013 0.0026,-6.16e-4 0.0039,-0.002 z m 4.386719,0.07031 c 0.07337,0.09082 0.149712,0.183647 0.242187,0.308594 0.07256,0.09803 0.09786,0.1306 0.123047,0.164062 0.0021,0.0027 0.0079,0.01121 0.0098,0.01367 3.52e-4,4.92e-4 0.0015,0.0013 0.002,0.002 6.85e-4,9.58e-4 0.0011,0.0027 0.002,0.0039 7.37e-4,0.001 9.89e-4,6.21e-4 0.002,0.002 2.43e-4,3.35e-4 0.0017,0.0035 0.002,0.0039 0.0027,0.0035 0.01335,0.01851 0.01563,0.02148 0.0056,0.0073 0.0082,0.01163 0.01953,0.02539 3.75e-4,4.56e-4 0.0016,0.0015 0.002,0.002 0.02022,0.02792 0.03586,0.04842 0.0957,0.130859 a 0.50676943,0.50676943 0 0 0 0.0059,0.0098 c 0.136737,0.180457 0.261137,0.431083 0.447266,0.710937 a 0.50676943,0.50676943 0 0 0 0.0039,0.0059 c 0.09615,0.141006 0.198377,0.19556 0.302734,0.27539 -0.08571,-0.01981 -0.18077,-0.04135 -0.203125,-0.05469 -0.123052,-0.09195 -0.202408,-0.16097 -0.228515,-0.203125 -0.114811,-0.190786 -0.224838,-0.472065 -0.4375,-0.767578 l -0.0078,-0.01172 c -0.06884,-0.104142 -0.188332,-0.290292 -0.332031,-0.476563 -0.03603,-0.04671 -0.110286,-0.08204 -0.146484,-0.128906 0.02876,-0.0133 0.05366,-0.02439 0.08008,-0.03711 z m -3.894532,0.220703 c 0.08676,0.05645 0.180856,0.109899 0.259766,0.173828 0.09369,0.0862 0.176189,0.17542 0.263672,0.263672 -0.01567,0.0061 -0.04011,0.01646 -0.05469,0.02148 -0.04123,0.01421 -0.008,0.01392 -0.02539,0.01563 -0.137869,-0.157399 -0.276513,-0.317241 -0.44336,-0.474609 z m 4.480469,0.09375 c -0.08494,0.06101 -0.214963,0.154933 -0.216797,0.15625 -0.01031,-0.02033 -0.02933,-0.05868 -0.0293,-0.05859 0,0 0.123337,-0.0488 0.246094,-0.09766 z m 5.294922,0.324219 c 0.009,0.0041 0.01244,0.0057 0.02148,0.0098 a 0.50676943,0.50676943 0 0 0 0.0098,0.0039 c 0.191327,0.08184 0.338265,0.147169 0.421875,0.21289 0.02287,0.01798 0.07367,0.06534 0.130859,0.117188 0.0076,0.0085 0.01581,0.02054 0.02344,0.0293 l -0.09375,0.05664 c -0.0478,-0.06074 -0.08717,-0.113659 -0.142578,-0.177734 a 0.50676943,0.50676943 0 0 0 -0.04102,-0.04102 c -0.0941,-0.08652 -0.223418,-0.136261 -0.330078,-0.210937 z"
     id="path6605"
     inkscape:connector-curvature="0" /></svg>