<?xml version="1.0" encoding="iso-8859-1"?>
<!-- Generator: Adobe Illustrator 18.0.0, SVG Export Plug-In . SVG Version: 6.00 Build 0)  -->
<!DOCTYPE svg PUBLIC "-//W3C//DTD SVG 1.1//EN" "http://www.w3.org/Graphics/SVG/1.1/DTD/svg11.dtd">
<svg version="1.1" id="Capa_1" xmlns="http://www.w3.org/2000/svg" xmlns:xlink="http://www.w3.org/1999/xlink" x="0px" y="0px"
	 viewBox="0 0 59.348 59.348" style="enable-background:new 0 0 59.348 59.348;" xml:space="preserve">
<g>
	<path style="fill:#231F20;" d="M52.998,22.611c0.031-0.525,0.05-1.045,0.05-1.555c0-7.033-4.722-12.542-10.75-12.542
		c-1.167,0-2.319,0.191-3.412,0.558c-1.89-3.157-5.33-5.205-9.213-5.205s-7.323,2.048-9.213,5.205
		c-1.093-0.367-2.245-0.558-3.412-0.558c-6.028,0-10.75,5.509-10.75,12.542c0,0.511,0.02,1.031,0.05,1.555
		C2.489,24.238,0,27.259,0,30.873c0,11.039,16.362,24.608,29.674,24.608s29.674-13.569,29.674-24.608
		C59.348,27.258,56.859,24.238,52.998,22.611z M17.049,14.513c1.131,0,2.188,0.387,3.057,1.118c0.823,0.695,1.96,0.893,2.969,0.521
		c1.012-0.373,1.746-1.259,1.923-2.322c0.383-2.297,2.35-3.963,4.677-3.963s4.294,1.667,4.677,3.963
		c0.177,1.063,0.911,1.95,1.923,2.322c1.011,0.372,2.146,0.174,2.969-0.521c0.868-0.731,1.926-1.118,3.057-1.118
		c2.663,0,4.75,2.874,4.75,6.542c0,12.545-10.772,28.426-17.375,28.426s-17.375-15.88-17.375-28.426
		C12.299,17.387,14.386,14.513,17.049,14.513z M6,30.873c0-0.67,0.499-1.366,1.341-1.967c1.067,4.326,2.897,8.758,5.215,12.736
		C8.673,38.117,6,34.048,6,30.873z M46.791,41.643c2.318-3.978,4.148-8.409,5.215-12.736c0.843,0.6,1.341,1.297,1.341,1.967
		C53.348,34.048,50.675,38.117,46.791,41.643z"/>
	<path style="fill:#231F20;" d="M29.685,38.299c0.828,0,1.5-0.671,1.5-1.5V17.465c0-0.829-0.672-1.5-1.5-1.5s-1.5,0.671-1.5,1.5
		v19.333C28.185,37.627,28.856,38.299,29.685,38.299z"/>
	<path style="fill:#231F20;" d="M34.924,38.209c0.168,0.061,0.34,0.09,0.51,0.09c0.613,0,1.189-0.38,1.41-0.99l6.334-17.516
		c0.282-0.779-0.121-1.639-0.9-1.921c-0.774-0.282-1.638,0.121-1.92,0.9l-6.334,17.516C33.741,37.068,34.145,37.927,34.924,38.209z"
		/>
	<path style="fill:#231F20;" d="M23.935,38.299c0.169,0,0.342-0.029,0.51-0.09c0.779-0.282,1.183-1.142,0.9-1.921l-6.334-17.516
		c-0.281-0.779-1.142-1.185-1.92-0.9c-0.779,0.282-1.183,1.142-0.9,1.921l6.334,17.516C22.745,37.919,23.32,38.299,23.935,38.299z"
		/>
</g>
<g>
</g>
<g>
</g>
<g>
</g>
<g>
</g>
<g>
</g>
<g>
</g>
<g>
</g>
<g>
</g>
<g>
</g>
<g>
</g>
<g>
</g>
<g>
</g>
<g>
</g>
<g>
</g>
<g>
</g>
</svg>
