<?xml version="1.0" encoding="iso-8859-1"?>
<!-- Generator: Adobe Illustrator 18.0.0, SVG Export Plug-In . SVG Version: 6.00 Build 0)  -->
<!DOCTYPE svg PUBLIC "-//W3C//DTD SVG 1.1//EN" "http://www.w3.org/Graphics/SVG/1.1/DTD/svg11.dtd">
<svg version="1.1" id="Capa_1" xmlns="http://www.w3.org/2000/svg" xmlns:xlink="http://www.w3.org/1999/xlink" x="0px" y="0px"
	 viewBox="0 0 458.581 458.581" style="enable-background:new 0 0 458.581 458.581;" xml:space="preserve">
<g>
	<path d="M447.477,54.766h-43.486c-6.136,0-11.105,4.969-11.105,11.105V392.71c0,6.136,4.969,11.105,11.105,11.105h43.486
		c6.135,0,11.104-4.969,11.104-11.105V65.871C458.581,59.735,453.612,54.766,447.477,54.766z"/>
	<path d="M362.302,65.467l-42.156-10.693c-2.854-0.723-5.878-0.28-8.406,1.22c-2.535,1.51-4.362,3.959-5.085,6.821l-80.338,316.807
		c-1.508,5.942,2.093,11.984,8.033,13.492l42.156,10.693c2.854,0.723,5.88,0.28,8.406-1.222c2.535-1.508,4.364-3.958,5.087-6.819
		l80.337-316.808C371.843,73.017,368.244,66.975,362.302,65.467z"/>
	<path d="M269.174,139.326l-32.366-29.046c-2.193-1.967-5.077-2.986-8.017-2.822c-2.938,0.156-5.7,1.478-7.667,3.671L2.841,354.389
		c-4.098,4.564-3.717,11.586,0.847,15.684l32.358,29.046c2.193,1.967,5.077,2.986,8.017,2.822c2.94-0.155,5.7-1.478,7.667-3.671
		l218.29-243.259C274.119,150.446,273.738,143.424,269.174,139.326z"/>
</g>
<g>
</g>
<g>
</g>
<g>
</g>
<g>
</g>
<g>
</g>
<g>
</g>
<g>
</g>
<g>
</g>
<g>
</g>
<g>
</g>
<g>
</g>
<g>
</g>
<g>
</g>
<g>
</g>
<g>
</g>
</svg>
