<?xml version="1.0" encoding="iso-8859-1"?>
<!-- Generator: Adobe Illustrator 18.0.0, SVG Export Plug-In . SVG Version: 6.00 Build 0)  -->
<!DOCTYPE svg PUBLIC "-//W3C//DTD SVG 1.1//EN" "http://www.w3.org/Graphics/SVG/1.1/DTD/svg11.dtd">
<svg version="1.1" id="Capa_1" xmlns="http://www.w3.org/2000/svg" xmlns:xlink="http://www.w3.org/1999/xlink" x="0px" y="0px"
	 viewBox="0 0 53.521 53.521" style="enable-background:new 0 0 53.521 53.521;" xml:space="preserve">
<g>
	<path style="fill:#231F20;" d="M24.148,0.729c-1.104,0-2,0.896-2,2v12.104c0,1.654-1.346,3-3,3h-1.37V2.729c0-1.104-0.896-2-2-2
		s-2,0.896-2,2v15.104h-1.369c-1.654,0-3-1.346-3-3V2.729c0-1.104-0.896-2-2-2s-2,0.896-2,2v12.104c0,3.859,3.14,7,7,7h1.369v10.798
		c-1.191,0.693-2,1.968-2,3.445v13.445c0,2.209,1.791,4,4,4s4-1.791,4-4V36.076c0-1.477-0.809-2.752-2-3.445V21.833h1.37
		c3.86,0,7-3.141,7-7V2.729C26.148,1.624,25.253,0.729,24.148,0.729z"/>
	<path style="fill:#231F20;" d="M48.112,12.333c0-6.801-4.486-12.333-10-12.333s-10,5.532-10,12.333c0,5.956,3.441,10.939,8,12.085
		v8.213c-1.191,0.693-2,1.968-2,3.445v13.445c0,2.209,1.791,4,4,4s4-1.791,4-4V36.076c0-1.477-0.809-2.752-2-3.445v-8.213
		C44.671,23.272,48.112,18.289,48.112,12.333z"/>
</g>
<g>
</g>
<g>
</g>
<g>
</g>
<g>
</g>
<g>
</g>
<g>
</g>
<g>
</g>
<g>
</g>
<g>
</g>
<g>
</g>
<g>
</g>
<g>
</g>
<g>
</g>
<g>
</g>
<g>
</g>
</svg>
