<?xml version="1.0" encoding="iso-8859-1"?>
<!-- Generator: Adobe Illustrator 18.0.0, SVG Export Plug-In . SVG Version: 6.00 Build 0)  -->
<!DOCTYPE svg PUBLIC "-//W3C//DTD SVG 1.1//EN" "http://www.w3.org/Graphics/SVG/1.1/DTD/svg11.dtd">
<svg version="1.1" id="Capa_1" xmlns="http://www.w3.org/2000/svg" xmlns:xlink="http://www.w3.org/1999/xlink" x="0px" y="0px"
	 viewBox="0 0 73.58 73.58" style="enable-background:new 0 0 73.58 73.58;" xml:space="preserve">
<path style="fill:#231F20;" d="M36.791,0C26.596,0,18.303,8.293,18.303,18.488v27.831c0,1.657,1.343,3,3,3h9.593v18.367
	c0,3.25,2.645,5.895,5.895,5.895c3.251,0,5.895-2.645,5.895-5.895V49.319h9.591c1.657,0,3-1.343,3-3V18.487
	C55.277,8.293,46.984,0,36.791,0z M24.303,43.319V18.488c0-5.604,3.711-10.357,8.805-11.932v13.891c0,2.948,2.398,5.347,5.347,5.347
	c1.317,0,2.508-0.497,3.441-1.289v3.535c0,2.948,2.398,5.347,5.347,5.347c0.72,0,1.406-0.147,2.034-0.407v10.34H24.303z"/>
<g>
</g>
<g>
</g>
<g>
</g>
<g>
</g>
<g>
</g>
<g>
</g>
<g>
</g>
<g>
</g>
<g>
</g>
<g>
</g>
<g>
</g>
<g>
</g>
<g>
</g>
<g>
</g>
<g>
</g>
</svg>
