<?xml version="1.0" encoding="iso-8859-1"?>
<!-- Generator: Adobe Illustrator 18.0.0, SVG Export Plug-In . SVG Version: 6.00 Build 0)  -->
<!DOCTYPE svg PUBLIC "-//W3C//DTD SVG 1.1//EN" "http://www.w3.org/Graphics/SVG/1.1/DTD/svg11.dtd">
<svg version="1.1" id="Capa_1" xmlns="http://www.w3.org/2000/svg" xmlns:xlink="http://www.w3.org/1999/xlink" x="0px" y="0px"
	 viewBox="0 0 61.545 61.545" style="enable-background:new 0 0 61.545 61.545;" xml:space="preserve">
<path style="fill:#231F20;" d="M51.896,18.854C51.896,7.753,43.21,0,30.773,0C18.335,0,9.649,7.753,9.649,18.854
	c0,8.738,5.72,23.471,14.494,28.748v5.486v6.204v0.253c0,1.104,0.896,2,2,2h9.26c1.104,0,2-0.896,2-2v-0.253v-6.204v-5.485
	C46.176,42.326,51.896,27.593,51.896,18.854z M37.737,18.15c0,11.736-4.603,25.504-6.964,25.504s-6.965-13.768-6.965-25.504
	C23.808,8.86,27.312,4,30.773,4S37.737,8.86,37.737,18.15z M13.649,18.854c0-6.807,3.793-11.106,8.828-13.238
	c-1.626,2.941-2.669,7.081-2.669,12.534c0,5.95,1.811,18.997,5.76,25.562C18.94,39.107,13.649,26.876,13.649,18.854z M33.403,57.292
	h-5.26v-2.204h5.26V57.292z M33.403,51.088h-5.26v-1.843c0.857,0.197,1.733,0.313,2.63,0.313c0.897,0,1.773-0.115,2.63-0.313V51.088
	z M35.977,43.712c3.949-6.565,5.76-19.612,5.76-25.562c0-5.453-1.043-9.593-2.669-12.534c5.036,2.132,8.828,6.431,8.828,13.238
	C47.896,26.876,42.605,39.107,35.977,43.712z"/>
<g>
</g>
<g>
</g>
<g>
</g>
<g>
</g>
<g>
</g>
<g>
</g>
<g>
</g>
<g>
</g>
<g>
</g>
<g>
</g>
<g>
</g>
<g>
</g>
<g>
</g>
<g>
</g>
<g>
</g>
</svg>
