<?xml version="1.0" encoding="iso-8859-1"?>
<!-- Generator: Adobe Illustrator 18.0.0, SVG Export Plug-In . SVG Version: 6.00 Build 0)  -->
<!DOCTYPE svg PUBLIC "-//W3C//DTD SVG 1.1//EN" "http://www.w3.org/Graphics/SVG/1.1/DTD/svg11.dtd">
<svg version="1.1" id="Capa_1" xmlns="http://www.w3.org/2000/svg" xmlns:xlink="http://www.w3.org/1999/xlink" x="0px" y="0px"
	 viewBox="0 0 481.427 481.427" style="enable-background:new 0 0 481.427 481.427;" xml:space="preserve">
<path id="XMLID_160_" d="M428.21,209.384l-0.289-1.376h35.735c9.566,0,17.325-7.759,17.325-17.323v-36.354
	c0-9.564-7.759-17.324-17.325-17.324h-50.979l-7.234-33.693c-9.347-43.559-48.469-75.172-93.02-75.172H168.996
	c-44.549,0-83.672,31.613-93.019,75.172l-7.235,33.693h-50.98c-9.564,0-17.323,7.76-17.323,17.324v36.354
	c0,9.565,7.759,17.323,17.323,17.323h35.736l-0.29,1.376C23.058,214.328,0,240.302,0,271.847v39.036
	c0,32.669,24.771,59.27,56.502,62.797v39.56c0,22.119,17.926,40.046,40.045,40.046c22.118,0,40.045-17.927,40.045-40.046v-38.856
	h208.235v38.856c0,22.119,17.926,40.046,40.045,40.046c22.118,0,40.045-17.927,40.045-40.046v-39.56
	c31.738-3.527,56.509-30.12,56.509-62.797v-39.036C481.427,240.302,458.362,214.32,428.21,209.384z M107.294,110.039
	c6.202-28.892,32.153-49.861,61.702-49.861h16.778v17.395c0,9.565,7.759,17.325,17.323,17.325h75.226
	c9.566,0,17.325-7.76,17.325-17.325V60.177h16.776c29.55,0,55.501,20.97,61.703,49.861l21.102,98.307H86.192L107.294,110.039z
	 M150.498,303.374c0,10.465-8.479,18.943-18.943,18.943H71.253c-10.464,0-18.943-8.479-18.943-18.943v-24.026
	c0-10.465,8.479-18.943,18.943-18.943h60.302c10.464,0,18.943,8.479,18.943,18.943V303.374z M288.765,307.378h-96.108
	c-8.847,0-16.019-7.172-16.019-16.019c0-8.845,7.172-16.018,16.019-16.018h96.108c8.845,0,16.018,7.173,16.018,16.018
	C304.783,300.207,297.61,307.378,288.765,307.378z M429.11,303.374c0,10.465-8.479,18.943-18.943,18.943h-60.303
	c-10.464,0-18.943-8.479-18.943-18.943v-24.026c0-10.465,8.479-18.943,18.943-18.943h60.303c10.465,0,18.943,8.479,18.943,18.943
	V303.374z"/>
<g>
</g>
<g>
</g>
<g>
</g>
<g>
</g>
<g>
</g>
<g>
</g>
<g>
</g>
<g>
</g>
<g>
</g>
<g>
</g>
<g>
</g>
<g>
</g>
<g>
</g>
<g>
</g>
<g>
</g>
</svg>
