<?xml version="1.0" encoding="iso-8859-1"?>
<!-- Generator: Adobe Illustrator 18.0.0, SVG Export Plug-In . SVG Version: 6.00 Build 0)  -->
<!DOCTYPE svg PUBLIC "-//W3C//DTD SVG 1.1//EN" "http://www.w3.org/Graphics/SVG/1.1/DTD/svg11.dtd">
<svg version="1.1" id="Capa_1" xmlns="http://www.w3.org/2000/svg" xmlns:xlink="http://www.w3.org/1999/xlink" x="0px" y="0px"
	 viewBox="0 0 489.693 489.693" style="enable-background:new 0 0 489.693 489.693;" xml:space="preserve">
<path id="XMLID_194_" d="M484.969,205.169l-92.324-65.051V84.342c0-5.098-3.456-9.538-8.392-10.79L275.372,45.897
	c-3.334-0.844-6.863-0.105-9.579,2.002c-2.708,2.113-4.294,5.351-4.294,8.79v73.704c0,6.147,4.984,11.131,11.133,11.131h63.897
	l107.686,75.282l-199.369,26.802L45.478,216.805l107.685-75.282h63.897c6.148,0,11.133-4.984,11.133-11.131V56.688
	c0-3.439-1.585-6.676-4.293-8.79c-2.716-2.107-6.245-2.846-9.579-2.002L105.439,73.553c-4.936,1.252-8.391,5.692-8.391,10.79v55.775
	L4.724,205.169c-4.287,3.018-5.88,8.603-3.847,13.426l49.887,118.117c6.561,15.532,18.735,28.022,34.096,34.982l159.987,72.444
	l159.987-72.444c15.361-6.96,27.535-19.45,34.096-34.982l49.886-118.117C490.85,213.772,489.256,208.187,484.969,205.169z"/>
<g>
</g>
<g>
</g>
<g>
</g>
<g>
</g>
<g>
</g>
<g>
</g>
<g>
</g>
<g>
</g>
<g>
</g>
<g>
</g>
<g>
</g>
<g>
</g>
<g>
</g>
<g>
</g>
<g>
</g>
</svg>
