<?xml version="1.0" encoding="iso-8859-1"?>
<!-- Generator: Adobe Illustrator 18.1.1, SVG Export Plug-In . SVG Version: 6.00 Build 0)  -->
<svg version="1.1" id="Capa_1" xmlns="http://www.w3.org/2000/svg" xmlns:xlink="http://www.w3.org/1999/xlink" x="0px" y="0px"
	 viewBox="0 0 61.101 61.101" style="enable-background:new 0 0 61.101 61.101;" xml:space="preserve">
<g>
	<path style="fill:#010002;" d="M53.6,54.967c-4.112-5.446-7.983-11.062-11.806-16.712c-0.184,0.037-0.372,0.066-0.574,0.078
		c-4.459,0.242-8.936,0.435-13.39,0.813c-1.072,2.853-2.181,5.693-2.604,8.728c-0.614,4.394-7.262,2.518-6.654-1.834
		c0.537-3.853,2.18-7.394,3.45-11.039c0.55-1.584,1.693-2.363,3.327-2.532c2.574-0.269,5.159-0.452,7.748-0.604
		c-1.257-1.678-2.484-3.375-3.659-5.107c-0.641,1.376-1.291,2.747-1.936,4.113c-0.702,1.491-3.29,1.908-4.336,0.561
		c-2.912-3.757-5.826-7.515-8.74-11.271c-2.153-2.776,1.725-6.714,3.904-3.904c2.069,2.671,4.141,5.341,6.212,8.011
		c0.498-1.059,0.982-2.126,1.438-3.202c-2.007-5.391,6.175-9.796,9.354-4.336c2.832,4.868,6.231,9.342,9.659,13.8
		c0.223,0.289,0.392,0.601,0.516,0.925c4.557,6.766,9.132,13.518,14.049,20.03C62.239,55.039,56.243,58.471,53.6,54.967z
		 M22.964,15.67c3.315,0,6.003-2.688,6.003-6.003s-2.688-6.003-6.003-6.003s-6.003,2.688-6.003,6.003S19.649,15.67,22.964,15.67z
		 M16.292,13.083l-7.29,3.927l0.669,1.242l7.29-3.926L16.292,13.083z M6.473,15.439c-0.31-0.451-0.077-1.21,0.193-2.09
		c0.296-0.965,0.632-2.059,0.296-3.052c-0.513-1.521-1.74-2.402-2.924-3.255C2.416,5.876,0.884,4.775,1.482,2.109l0.014-0.068
		L1.029,1.937L1.014,2.004C0.347,4.978,2.08,6.225,3.757,7.431c1.125,0.809,2.289,1.644,2.75,3.019
		c0.289,0.848-0.025,1.864-0.299,2.76c-0.294,0.956-0.572,1.857-0.132,2.5c0.305,0.442,0.909,0.688,1.847,0.755l0.067,0.004
		l0.034-0.479l-0.067-0.005C7.173,15.931,6.688,15.752,6.473,15.439z M9.37,7.066C8.832,6.114,8.197,6.1,7.819,6.091
		C7.666,6.089,7.564,6.083,7.533,6.048C7.478,5.979,7.409,5.71,7.58,4.669C7.653,4.236,7.923,3.75,8.184,3.28
		c0.408-0.737,0.833-1.5,0.582-2.191C8.61,0.651,8.208,0.309,7.542,0.05L7.416,0L7.243,0.44l0.125,0.05
		C7.9,0.699,8.212,0.947,8.321,1.249C8.496,1.738,8.145,2.374,7.77,3.051C7.49,3.555,7.2,4.077,7.113,4.593
		C6.944,5.62,6.959,6.097,7.169,6.35C7.34,6.555,7.588,6.56,7.806,6.566c0.351,0.007,0.746,0.016,1.148,0.73
		C9.392,8.087,8.878,9.99,8.38,11.834c-0.344,1.272-0.668,2.473-0.706,3.379l-0.007,0.136l0.474,0.021l0.004-0.136
		c0.038-0.853,0.355-2.03,0.692-3.282C9.361,10.021,9.898,8.025,9.37,7.066z M13.796,55.236h2.597v5.865h12.644v-5.865h2.595V51.34
		H13.796V55.236z"/>
</g>
<g>
</g>
<g>
</g>
<g>
</g>
<g>
</g>
<g>
</g>
<g>
</g>
<g>
</g>
<g>
</g>
<g>
</g>
<g>
</g>
<g>
</g>
<g>
</g>
<g>
</g>
<g>
</g>
<g>
</g>
</svg>
