<?xml version="1.0" encoding="iso-8859-1"?>
<!-- Generator: Adobe Illustrator 18.0.0, SVG Export Plug-In . SVG Version: 6.00 Build 0)  -->
<!DOCTYPE svg PUBLIC "-//W3C//DTD SVG 1.1//EN" "http://www.w3.org/Graphics/SVG/1.1/DTD/svg11.dtd">
<svg version="1.1" id="Capa_1" xmlns="http://www.w3.org/2000/svg" xmlns:xlink="http://www.w3.org/1999/xlink" x="0px" y="0px"
	 viewBox="0 0 478.666 478.666" style="enable-background:new 0 0 478.666 478.666;" xml:space="preserve">
<g>
	<path d="M477.299,192.734c-2.606-9.219-8.648-16.876-17.015-21.557l-42.367-23.712c-0.312,3.215-0.882,6.423-1.803,9.585
		l-6.533,22.386l35.092,19.638c1.172,0.655,1.654,1.646,1.857,2.356c0.203,0.711,0.305,1.803-0.35,2.975l-92.047,164.487
		c-1.047,1.865-2.897,2.006-3.435,2.006c-0.663,0-1.295-0.163-1.896-0.499l-6.798-3.801c-8.298,5.494-18.094,8.773-28.474,8.773
		c-4.909,0-9.802-0.703-14.532-2.084l-21.925-6.392l56.119,31.401c5.347,2.997,11.396,4.573,17.507,4.573
		c12.98,0,24.993-7.032,31.331-18.365l92.047-164.488C478.76,211.654,479.906,201.959,477.299,192.734z"/>
	<path d="M423.763,210.967c3.817-6.813,1.383-15.406-5.424-19.216c-3.918-2.193-8.344-2.116-12.192-0.531L389.171,249.4l1.99,1.116
		c0.967,0.547,2.139,0.571,3.138,0.086c0.999-0.491,1.685-1.443,1.849-2.545l1.421-9.788c0.077-0.515,0.452-0.929,0.959-1.053
		c0.5-0.125,1.031,0.062,1.335,0.484c1.061,1.467,2.404,2.74,4.091,3.685c6.806,3.808,15.406,1.381,19.216-5.425
		c3.809-6.798,1.381-15.416-5.424-19.217c-0.125-0.069-0.265-0.062-0.384-0.133C419.931,215.409,422.273,213.637,423.763,210.967z"
		/>
	<path d="M313.53,359.384c15.838,0,30.004-10.63,34.437-25.835l52.804-180.964c2.668-9.203,1.607-18.898-2.991-27.288
		c-4.612-8.421-12.222-14.532-21.417-17.202l-70.934-20.7c4.27,7.54,6.915,16.126,6.915,25.39v9.944l55.074,16.063
		c0.999,0.289,1.827,0.953,2.326,1.866c0.508,0.921,0.617,1.982,0.328,2.981l-52.794,180.956c-0.561,1.936-2.304,3.196-4.204,2.705
		c-2.339-0.604-6.887-2.018-6.887-2.018c-6.159,11.677-16.54,20.637-29.2,24.93l26.49,7.727
		C306.747,358.892,310.134,359.384,313.53,359.384z"/>
	<path d="M312.344,191.486v3.683c0.43,0.695,0.898,1.413,1.702,1.648l9.561,2.786c1.069,0.312,2.217,0.078,3.076-0.625
		c0.866-0.702,1.327-1.779,1.233-2.887l-0.842-10.304c-0.046-0.569,0.273-1.108,0.788-1.349c0.523-0.243,1.14-0.133,1.546,0.265
		c1.608,1.6,3.606,2.833,5.948,3.512c7.665,2.24,16.508-4.949,18.747-12.614c4.863-16.679-17.405-38.658-17.405-38.658
		s-13.8,3.074-24.353,10.123v34.163c1.64,0.217,3.271,0.241,4.824-0.094c0.561-0.125,1.14,0.117,1.451,0.601
		c0.304,0.484,0.281,1.108-0.062,1.562L312.344,191.486z"/>
	<path d="M296.358,301.281V112.785c0-19.786-16.094-35.88-35.88-35.88h-65.955c5.518,6.104,9.663,13.534,11.81,21.925l2.559,10.045
		h51.586c2.155,0,3.91,1.757,3.91,3.91v188.497c0,2.163-1.755,3.918-3.91,3.918h-7.313c-1.172,5.401-2.997,10.686-5.902,15.581
		c-3.98,6.704-9.406,12.16-15.68,16.389h28.895C280.265,337.17,296.358,321.068,296.358,301.281z"/>
	<polygon points="257.754,147.917 230.42,117.43 215.364,134.226 225.222,172.886 230.42,178.747 	"/>
	<path d="M237.429,285.437l-46.59-182.65c-4.8-18.811-24.788-30.768-43.631-25.898L27,107.54
		c-9.147,2.334-17.163,8.336-21.987,16.453c-4.823,8.125-6.252,18.03-3.91,27.186l46.59,182.651
		c4.059,15.907,18.349,27.021,34.749,27.021c2.989,0,5.978-0.382,8.883-1.124l120.208-30.651
		c9.147-2.334,17.163-8.336,21.988-16.453C238.342,304.498,239.771,294.593,237.429,285.437z M206.028,296.294
		c-0.523,0.89-1.397,1.546-2.396,1.803L83.424,328.757c-1.779,0.428-4.121-0.344-4.76-2.826L32.081,143.28
		c-0.257-0.999-0.101-2.075,0.422-2.957c0.523-0.89,1.397-1.546,2.396-1.803c0,0,88.432-22.549,119.226-30.285
		c2.43-0.61,5.22,0.429,5.743,2.451l46.582,182.651C206.708,294.336,206.551,295.412,206.028,296.294z"/>
	<path d="M129.092,177.318c-8.445,2.155-14.399,9.008-15.937,17.04c-5.182-6.322-13.691-9.484-22.144-7.329
		c-11.629,2.965-17.577,19.037-14.61,30.674c6.455,25.304,52.084,36.747,52.084,36.747s34.576-31.9,28.121-57.204
		C153.64,185.616,140.731,174.353,129.092,177.318z"/>
</g>
<g>
</g>
<g>
</g>
<g>
</g>
<g>
</g>
<g>
</g>
<g>
</g>
<g>
</g>
<g>
</g>
<g>
</g>
<g>
</g>
<g>
</g>
<g>
</g>
<g>
</g>
<g>
</g>
<g>
</g>
</svg>
