<?xml version="1.0" encoding="iso-8859-1"?>
<!-- Generator: Adobe Illustrator 18.1.1, SVG Export Plug-In . SVG Version: 6.00 Build 0)  -->
<svg version="1.1" id="Capa_1" xmlns="http://www.w3.org/2000/svg" xmlns:xlink="http://www.w3.org/1999/xlink" x="0px" y="0px"
	 viewBox="0 0 422.063 422.063" style="enable-background:new 0 0 422.063 422.063;" xml:space="preserve">
<g>
	<g id="Layer_1_78_">
		<g>
			<path d="M371.613,274.241c-15.33-4.17-38.426-10.704-61.898-19.294l-1.785-0.652c0,0-7.143-2.412-18.012-7.144
				c-11.668,9.338-26.645,23.182-31.799,35.034c-1.637,3.767-5.314,6.015-9.176,6.016c-1.332,0-2.684-0.268-3.982-0.832
				c-5.064-2.202-7.385-8.094-5.184-13.158c5.822-13.389,18.795-26.679,30.193-36.546c-6.189-3.201-12.76-6.855-19.416-10.959
				c-10.104,8.771-20.756,19.699-24.938,29.317c-1.639,3.767-5.316,6.015-9.176,6.016c-1.332,0-2.684-0.268-3.982-0.832
				c-5.066-2.202-7.387-8.094-5.184-13.158c5.133-11.81,15.832-23.541,26.107-32.917c-5.904-4.368-11.66-9.094-17.063-14.168
				c-10.67,9.033-22.506,20.793-26.969,31.06c-1.637,3.767-5.314,6.015-9.176,6.016c-1.332,0-2.684-0.268-3.982-0.832
				c-5.064-2.202-7.385-8.094-5.184-13.158c6.068-13.957,19.91-27.81,31.637-37.786c-4.75-5.934-8.893-12.24-12.189-18.914
				c-12.176,7.264-26.238,17.223-32.426,26.869c-2.217,3.458-6.207,5.09-10.018,4.477c-1.314-0.213-2.607-0.693-3.799-1.457
				c-4.648-2.982-6-9.168-3.02-13.816c9.35-14.576,28.604-27.408,42.512-35.346c-0.961-4.592-1.504-9.326-1.566-14.201
				c-0.043-3.301-0.061-6.537-0.059-9.719c-12.631,3.902-26.479,9.496-34.084,16.474c-1.92,1.762-4.342,2.632-6.758,2.632
				c-2.703,0-5.398-1.09-7.371-3.239c-3.734-4.069-3.461-10.395,0.607-14.129c12.164-11.162,32.633-18.493,47.924-22.727
				c0.15-4.963,0.35-9.743,0.588-14.344c-13.787-0.464-29.977,0.302-39.984,4.775c-1.324,0.593-2.711,0.873-4.076,0.874
				c-3.822,0-7.473-2.205-9.135-5.921c-2.254-5.042,0.006-10.956,5.047-13.211c14.094-6.302,34.02-7.13,49.504-6.539
				c3.188-37.856,8.613-58.764,8.613-58.764C192.757,0.074,164.138,0,113.138,0s-66.13,3.611-72.074,10.267
				c-1.719,1.922-1.988,3.868-1.912,5.161c0.094,1.561,9.102,157.604,6.611,192.517c-0.932,12.976-5.65,26.119-10.65,40.033
				c-11.199,31.188-49.061,63.383-28.32,104.128c1.068,2.097,2.453,5.168,5.723,6.467c6,2.384,11.752-36.699,60.125-36.699
				c107.807,0,204.746-1.377,256.5,0.701c85.424,0,91.834,37.498,92.225,13.413C421.732,313.379,410.062,284.693,371.613,274.241z"
				/>
			<path d="M72.758,332.063c-24.813,0-45,20.187-45,45s20.188,45,45,45s45-20.187,45-45S97.57,332.063,72.758,332.063z
				 M72.758,398.992c-12.092,0-21.93-9.837-21.93-21.929c0-12.092,9.838-21.929,21.93-21.929s21.93,9.837,21.93,21.929
				C94.688,389.155,84.849,398.992,72.758,398.992z"/>
			<path d="M165.064,332.063c-24.813,0-45,20.187-45,45s20.188,45,45,45c24.814,0,45.002-20.187,45.002-45
				S189.879,332.063,165.064,332.063z M165.064,398.992c-12.092,0-21.928-9.837-21.928-21.929c0-12.092,9.836-21.929,21.928-21.929
				c12.094,0,21.932,9.837,21.932,21.929C186.996,389.155,177.158,398.992,165.064,398.992z"/>
			<path d="M257.373,332.063c-24.813,0-45,20.187-45,45s20.188,45,45,45c24.814,0,45-20.187,45-45S282.187,332.063,257.373,332.063z
				 M257.373,398.992c-12.092,0-21.93-9.837-21.93-21.929c0-12.092,9.838-21.929,21.93-21.929s21.93,9.837,21.93,21.929
				C279.303,389.155,269.465,398.992,257.373,398.992z"/>
			<path d="M349.681,332.063c-24.814,0-45,20.187-45,45s20.186,45,45,45c24.813,0,45-20.187,45-45S374.494,332.063,349.681,332.063z
				 M349.681,398.992c-12.092,0-21.93-9.837-21.93-21.929c0-12.092,9.838-21.929,21.93-21.929s21.93,9.837,21.93,21.929
				C371.611,389.155,361.773,398.992,349.681,398.992z"/>
		</g>
	</g>
</g>
<g>
</g>
<g>
</g>
<g>
</g>
<g>
</g>
<g>
</g>
<g>
</g>
<g>
</g>
<g>
</g>
<g>
</g>
<g>
</g>
<g>
</g>
<g>
</g>
<g>
</g>
<g>
</g>
<g>
</g>
</svg>
