<?xml version="1.0" encoding="iso-8859-1"?>
<!-- Generator: Adobe Illustrator 18.0.0, SVG Export Plug-In . SVG Version: 6.00 Build 0)  -->
<!DOCTYPE svg PUBLIC "-//W3C//DTD SVG 1.1//EN" "http://www.w3.org/Graphics/SVG/1.1/DTD/svg11.dtd">
<svg version="1.1" id="Capa_1" xmlns="http://www.w3.org/2000/svg" xmlns:xlink="http://www.w3.org/1999/xlink" x="0px" y="0px"
	 viewBox="0 0 64.039 64.039" style="enable-background:new 0 0 64.039 64.039;" xml:space="preserve">
<g>
	<path style="fill:#231F20;" d="M22.084,20.622c0.38-0.37,0.59-0.88,0.59-1.41c0-0.529-0.21-1.04-0.59-1.42
		c-0.75-0.739-2.08-0.739-2.82,0c-0.38,0.37-0.59,0.891-0.59,1.42c0,0.53,0.21,1.04,0.58,1.41c0.38,0.38,0.89,0.59,1.42,0.59
		C21.195,21.212,21.715,21.002,22.084,20.622z"/>
	<path style="fill:#231F20;" d="M20.675,29.912c1.1,0,2-0.899,2-2c0-1.109-0.9-2-2-2c-1.11,0-2,0.891-2,2
		C18.675,29.013,19.564,29.912,20.675,29.912z"/>
	<path style="fill:#231F20;" d="M19.254,38.022c0.38,0.37,0.89,0.58,1.42,0.58c0.52,0,1.04-0.21,1.41-0.58
		c0.38-0.38,0.59-0.89,0.59-1.42c0-0.521-0.21-1.04-0.59-1.41c-0.74-0.74-2.08-0.75-2.83,0c-0.37,0.37-0.58,0.89-0.58,1.41
		C18.675,37.133,18.885,37.652,19.254,38.022z"/>
	<path style="fill:#231F20;" d="M27.375,21.212c0.53,0,1.04-0.21,1.42-0.59c0.37-0.37,0.58-0.88,0.58-1.41
		c0-0.529-0.21-1.04-0.58-1.42c-0.75-0.739-2.08-0.739-2.83,0c-0.37,0.38-0.59,0.891-0.59,1.42c0,0.53,0.22,1.04,0.59,1.41
		C26.334,21.002,26.854,21.212,27.375,21.212z"/>
	<path style="fill:#231F20;" d="M27.375,29.912c1.11,0,2-0.899,2-2c0-1.109-0.89-2-2-2c-1.1,0-2,0.891-2,2
		C25.375,29.013,26.274,29.912,27.375,29.912z"/>
	<path style="fill:#231F20;" d="M25.965,38.022c0.37,0.37,0.89,0.58,1.41,0.58c0.53,0,1.04-0.21,1.42-0.58
		c0.37-0.38,0.58-0.89,0.58-1.42c0-0.521-0.21-1.04-0.58-1.41c-0.74-0.74-2.08-0.75-2.83,0c-0.37,0.37-0.59,0.89-0.59,1.41
		C25.375,37.133,25.595,37.643,25.965,38.022z"/>
	<path style="fill:#231F20;" d="M35.495,20.622c0.37-0.37,0.59-0.88,0.59-1.41c0-0.529-0.22-1.05-0.59-1.42
		c-0.74-0.739-2.08-0.739-2.83,0c-0.37,0.38-0.58,0.891-0.58,1.42c0,0.53,0.21,1.04,0.58,1.41c0.38,0.38,0.89,0.59,1.42,0.59
		C34.604,21.212,35.125,21.002,35.495,20.622z"/>
	<path style="fill:#231F20;" d="M34.084,29.912c1.1,0,2-0.899,2-2c0-1.109-0.9-2-2-2c-1.11,0-2,0.891-2,2
		C32.084,29.013,32.975,29.912,34.084,29.912z"/>
	<path style="fill:#231F20;" d="M32.665,38.022c0.37,0.37,0.89,0.58,1.42,0.58c0.52,0,1.04-0.21,1.41-0.58
		c0.37-0.38,0.59-0.89,0.59-1.42c0-0.521-0.22-1.04-0.59-1.41c-0.74-0.75-2.09-0.75-2.83,0c-0.37,0.37-0.58,0.89-0.58,1.41
		C32.084,37.133,32.294,37.652,32.665,38.022z"/>
	<path style="fill:#231F20;" d="M46.43,51.782V7.436c0-4.1-3.335-7.436-7.436-7.436h-5.797c-3.636,0-6.665,2.625-7.305,6.078
		L18.95,8.5c-0.803,0.28-1.341,1.038-1.341,1.889v1.214c0,1.104,0.896,2,2,2h16.306c1.104,0,2-0.896,2-2v-1.214
		c0-0.851-0.538-1.608-1.341-1.889l-6.574-2.294C30.496,4.919,31.737,4,33.197,4h5.797c1.895,0,3.436,1.541,3.436,3.436v43.199
		c-3.5-0.737-7.394-1.008-10.411-1.008c-7.16,0-19.278,1.518-19.278,7.206c0,5.689,12.118,7.207,19.278,7.207
		s19.278-1.518,19.278-7.207C51.297,54.518,49.292,52.894,46.43,51.782z M32.02,60.039c-8.786,0-14.414-2.025-15.231-3.207
		c0.819-1.181,6.447-3.206,15.231-3.206s14.412,2.025,15.231,3.206C46.432,58.014,40.805,60.039,32.02,60.039z"/>
</g>
<g>
</g>
<g>
</g>
<g>
</g>
<g>
</g>
<g>
</g>
<g>
</g>
<g>
</g>
<g>
</g>
<g>
</g>
<g>
</g>
<g>
</g>
<g>
</g>
<g>
</g>
<g>
</g>
<g>
</g>
</svg>
