<?xml version="1.0" encoding="iso-8859-1"?>
<!-- Generator: Adobe Illustrator 18.1.1, SVG Export Plug-In . SVG Version: 6.00 Build 0)  -->
<svg version="1.1" id="Capa_1" xmlns="http://www.w3.org/2000/svg" xmlns:xlink="http://www.w3.org/1999/xlink" x="0px" y="0px"
	 viewBox="0 0 442.08 442.08" style="enable-background:new 0 0 442.08 442.08;" xml:space="preserve">
<g>
	<g id="Layer_1_33_">
		<g>
			<path d="M414.188,175.876c-3.939,1.473-5.939,5.859-4.466,9.801c6.544,17.502-32.895,38.734-53.017,46.275l-83.11,31.072
				l51.717-75.764c7.633-2.342,14.273-7.795,17.865-15.623l35.792-77.991c6.682-14.562,0.296-31.782-14.266-38.464
				c-9.755-4.477-20.696-3.082-28.87,2.699l-80.858,23.348c-5.467,1.572-9.068,6.982-8.22,12.767
				c0.924,6.308,6.789,10.673,13.097,9.748l54.301-7.959l-23.705,51.655c-2.727,5.941-3.276,12.326-1.983,18.256l-45.709,81.369
				c-4.303,7.717-2.118,17.641,5.319,22.719c0.97,0.662,1.983,1.211,3.025,1.65l-102.569,38.35
				c-3.939,1.473-5.938,5.859-4.466,9.799c1.473,3.939,5.86,5.938,9.801,4.465l208.172-77.832c0.001,0,0.002,0,0.003-0.002
				c0.773-0.289,18.189-6.854,34.467-17.395c30.346-19.65,31.693-37.209,27.479-48.479
				C422.514,176.404,418.126,174.404,414.188,175.876z"/>
			<circle cx="396.98" cy="31.627" r="31.627"/>
			<polygon points="13.473,442.08 336.856,442.08 13.473,280.777 			"/>
		</g>
	</g>
</g>
<g>
</g>
<g>
</g>
<g>
</g>
<g>
</g>
<g>
</g>
<g>
</g>
<g>
</g>
<g>
</g>
<g>
</g>
<g>
</g>
<g>
</g>
<g>
</g>
<g>
</g>
<g>
</g>
<g>
</g>
</svg>
