<?xml version="1.0" encoding="iso-8859-1"?>
<!-- Generator: Adobe Illustrator 18.0.0, SVG Export Plug-In . SVG Version: 6.00 Build 0)  -->
<!DOCTYPE svg PUBLIC "-//W3C//DTD SVG 1.1//EN" "http://www.w3.org/Graphics/SVG/1.1/DTD/svg11.dtd">
<svg version="1.1" id="Capa_1" xmlns="http://www.w3.org/2000/svg" xmlns:xlink="http://www.w3.org/1999/xlink" x="0px" y="0px"
	 viewBox="0 0 475.611 475.611" style="enable-background:new 0 0 475.611 475.611;" xml:space="preserve">
<path id="XMLID_258_" d="M451.407,213.624c-6.256-0.008-11.899,2.434-16.189,6.325v-6.325c0-4.432-3.585-8.016-8.016-8.016
	c-4.432,0-8.016,3.585-8.016,8.016v11.829c-9.762-2.859-21.833-5.191-33.661-6.764c-3.452-26.796-14.028-51.338-29.786-71.746
	c7.264-9.496,14.169-19.704,19.062-28.644l8.375,8.376c1.566,1.566,3.617,2.349,5.667,2.349c2.052,0,4.103-0.782,5.668-2.349
	c3.133-3.131,3.133-8.204,0-11.335l-4.587-4.579c5.825-0.266,11.595-2.436,16.032-6.881c9.441-9.45,9.457-24.77-0.016-34.234
	c-9.425-9.433-24.736-9.425-34.193,0.024c-4.446,4.446-6.623,10.208-6.881,16.032l-4.579-4.58c-3.131-3.131-8.204-3.131-11.334,0
	c-3.133,3.131-3.133,8.204,0,11.337l8.359,8.359c-8.939,4.893-19.139,11.798-28.627,19.063
	c-20.409-15.766-44.958-26.349-71.762-29.802c-1.573-11.829-3.905-23.907-6.764-33.669h11.845c4.431,0,8.016-3.584,8.016-8.016
	c0-4.43-3.585-8.016-8.016-8.016h-6.317c3.883-4.29,6.317-9.934,6.317-16.181C262.003,10.835,251.168,0,237.805,0
	c-13.362,0-24.195,10.835-24.195,24.196c0,6.248,2.434,11.891,6.316,16.181h-6.316c-4.432,0-8.016,3.587-8.016,8.016
	c0,4.432,3.584,8.016,8.016,8.016h11.843c-2.857,9.762-5.189,21.833-6.762,33.669c-26.804,3.453-51.355,14.028-71.762,29.794
	c-9.496-7.265-19.711-14.178-28.651-19.069l8.368-8.369c3.131-3.131,3.131-8.204,0-11.335c-3.131-3.131-8.204-3.131-11.335,0
	l-4.564,4.563c-0.266-5.808-2.435-11.569-6.881-16.008c-9.457-9.45-24.769-9.45-34.209,0c-9.441,9.449-9.457,24.768-0.016,34.217
	c4.446,4.438,10.208,6.607,16.032,6.873l-4.571,4.571c-3.132,3.133-3.132,8.205,0,11.336c1.565,1.565,3.616,2.349,5.667,2.349
	c2.051,0,4.102-0.784,5.668-2.349l8.368-8.369c4.885,8.939,11.797,19.155,19.062,28.651c-15.766,20.416-26.334,44.958-29.794,71.762
	c-11.82,1.573-23.899,3.897-33.661,6.756v-11.837c0-4.431-3.593-8.016-8.016-8.016c-4.431,0-8.016,3.593-8.016,8.016v6.325
	c-4.29-3.891-9.934-6.325-16.189-6.325C10.834,213.624,0,224.451,0,237.806c0,13.363,10.834,24.204,24.173,24.212
	c6.271-0.008,11.922-2.442,16.22-6.341v6.326c0,4.43,3.593,8.016,8.016,8.016c4.431,0,8.016-3.594,8.016-8.016v-11.828
	c9.754,2.865,21.825,5.189,33.653,6.762c3.46,26.804,14.036,51.338,29.802,71.754c-7.264,9.496-14.185,19.704-19.069,28.651
	l-8.376-8.367c-3.131-3.133-8.204-3.133-11.335,0c-3.132,3.131-3.132,8.212,0,11.335l4.571,4.564
	c-5.824,0.266-11.586,2.434-16.032,6.881c-9.425,9.448-9.425,24.768,0,34.208c9.456,9.449,24.784,9.449,34.225,0.024
	c4.446-4.454,6.623-10.224,6.881-16.048l4.58,4.572c1.565,1.565,3.617,2.349,5.667,2.349c2.051,0,4.102-0.784,5.668-2.349
	c3.131-3.131,3.131-8.211,0-11.334l-8.369-8.361c8.948-4.893,19.156-11.806,28.652-19.07c20.408,15.758,44.95,26.326,71.746,29.778
	c1.573,11.836,3.905,23.915,6.762,33.677H213.61c-4.432,0-8.016,3.586-8.016,8.016c0,4.431,3.584,8.016,8.016,8.016h6.316
	c-3.883,4.29-6.316,9.935-6.316,16.181c0,13.363,10.833,24.197,24.195,24.197c13.363,0,24.198-10.834,24.198-24.197
	c0-6.246-2.434-11.891-6.317-16.181h6.317c4.431,0,8.016-3.585,8.016-8.016c0-4.43-3.585-8.016-8.016-8.016h-11.845
	c2.859-9.762,5.191-21.841,6.764-33.677c26.796-3.452,51.338-14.028,71.746-29.787c9.503,7.266,19.711,14.177,28.659,19.07
	l-8.375,8.375c-3.133,3.133-3.133,8.205,0,11.336c1.564,1.564,3.615,2.349,5.667,2.349c2.05,0,4.101-0.784,5.667-2.349l4.579-4.581
	c0.266,5.816,2.435,11.586,6.881,16.024c9.441,9.449,24.768,9.449,34.226,0c9.441-9.448,9.425-24.768-0.016-34.216
	c-4.438-4.439-10.2-6.607-16.016-6.881l4.571-4.564c3.133-3.131,3.133-8.204,0-11.335c-3.131-3.131-8.204-3.131-11.335,0
	l-8.369,8.367c-4.892-8.948-11.805-19.164-19.077-28.659c15.766-20.408,26.335-44.941,29.794-71.738
	c11.828-1.581,23.899-3.906,33.661-6.762v11.843c0,4.431,3.584,8.016,8.016,8.016c4.431,0,8.016-3.585,8.016-8.016v-6.341
	c4.298,3.891,9.941,6.333,16.189,6.326c13.371,0.006,24.204-10.826,24.204-24.205C475.611,224.451,464.778,213.624,451.407,213.624z
	 M237.797,299.898c-34.24,0-62.093-27.853-62.093-62.093c0-34.242,27.853-62.102,62.093-62.102c34.242,0,62.102,27.86,62.102,62.102
	C299.9,272.046,272.039,299.898,237.797,299.898z M286.255,166.663c-9.589-6.56-20.588-11.139-32.417-13.387
	c3.006-8.274,4.901-18.803,5.213-30.476c16.479,3.046,31.76,9.496,45.052,18.679C296.079,149.925,289.981,158.693,286.255,166.663z
	 M221.773,153.276c-11.829,2.24-22.827,6.818-32.424,13.371c-3.726-7.962-9.824-16.73-17.848-25.176
	c13.3-9.183,28.58-15.633,45.058-18.671C216.874,134.465,218.767,145.002,221.773,153.276z M166.648,189.356
	c-6.552,9.589-11.133,20.588-13.371,32.417c-8.268-2.998-18.804-4.893-30.476-5.198c3.038-16.479,9.48-31.76,18.664-45.06
	C149.91,179.532,158.686,185.63,166.648,189.356z M153.277,253.846c2.246,11.829,6.827,22.827,13.377,32.416
	c-7.96,3.727-16.729,9.824-25.184,17.849c-9.174-13.292-15.625-28.573-18.67-45.051C134.473,258.753,145.009,256.86,153.277,253.846
	z M189.358,308.965c9.597,6.551,20.587,11.123,32.416,13.361c-3.006,8.276-4.899,18.813-5.214,30.476
	c-16.47-3.037-31.75-9.48-45.042-18.654C179.533,325.693,185.638,316.925,189.358,308.965z M253.838,322.326
	c11.829-2.238,22.82-6.817,32.409-13.377c3.726,7.968,9.825,16.744,17.841,25.191c-13.292,9.173-28.564,15.625-45.036,18.662
	C258.738,341.13,256.844,330.602,253.838,322.326z M308.948,286.253c6.552-9.589,11.132-20.579,13.378-32.399
	c8.267,3.006,18.804,4.907,30.476,5.212c-3.046,16.472-9.488,31.744-18.671,45.028C325.686,296.078,316.918,289.981,308.948,286.253
	z M322.327,221.781c-2.238-11.828-6.81-22.82-13.363-32.417c7.962-3.718,16.738-9.816,25.184-17.833
	c9.175,13.293,15.617,28.573,18.655,45.044C341.137,216.872,330.601,218.768,322.327,221.781z"/>
<g>
</g>
<g>
</g>
<g>
</g>
<g>
</g>
<g>
</g>
<g>
</g>
<g>
</g>
<g>
</g>
<g>
</g>
<g>
</g>
<g>
</g>
<g>
</g>
<g>
</g>
<g>
</g>
<g>
</g>
</svg>
