<?xml version="1.0" encoding="UTF-8" standalone="no"?>
<!-- Generator: Adobe Illustrator 19.0.0, SVG Export Plug-In . SVG Version: 6.00 Build 0)  -->

<svg
   xmlns:dc="http://purl.org/dc/elements/1.1/"
   xmlns:cc="http://creativecommons.org/ns#"
   xmlns:rdf="http://www.w3.org/1999/02/22-rdf-syntax-ns#"
   xmlns:svg="http://www.w3.org/2000/svg"
   xmlns="http://www.w3.org/2000/svg"
   xmlns:sodipodi="http://sodipodi.sourceforge.net/DTD/sodipodi-0.dtd"
   xmlns:inkscape="http://www.inkscape.org/namespaces/inkscape"
   version="1.1"
   id="Layer_1"
   x="0px"
   y="0px"
   viewBox="0 0 460.088 460.088"
   style="enable-background:new 0 0 460.088 460.088;"
   xml:space="preserve"
   width="512px"
   height="512px"
   inkscape:version="0.91 r13725"
   sodipodi:docname="sortorder.svg"><metadata
     id="metadata51"><rdf:RDF><cc:Work
         rdf:about=""><dc:format>image/svg+xml</dc:format><dc:type
           rdf:resource="http://purl.org/dc/dcmitype/StillImage" /><dc:title></dc:title></cc:Work></rdf:RDF></metadata><defs
     id="defs49" /><sodipodi:namedview
     pagecolor="#ffffff"
     bordercolor="#666666"
     borderopacity="1"
     objecttolerance="10"
     gridtolerance="10"
     guidetolerance="10"
     inkscape:pageopacity="0"
     inkscape:pageshadow="2"
     inkscape:window-width="1097"
     inkscape:window-height="668"
     id="namedview47"
     showgrid="false"
     inkscape:zoom="0.921875"
     inkscape:cx="344.57051"
     inkscape:cy="277.62236"
     inkscape:window-x="-8"
     inkscape:window-y="-8"
     inkscape:window-maximized="1"
     inkscape:current-layer="Layer_1" /><path
     style="fill:#6d6d6d;fill-opacity:1"
     inkscape:connector-curvature="0"
     id="path11"
     d="m 25.555,242.429 257.526,0 0,-51.111 -257.526,0 C 11.442,191.318 0,202.76 0,216.874 c 0,14.114 11.442,25.555 25.555,25.555 z" /><path
     style="fill:#6d6d6d;fill-opacity:1"
     inkscape:connector-curvature="0"
     id="path13"
     d="m 25.555,293.874 0,10e-4 C 11.442,293.875 0,305.316 0,319.43 c 0,14.114 11.442,25.555 25.555,25.555 l 178.91,0 c -2.021,-6.224 -3.088,-12.789 -3.088,-19.523 0,-11.277 2.957,-22.094 8.48,-31.588 l -184.302,0 z" /><path
     style="fill:#6d6d6d;fill-opacity:1"
     inkscape:connector-curvature="0"
     id="path15"
     d="m 450.623,302.611 c -12.62,-12.621 -33.083,-12.621 -45.704,0 l -26.535,26.535 0,-276.22 c 0,-17.849 -14.469,-32.317 -32.318,-32.317 -17.849,0 -32.318,14.469 -32.318,32.317 l 0,276.22 -26.535,-26.535 c -12.621,-12.62 -33.083,-12.621 -45.704,0 -12.621,12.621 -12.621,33.083 0,45.704 l 81.7,81.699 c 12.596,12.6 33.084,12.643 45.714,0 l 81.7,-81.699 c 12.62,-12.621 12.621,-33.083 0,-45.704 z" /><g
     id="g17" /><g
     id="g19" /><g
     id="g21" /><g
     id="g23" /><g
     id="g25" /><g
     id="g27" /><g
     id="g29" /><g
     id="g31" /><g
     id="g33" /><g
     id="g35" /><g
     id="g37" /><g
     id="g39" /><g
     id="g41" /><g
     id="g43" /><g
     id="g45" /><path
     style="fill:#6d6d6d;fill-opacity:1"
     inkscape:connector-curvature="0"
     id="path15-5"
     d="m 450.62299,157.47813 c -12.62,12.62101 -33.08299,12.62101 -45.70399,0 l -26.535,-26.53499 0,276.21999 c 0,17.849 -14.469,32.317 -32.31801,32.317 -17.849,0 -32.31799,-14.469 -32.31799,-32.317 l 0,-276.21999 -26.535,26.53499 c -12.621,12.62 -33.083,12.62101 -45.704,0 -12.621,-12.62099 -12.621,-33.083 0,-45.70399 l 81.7,-81.699 c 12.596,-12.60001 33.084,-12.64301 45.714,0 l 81.69999,81.699 c 12.62,12.62099 12.62101,33.083 0,45.70399 z" /><path
     style="fill:#6d6d6d;fill-opacity:1"
     inkscape:connector-curvature="0"
     id="path13-4"
     d="m 25.555,88.761001 0,0.001 C 11.442,88.762001 0,100.203 0,114.317 c 0,14.114 11.442,25.555 25.555,25.555 l 178.91,0 c -2.021,-6.224 -3.088,-12.789 -3.088,-19.523 0,-11.277 12.70463,-22.093999 18.22763,-31.587999 z"
     sodipodi:nodetypes="ccsscscc" /></svg>