<?xml version="1.0" encoding="iso-8859-1"?>
<!-- Generator: Adobe Illustrator 18.0.0, SVG Export Plug-In . SVG Version: 6.00 Build 0)  -->
<!DOCTYPE svg PUBLIC "-//W3C//DTD SVG 1.1//EN" "http://www.w3.org/Graphics/SVG/1.1/DTD/svg11.dtd">
<svg version="1.1" id="Capa_1" xmlns="http://www.w3.org/2000/svg" xmlns:xlink="http://www.w3.org/1999/xlink" x="0px" y="0px"
	 viewBox="0 0 65.605 65.605" style="enable-background:new 0 0 65.605 65.605;" xml:space="preserve">
<g>
	<path style="fill:#231F20;" d="M65.458,25.163c-0.353-1.086-1.293-1.877-2.423-2.041l-19.034-2.755L35.48,3.125
		c-0.506-1.023-1.548-1.671-2.689-1.671c-0.001,0-0.001,0-0.002,0c-1.142,0-2.185,0.649-2.69,1.674l-8.502,17.251L2.567,23.153
		c-1.13,0.165-2.068,0.957-2.421,2.043c-0.353,1.086-0.058,2.278,0.761,3.075l13.778,13.418l-3.242,18.956
		c-0.192,1.126,0.27,2.263,1.195,2.934c0.522,0.379,1.141,0.572,1.762,0.572c0.478,0,0.958-0.114,1.398-0.345l17.018-8.959
		l17.028,8.942c0.438,0.23,0.917,0.344,1.395,0.344c0.007-0.001,0.015-0.001,0.02,0c1.657,0,3-1.343,3-3
		c0-0.295-0.042-0.581-0.122-0.85L50.935,41.67L64.7,28.239C65.518,27.441,65.812,26.249,65.458,25.163z M45.616,38.477
		c-0.707,0.69-1.029,1.683-0.862,2.656l2.498,14.518l-13.043-6.849c-0.874-0.459-1.918-0.458-2.792,0.001l-13.035,6.862
		l2.483-14.519c0.166-0.973-0.156-1.966-0.864-2.655L9.448,28.214l14.575-2.125c0.977-0.143,1.822-0.757,2.259-1.643l6.512-13.213
		l6.526,13.207c0.438,0.885,1.282,1.499,2.26,1.64l14.579,2.11L45.616,38.477z"/>
	<circle style="fill:#231F20;" cx="32.801" cy="36.775" r="4.693"/>
	<path style="fill:#231F20;" d="M32.801,29.493c1.763,0,3.193-1.429,3.193-3.192c0-1.763-1.431-3.192-3.193-3.192
		c-1.761,0-3.19,1.429-3.19,3.192C29.61,28.063,31.04,29.493,32.801,29.493z"/>
	<circle style="fill:#231F20;" cx="42.606" cy="32.061" r="3.192"/>
	<circle style="fill:#231F20;" cx="22.999" cy="32.061" r="3.192"/>
	<circle style="fill:#231F20;" cx="39.605" cy="45.812" r="3.192"/>
	<circle style="fill:#231F20;" cx="25.997" cy="45.812" r="3.192"/>
</g>
<g>
</g>
<g>
</g>
<g>
</g>
<g>
</g>
<g>
</g>
<g>
</g>
<g>
</g>
<g>
</g>
<g>
</g>
<g>
</g>
<g>
</g>
<g>
</g>
<g>
</g>
<g>
</g>
<g>
</g>
</svg>
