<?xml version="1.0" encoding="iso-8859-1"?>
<!-- Generator: Adobe Illustrator 18.0.0, SVG Export Plug-In . SVG Version: 6.00 Build 0)  -->
<!DOCTYPE svg PUBLIC "-//W3C//DTD SVG 1.1//EN" "http://www.w3.org/Graphics/SVG/1.1/DTD/svg11.dtd">
<svg version="1.1" id="Capa_1" xmlns="http://www.w3.org/2000/svg" xmlns:xlink="http://www.w3.org/1999/xlink" x="0px" y="0px"
	 viewBox="0 0 66.681 66.681" style="enable-background:new 0 0 66.681 66.681;" xml:space="preserve">
<path style="fill:#231F20;" d="M65.652,19.924l-8.035-4.467c-1.244-6.892-7.162-11.86-14.188-11.86c-0.76,0-1.528,0.061-2.284,0.181
	c-7.86,1.252-13.236,8.664-11.985,16.523c0.144,0.902,0.369,1.771,0.664,2.603c-11.482,1.43-22.294,2.803-26.008,7.745
	c-1.115,1.483-1.53,3.175-1.235,5.028c0.272,1.712,1.536,4.265,3.737,6.997C2.438,44.677,0,47.268,0,50.417
	c0,8.228,16.616,12.667,32.25,12.667S64.5,58.644,64.5,50.417c0-3.144-2.431-5.732-6.301-7.733c0.504-2.125,0.617-4.377,0.253-6.664
	c-0.53-3.328-1.977-6.285-4.048-8.657c0.6-0.707,1.149-1.463,1.609-2.286l8.982-1.429c0.842-0.135,1.507-0.788,1.655-1.628
	C66.798,21.18,66.398,20.338,65.652,19.924z M48.324,12.166c1.818-0.289,3.526,0.95,3.816,2.768c0.289,1.818-0.95,3.526-2.768,3.816
	c-1.818,0.289-3.526-0.95-3.816-2.768C45.266,14.164,46.506,12.455,48.324,12.166z M56.827,46.428
	c2.393,1.322,3.673,2.741,3.673,3.989c0,3.619-10.747,8.667-28.25,8.667S4,54.036,4,50.417c0-1.478,1.794-3.194,5.106-4.707
	c5.663,5.448,14.901,10.662,27.415,10.663c0.001,0,0.001,0,0.003,0c2.479,0,5.041-0.207,7.613-0.616
	C49.831,54.85,54.42,51.227,56.827,46.428z"/>
<g>
</g>
<g>
</g>
<g>
</g>
<g>
</g>
<g>
</g>
<g>
</g>
<g>
</g>
<g>
</g>
<g>
</g>
<g>
</g>
<g>
</g>
<g>
</g>
<g>
</g>
<g>
</g>
<g>
</g>
</svg>
