<?xml version="1.0" encoding="iso-8859-1"?>
<!-- Generator: Adobe Illustrator 18.0.0, SVG Export Plug-In . SVG Version: 6.00 Build 0)  -->
<!DOCTYPE svg PUBLIC "-//W3C//DTD SVG 1.1//EN" "http://www.w3.org/Graphics/SVG/1.1/DTD/svg11.dtd">
<svg version="1.1" id="Capa_1" xmlns="http://www.w3.org/2000/svg" xmlns:xlink="http://www.w3.org/1999/xlink" x="0px" y="0px"
	 viewBox="0 0 65.981 65.981" style="enable-background:new 0 0 65.981 65.981;" xml:space="preserve">
<g>
	<path style="fill:#231F20;" d="M44.132,18.307c-0.921,0-2.019,0.271-3.189,0.708c0.436-1.17,0.708-2.268,0.708-3.189
		c0-4.775-3.885-8.66-8.66-8.66s-8.66,3.885-8.66,8.66c0,0.921,0.271,2.019,0.708,3.189c-1.17-0.436-2.268-0.708-3.189-0.708
		c-4.775,0-8.66,3.885-8.66,8.661c0,4.775,3.885,8.66,8.66,8.66c0.921,0,2.019-0.271,3.189-0.708
		c-0.437,1.17-0.708,2.269-0.708,3.19c0,4.775,3.885,8.659,8.66,8.659s8.66-3.884,8.66-8.659c0-0.921-0.271-2.019-0.708-3.19
		c1.17,0.436,2.269,0.708,3.189,0.708c4.775,0,8.66-3.885,8.66-8.66C52.792,22.192,48.907,18.307,44.132,18.307z M32.99,13.166
		c1.467,0,2.66,1.193,2.66,2.65c-0.038,0.833-1.134,3.095-2.661,5.632c-1.526-2.535-2.621-4.794-2.659-5.623
		C30.33,14.359,31.524,13.166,32.99,13.166z M21.843,29.627c-1.463-0.003-2.653-1.195-2.653-2.66c0-1.467,1.193-2.661,2.65-2.661
		c0.833,0.038,3.095,1.134,5.633,2.661C24.94,28.492,22.68,29.586,21.843,29.627z M32.99,40.768c-1.467,0-2.66-1.193-2.66-2.649
		c0.038-0.833,1.134-3.095,2.66-5.632c1.526,2.536,2.623,4.796,2.66,5.622C35.651,39.575,34.457,40.768,32.99,40.768z
		 M44.138,29.627c-0.836-0.041-3.095-1.136-5.629-2.661c2.535-1.526,4.794-2.622,5.623-2.66c1.466,0,2.66,1.193,2.66,2.661
		C46.792,28.432,45.602,29.624,44.138,29.627z"/>
	<path style="fill:#231F20;" d="M59.958,26.967C59.958,12.098,47.86,0,32.99,0S6.023,12.098,6.023,26.967
		c0,11.609,7.375,21.529,17.685,25.321c-2.993,2.602-4.897,6.425-4.897,10.693c0,1.657,1.343,3,3,3h22.357
		c0.007,0,0.013-0.001,0.02,0c1.657,0,3-1.343,3-3c0-0.133-0.009-0.263-0.025-0.392c-0.112-4.111-1.992-7.779-4.894-10.301
		C52.582,48.498,59.958,38.578,59.958,26.967z M25.382,59.981c1.199-3.03,4.158-5.179,7.609-5.179c3.451,0,6.41,2.149,7.609,5.179
		H25.382z M32.99,47.935c-11.562,0-20.967-9.406-20.967-20.967C12.023,15.406,21.429,6,32.99,6s20.967,9.406,20.967,20.967
		C53.958,38.529,44.552,47.935,32.99,47.935z"/>
</g>
<g>
</g>
<g>
</g>
<g>
</g>
<g>
</g>
<g>
</g>
<g>
</g>
<g>
</g>
<g>
</g>
<g>
</g>
<g>
</g>
<g>
</g>
<g>
</g>
<g>
</g>
<g>
</g>
<g>
</g>
</svg>
