<?xml version="1.0" encoding="iso-8859-1"?>
<!-- Generator: Adobe Illustrator 18.0.0, SVG Export Plug-In . SVG Version: 6.00 Build 0)  -->
<!DOCTYPE svg PUBLIC "-//W3C//DTD SVG 1.1//EN" "http://www.w3.org/Graphics/SVG/1.1/DTD/svg11.dtd">
<svg version="1.1" id="Capa_1" xmlns="http://www.w3.org/2000/svg" xmlns:xlink="http://www.w3.org/1999/xlink" x="0px" y="0px"
	 viewBox="0 0 65.117 65.117" style="enable-background:new 0 0 65.117 65.117;" xml:space="preserve">
<path style="fill:#231F20;" d="M63.617,46.988c-2.555,0-4.967-1.126-6.617-3.089c-0.285-0.339-0.705-0.535-1.148-0.535
	c-0.443,0-0.863,0.196-1.149,0.535c-1.648,1.963-4.059,3.088-6.615,3.088c-0.378,0-0.751-0.032-1.121-0.08l0.01-0.713l4.768-1.885
	c0.262-0.104,0.468-0.313,0.567-0.576c0.101-0.263,0.085-0.556-0.043-0.807l-2.319-4.574l3.347-3.886
	c0.184-0.213,0.269-0.494,0.235-0.773c-0.034-0.279-0.185-0.532-0.414-0.694l-4.18-2.971l1.159-4.995
	c0.064-0.274,0.01-0.562-0.15-0.794c-0.16-0.231-0.41-0.385-0.688-0.423l-5.082-0.69l-1.303-4.962
	c-0.071-0.272-0.254-0.501-0.503-0.632c-0.247-0.13-0.539-0.149-0.806-0.054l-4.816,1.75l-3.453-3.79
	c-0.379-0.415-1.1-0.416-1.478,0l-3.45,3.789l-4.823-1.75c-0.265-0.096-0.558-0.076-0.806,0.055
	c-0.249,0.131-0.432,0.36-0.503,0.632l-1.295,4.961l-5.082,0.69c-0.278,0.038-0.528,0.191-0.688,0.423
	c-0.159,0.232-0.215,0.52-0.151,0.794l1.158,4.995L11.999,33c-0.229,0.163-0.38,0.415-0.414,0.694
	c-0.033,0.279,0.052,0.56,0.235,0.773l3.347,3.886l-2.319,4.574c-0.128,0.251-0.144,0.544-0.043,0.807
	c0.1,0.263,0.306,0.472,0.566,0.575l4.767,1.885l0.011,0.712c-0.37,0.048-0.743,0.081-1.121,0.081c-2.554,0-4.966-1.126-6.618-3.089
	c-0.285-0.339-0.705-0.534-1.148-0.534H9.261c-0.443,0.001-0.863,0.196-1.148,0.536c-1.647,1.962-4.057,3.088-6.612,3.088
	c-0.828,0-1.5,0.671-1.5,1.5c0,0.829,0.672,1.5,1.5,1.5c2.891,0,5.643-1.067,7.763-2.972c2.125,1.905,4.877,2.972,7.765,2.972
	c2.889,0,5.642-1.067,7.767-2.972c2.12,1.905,4.872,2.972,7.763,2.972c2.889,0,5.642-1.067,7.766-2.972
	c2.122,1.905,4.875,2.972,7.766,2.972c2.89,0,5.642-1.067,7.764-2.972c2.124,1.905,4.877,2.972,7.766,2.972
	c0.828,0,1.5-0.671,1.5-1.5C65.117,47.659,64.445,46.988,63.617,46.988z M40.322,43.364c-0.443,0-0.863,0.196-1.149,0.535
	c-1.65,1.963-4.063,3.089-6.617,3.089c-2.556,0-4.966-1.125-6.612-3.088c-0.285-0.339-0.705-0.535-1.148-0.536h-0.001
	c-0.442,0-0.862,0.195-1.147,0.534c-0.414,0.492-0.876,0.931-1.376,1.314c-2.301-2.55-3.572-5.804-3.572-9.262
	c0-7.643,6.217-13.861,13.857-13.861c7.642,0,13.859,6.218,13.859,13.861c0,3.458-1.272,6.712-3.573,9.262
	c-0.499-0.382-0.96-0.821-1.373-1.313C41.186,43.561,40.766,43.364,40.322,43.364z"/>
<g>
</g>
<g>
</g>
<g>
</g>
<g>
</g>
<g>
</g>
<g>
</g>
<g>
</g>
<g>
</g>
<g>
</g>
<g>
</g>
<g>
</g>
<g>
</g>
<g>
</g>
<g>
</g>
<g>
</g>
</svg>
