<?xml version="1.0" encoding="iso-8859-1"?>
<!-- Generator: Adobe Illustrator 18.0.0, SVG Export Plug-In . SVG Version: 6.00 Build 0)  -->
<!DOCTYPE svg PUBLIC "-//W3C//DTD SVG 1.1//EN" "http://www.w3.org/Graphics/SVG/1.1/DTD/svg11.dtd">
<svg version="1.1" id="Capa_1" xmlns="http://www.w3.org/2000/svg" xmlns:xlink="http://www.w3.org/1999/xlink" x="0px" y="0px"
	 viewBox="0 0 479.1 479.1" style="enable-background:new 0 0 479.1 479.1;" xml:space="preserve">
<g>
	<path d="M447.248,157.595c-17.59,0-31.852,14.262-31.852,31.852c0,11.758,6.439,21.914,15.926,27.436v76.736
		c0,8.057-6.547,14.604-14.604,14.604h-10.653V109.693c0-17.217-13.951-31.167-31.168-31.167h-25.319
		c0-23.392-65.616-42.366-146.538-42.366c-80.936,0-146.552,18.974-146.552,42.366h-25.32C13.951,78.526,0,92.476,0,109.693v302.08
		c0,17.216,13.951,31.167,31.167,31.167h343.729c17.217,0,31.168-13.951,31.168-31.167v-71.699h10.653
		c25.615,0,46.456-20.841,46.456-46.456v-76.736c9.487-5.521,15.926-15.678,15.926-27.436
		C479.1,171.857,464.838,157.595,447.248,157.595z M281.582,131.902c0-6.065,4.929-10.995,10.995-10.995h72.46
		c6.081,0,10.995,4.931,10.995,10.995v139.741c0,6.082-4.915,10.997-10.995,10.997h-72.46c-6.066,0-10.995-4.915-10.995-10.997
		V131.902z M155.822,131.902c0-6.065,4.931-10.995,10.995-10.995h72.444c6.066,0,10.997,4.931,10.997,10.995v139.741
		c0,6.082-4.931,10.997-10.997,10.997h-72.444c-6.065,0-10.995-4.915-10.995-10.997V131.902z M30.063,271.642V131.902
		c0-6.065,4.931-10.995,10.995-10.995h72.446c6.065,0,10.995,4.931,10.995,10.995v139.741c0,6.082-4.931,10.997-10.995,10.997
		H41.058C34.994,282.639,30.063,277.724,30.063,271.642z M281.784,375.519H56.488c-8.804,0-15.926-7.124-15.926-15.926
		c0-8.802,7.122-15.926,15.926-15.926h225.296c8.802,0,15.926,7.124,15.926,15.926C297.71,368.396,290.586,375.519,281.784,375.519z
		 M349.577,403.358c0,4.013-3.266,7.28-7.294,7.28h-10.326c-4.013,0-7.28-3.266-7.28-7.28v-53.78c0-4.013,3.266-7.278,7.28-7.278
		h10.326c4.028,0,7.294,3.265,7.294,7.278V403.358z M376.032,410.638c-6.593,0-11.929-5.335-11.929-11.93
		c0-6.577,5.335-11.913,11.929-11.913c6.579,0,11.914,5.335,11.914,11.913C387.946,405.302,382.611,410.638,376.032,410.638z"/>
	<path d="M198.033,208.281c10.032,3.391,14.354,6.641,14.354,11.79c0,5.428-5.271,8.414-13.002,8.414
		c-5.396,0-10.482-1.073-14.93-2.629c-1.991-0.683-4.184-0.513-6.035,0.483c-1.851,0.995-3.203,2.722-3.731,4.759l-0.14,0.514
		c-1.074,4.198,1.322,8.492,5.443,9.813c4.634,1.476,10.202,2.504,15.864,2.752v6.237c0,3.671,2.97,6.641,6.64,6.641
		c0,0,6.657-2.97,6.657-6.641v-7.17c15.569-2.722,24.107-13.018,24.107-25.087c0-12.177-6.501-19.643-22.613-25.335
		c-11.526-4.338-16.284-7.17-16.284-11.648c0-3.795,2.862-7.59,11.664-7.59c5.241,0,9.457,0.902,12.785,1.96
		c1.788,0.575,3.717,0.373,5.35-0.529c1.632-0.903,2.816-2.427,3.282-4.231l0.249-0.948c1.088-4.246-1.462-8.586-5.708-9.705
		c-3.344-0.871-7.342-1.508-12.179-1.71v-5.303c0-3.671-2.97-6.641-6.641-6.641c-3.655,0-6.625,2.97-6.625,6.641v6.237
		c-14.494,2.846-22.909,12.209-22.909,24.121C173.629,196.633,183.521,203.398,198.033,208.281z"/>
	<path d="M291.053,239.512c2.784,2.768,9.673,0.326,13.172-2.754c13.921,7.917,34.295,3.935,48.899-10.685
		c14.603-14.604,18.6-34.978,10.669-48.897c3.094-3.499,5.522-10.374,2.768-13.174c-2.8-2.752-9.673-0.327-13.172,2.77
		c-13.921-7.933-34.309-3.935-48.899,10.669c-14.618,14.604-18.6,34.978-10.685,48.897
		C290.726,229.837,288.299,236.728,291.053,239.512z"/>
	<path d="M57.623,256.153c10.855,0,19.657-8.804,19.657-19.659c0-9.409-6.718-16.905-15.506-18.866
		c-0.529-16.33-0.046-37.762,3.857-52.971c1.384,11.68,5.537,27.558,16.408,42.94c-2.846,3.422-4.76,7.652-4.76,12.427
		c0,10.871,8.804,19.675,19.659,19.675c10.887,0,19.705-8.804,19.705-19.675c0-10.855-8.818-19.689-19.705-19.689
		c-3.172,0-6.064,0.933-8.724,2.271c-18.167-26.238-15.025-54.403-14.978-54.731c0.218-1.741-0.731-3.421-2.333-4.136
		c-1.586-0.715-3.467-0.296-4.618,1.026c-12.317,14.107-13.204,50.718-12.503,72.802c-8.974,1.836-15.864,9.409-15.864,18.928
		C37.918,247.349,46.736,256.153,57.623,256.153z"/>
</g>
<g>
</g>
<g>
</g>
<g>
</g>
<g>
</g>
<g>
</g>
<g>
</g>
<g>
</g>
<g>
</g>
<g>
</g>
<g>
</g>
<g>
</g>
<g>
</g>
<g>
</g>
<g>
</g>
<g>
</g>
</svg>
