<?xml version="1.0" encoding="iso-8859-1"?>
<!-- Generator: Adobe Illustrator 18.0.0, SVG Export Plug-In . SVG Version: 6.00 Build 0)  -->
<!DOCTYPE svg PUBLIC "-//W3C//DTD SVG 1.1//EN" "http://www.w3.org/Graphics/SVG/1.1/DTD/svg11.dtd">
<svg version="1.1" id="Capa_1" xmlns="http://www.w3.org/2000/svg" xmlns:xlink="http://www.w3.org/1999/xlink" x="0px" y="0px"
	 viewBox="0 0 454.307 454.307" style="enable-background:new 0 0 454.307 454.307;" xml:space="preserve">
<g id="XMLID_68_">
	<path id="XMLID_74_" d="M426.352,188.172c0-8.929-5.969-16.768-14.589-19.127c-44.381-12.123-78.599-78.769-80.16-160.092
		c-0.049-3.195-2.667-5.757-5.854-5.757h-36.429c-2.488,0-4.701,1.561-5.53,3.894c-8.651,24.2-26.574,51.636-39.973,70.266v125.362
		h182.535V188.172z"/>
	<path id="XMLID_73_" d="M164.939,3.196h-36.413c-3.188,0-5.806,2.562-5.855,5.757c-1.56,81.323-35.777,147.96-80.176,160.092
		c-8.636,2.358-14.588,10.182-14.588,19.118v14.555H210.51V77.437c-13.401-18.638-31.389-46.123-40.04-70.347
		C169.641,4.757,167.427,3.196,164.939,3.196z"/>
	<path id="XMLID_72_" d="M0,404.575c0,25.704,20.833,46.535,46.546,46.535H210.51v-89.007H27.679C11.384,369.35,0,385.604,0,404.575
		z"/>
	<path id="XMLID_71_" d="M426.645,362.104H243.816v89.007h163.946c25.711,0,46.544-20.831,46.544-46.535
		C454.307,385.604,442.923,369.35,426.645,362.104z"/>
	<path id="XMLID_70_" d="M0,282.416c0,18.961,11.384,35.208,27.664,42.463H210.51v-84.926H27.664
		C11.384,247.206,0,263.453,0,282.416z"/>
	<path id="XMLID_69_" d="M454.307,282.416c0-18.963-11.384-35.21-27.662-42.463H243.816v84.926h182.828
		C442.923,317.624,454.307,301.377,454.307,282.416z"/>
</g>
<g>
</g>
<g>
</g>
<g>
</g>
<g>
</g>
<g>
</g>
<g>
</g>
<g>
</g>
<g>
</g>
<g>
</g>
<g>
</g>
<g>
</g>
<g>
</g>
<g>
</g>
<g>
</g>
<g>
</g>
</svg>
