<?xml version="1.0" encoding="iso-8859-1"?>
<!-- Generator: Adobe Illustrator 18.0.0, SVG Export Plug-In . SVG Version: 6.00 Build 0)  -->
<!DOCTYPE svg PUBLIC "-//W3C//DTD SVG 1.1//EN" "http://www.w3.org/Graphics/SVG/1.1/DTD/svg11.dtd">
<svg version="1.1" id="Capa_1" xmlns="http://www.w3.org/2000/svg" xmlns:xlink="http://www.w3.org/1999/xlink" x="0px" y="0px"
	 viewBox="0 0 481.724 481.724" style="enable-background:new 0 0 481.724 481.724;" xml:space="preserve">
<path id="XMLID_222_" d="M463.036,76.907l-37.808-27.792c-7.346-5.394-16.22-8.306-25.336-8.306h-141.17V16.125
	C258.722,7.221,251.502,0,242.598,0c-8.904,0-16.125,7.221-16.125,16.125v24.684h-80.197c-8.393,0-15.196,6.801-15.196,15.202
	v49.586c0,8.401,6.803,15.204,15.196,15.204h80.197v30.808H81.832c-9.117,0-17.99,2.914-25.337,8.308l-37.808,27.792
	c-1.245,0.906-1.977,2.354-1.977,3.897c0,1.543,0.732,2.993,1.977,3.897l37.808,27.792c7.347,5.394,16.22,8.308,25.337,8.308
	h144.641v42.893H89.162c-8.393,0-15.196,6.803-15.196,15.196v49.603c0,8.393,6.803,15.196,15.196,15.196h137.311v63.467h-13.549
	c-26.825,0-48.571,21.746-48.571,48.571c0,8.393,6.801,15.195,15.194,15.195h126.101c8.393,0,15.194-6.803,15.194-15.195
	c0-26.825-21.746-48.571-48.563-48.571h-13.558v-63.467h84.056c9.117,0,17.99-2.914,25.337-8.308l37.807-27.792
	c1.245-0.904,1.977-2.354,1.977-3.898c0-1.543-0.732-2.991-1.977-3.897l-37.807-27.793c-7.347-5.394-16.22-8.308-25.337-8.308
	h-84.056v-42.893h76.718c8.401,0,15.204-6.803,15.204-15.196v-49.603c0-8.393-6.803-15.196-15.204-15.196h-76.718v-30.808h141.17
	c9.117,0,17.99-2.914,25.336-8.306l37.808-27.794c1.243-0.913,1.977-2.354,1.977-3.897C465.013,79.261,464.28,77.821,463.036,76.907
	z"/>
<g>
</g>
<g>
</g>
<g>
</g>
<g>
</g>
<g>
</g>
<g>
</g>
<g>
</g>
<g>
</g>
<g>
</g>
<g>
</g>
<g>
</g>
<g>
</g>
<g>
</g>
<g>
</g>
<g>
</g>
</svg>
