<?xml version="1.0" encoding="iso-8859-1"?>
<!-- Generator: Adobe Illustrator 18.0.0, SVG Export Plug-In . SVG Version: 6.00 Build 0)  -->
<!DOCTYPE svg PUBLIC "-//W3C//DTD SVG 1.1//EN" "http://www.w3.org/Graphics/SVG/1.1/DTD/svg11.dtd">
<svg version="1.1" id="Capa_1" xmlns="http://www.w3.org/2000/svg" xmlns:xlink="http://www.w3.org/1999/xlink" x="0px" y="0px"
	 viewBox="0 0 479.626 479.626" style="enable-background:new 0 0 479.626 479.626;" xml:space="preserve">
<g id="XMLID_152_">
	<path id="XMLID_156_" d="M422.313,426.262c11.672-7.093,19.551-19.808,19.551-34.463V229.823c0-49.604-40.208-89.813-89.81-89.813
		h-70.36V97.616c29.316-5.786,57.645-16.307,83.724-31.248l64.304-36.816c7.578-4.342,10.205-14.006,5.863-21.593
		c-4.335-7.569-13.999-10.212-21.592-5.863l-64.302,36.818c-36.88,21.12-78.842,32.283-121.346,32.283H50.515
		c-8.736,0-15.821,7.084-15.821,15.82s7.085,15.821,15.821,15.821h177.829c7.262,0,14.494-0.387,21.708-0.957v38.129h-70.344
		c-49.602,0-89.81,40.209-89.81,89.813V391.8c0,14.655,7.878,27.37,19.551,34.463c-12.816,2.055-22.635,13.069-22.635,26.465
		c0,14.856,12.044,26.898,26.898,26.898h304.32c14.854,0,26.898-12.042,26.898-26.898
		C444.932,439.34,435.122,428.324,422.313,426.262z M345.147,187.922c22.327,0,40.425,18.101,40.425,40.425v126.637
		c0,8.931-7.246,16.177-16.175,16.177h-87.703V187.922H345.147z M146.174,228.346c0-22.324,18.099-40.425,40.425-40.425h63.453
		V371.16h-87.703c-8.929,0-16.175-7.246-16.175-16.177V228.346z"/>
	<path id="XMLID_155_" d="M89.032,53.313c13.634,0,24.681-11.047,24.681-24.681c0-13.628-11.046-24.675-24.681-24.675
		c-13.628,0-24.674,11.047-24.674,24.675C64.358,42.266,75.404,53.313,89.032,53.313z"/>
	<path id="XMLID_154_" d="M168.137,53.313c13.634,0,24.68-11.047,24.68-24.681c0-13.628-11.046-24.675-24.68-24.675
		c-13.628,0-24.674,11.047-24.674,24.675C143.463,42.266,154.508,53.313,168.137,53.313z"/>
	<path id="XMLID_153_" d="M247.241,53.313c13.635,0,24.681-11.047,24.681-24.681c0-13.628-11.046-24.675-24.681-24.675
		c-13.628,0-24.674,11.047-24.674,24.675C222.567,42.266,233.613,53.313,247.241,53.313z"/>
</g>
<g>
</g>
<g>
</g>
<g>
</g>
<g>
</g>
<g>
</g>
<g>
</g>
<g>
</g>
<g>
</g>
<g>
</g>
<g>
</g>
<g>
</g>
<g>
</g>
<g>
</g>
<g>
</g>
<g>
</g>
</svg>
