<?xml version="1.0" encoding="iso-8859-1"?>
<!-- Generator: Adobe Illustrator 18.0.0, SVG Export Plug-In . SVG Version: 6.00 Build 0)  -->
<!DOCTYPE svg PUBLIC "-//W3C//DTD SVG 1.1//EN" "http://www.w3.org/Graphics/SVG/1.1/DTD/svg11.dtd">
<svg version="1.1" id="Capa_1" xmlns="http://www.w3.org/2000/svg" xmlns:xlink="http://www.w3.org/1999/xlink" x="0px" y="0px"
	 viewBox="0 0 479.914 479.914" style="enable-background:new 0 0 479.914 479.914;" xml:space="preserve">
<g id="XMLID_272_">
	<path id="XMLID_275_" d="M322.556,235.683v-45.56c9.196,0,16.653-7.458,16.653-16.653c0-9.196-7.457-16.653-16.653-16.653h-22.898
		v-36.381c0-5.919-4.798-10.717-10.71-10.717h-9.416v-39.34c0-11.262,9.165-20.418,20.427-20.418h26.76
		c0,9.197,7.457,16.653,16.653,16.653c9.196,0,16.653-7.457,16.653-16.653V16.653C360.026,7.456,352.569,0,343.373,0
		c-9.196,0-16.653,7.456-16.653,16.653h-26.76c-29.631,0-53.734,24.102-53.734,53.725v39.34h-9.4
		c-5.919,0-10.717,4.797-10.717,10.717v36.381h-22.898c-9.198,0-16.653,7.457-16.653,16.653c0,9.196,7.456,16.653,16.653,16.653
		v58.913c-36.641,10.075-71.688,24.955-98.017,42.894c-14.971-36.657-42.448-61.313-73.957-61.313c-0.015,0-0.04,0-0.057,0
		c-10.71,0.008-20.467,6.148-25.11,15.8c-4.643,9.644-3.342,21.085,3.326,29.468c15.328,19.256,25.021,47.659,25.021,79.38
		s-9.693,60.125-25.021,79.379c-6.668,8.375-7.952,19.824-3.309,29.468c4.643,9.644,14.392,15.792,25.093,15.801
		c0.017,0,0.042,0,0.057,0c31.51,0,58.986-24.655,73.957-61.312c50.513,34.404,133.665,57.4,196.546,57.4
		c96.569,0,174.86-67.621,174.86-120.736C476.6,306.03,409.295,244.433,322.556,235.683z M205.374,409.82
		c-30.079,0-54.546-24.469-54.546-54.546c0-30.08,24.467-54.555,54.546-54.555c30.078,0,54.555,24.475,54.555,54.555
		C259.928,385.352,235.451,409.82,205.374,409.82z M358.896,409.82c-30.078,0-54.546-24.469-54.546-54.546
		c0-30.08,24.469-54.555,54.546-54.555c30.079,0,54.555,24.475,54.555,54.555C413.45,385.352,388.975,409.82,358.896,409.82z"/>
	<path id="XMLID_274_" d="M358.896,325.699c-16.304,0-29.566,13.271-29.566,29.575c0,16.304,13.263,29.566,29.566,29.566
		s29.575-13.263,29.575-29.566C388.47,338.97,375.199,325.699,358.896,325.699z"/>
	<path id="XMLID_273_" d="M205.374,325.699c-16.304,0-29.566,13.271-29.566,29.575c0,16.304,13.263,29.566,29.566,29.566
		s29.575-13.263,29.575-29.566C234.948,338.97,221.677,325.699,205.374,325.699z"/>
</g>
<g>
</g>
<g>
</g>
<g>
</g>
<g>
</g>
<g>
</g>
<g>
</g>
<g>
</g>
<g>
</g>
<g>
</g>
<g>
</g>
<g>
</g>
<g>
</g>
<g>
</g>
<g>
</g>
<g>
</g>
</svg>
