<?xml version="1.0" encoding="iso-8859-1"?>
<!-- Generator: Adobe Illustrator 18.0.0, SVG Export Plug-In . SVG Version: 6.00 Build 0)  -->
<!DOCTYPE svg PUBLIC "-//W3C//DTD SVG 1.1//EN" "http://www.w3.org/Graphics/SVG/1.1/DTD/svg11.dtd">
<svg version="1.1" id="Capa_1" xmlns="http://www.w3.org/2000/svg" xmlns:xlink="http://www.w3.org/1999/xlink" x="0px" y="0px"
	 viewBox="0 0 466.001 466.001" style="enable-background:new 0 0 466.001 466.001;" xml:space="preserve">
<g id="XMLID_166_">
	<path id="XMLID_170_" d="M439.961,335.329l-25.259,20.929c-10.756,8.916-24.367,13.821-38.336,13.821H231.575
		c-8.776,0-15.893,7.116-15.893,15.892c0,8.778,7.117,15.894,15.893,15.894h144.792c21.355,0,42.177-7.505,58.62-21.132
		l25.261-20.93c6.759-5.602,7.699-15.621,2.095-22.381C456.756,330.671,446.729,329.717,439.961,335.329z"/>
	<path id="XMLID_167_" d="M281.388,339.62c72.015,0,130.404-42.877,130.404-95.763c0-48.936-50.007-89.213-114.511-94.979v-24.359
		h152.823c8.776,0,15.893-7.115,15.893-15.894c0-8.775-7.117-15.893-15.893-15.893H297.281V80.03
		c0-8.776-7.117-15.894-15.893-15.894c-8.778,0-15.893,7.117-15.893,15.894v12.703H112.664c-8.777,0-15.894,7.117-15.894,15.893
		c0,8.778,7.116,15.894,15.894,15.894h152.831v24.359c-43.808,3.919-80.87,23.77-100.177,51.429L55.253,213.25l-18.726-46.437
		c-2.895-7.163-9.848-11.858-17.577-11.858C8.482,154.955,0,163.438,0,173.905v66.375c0,9.568,7.139,17.64,16.638,18.803
		l142.325,17.484C177.182,313.319,225.041,339.62,281.388,339.62z M389.636,236.5c0.442,2.483-0.24,5.036-1.855,6.961
		c-1.621,1.933-4.011,3.05-6.533,3.05h-87.366c-4.711,0-8.521-3.81-8.521-8.52v-59.91c0-2.351,0.978-4.602,2.692-6.208
		c1.715-1.613,4.02-2.444,6.364-2.297C343.733,172.672,383.334,200.748,389.636,236.5z"/>
</g>
<g>
</g>
<g>
</g>
<g>
</g>
<g>
</g>
<g>
</g>
<g>
</g>
<g>
</g>
<g>
</g>
<g>
</g>
<g>
</g>
<g>
</g>
<g>
</g>
<g>
</g>
<g>
</g>
<g>
</g>
</svg>
