<?xml version="1.0" encoding="iso-8859-1"?>
<!-- Generator: Adobe Illustrator 18.0.0, SVG Export Plug-In . SVG Version: 6.00 Build 0)  -->
<!DOCTYPE svg PUBLIC "-//W3C//DTD SVG 1.1//EN" "http://www.w3.org/Graphics/SVG/1.1/DTD/svg11.dtd">
<svg version="1.1" id="Capa_1" xmlns="http://www.w3.org/2000/svg" xmlns:xlink="http://www.w3.org/1999/xlink" x="0px" y="0px"
	 viewBox="0 0 480.487 480.487" style="enable-background:new 0 0 480.487 480.487;" xml:space="preserve">
<path id="XMLID_125_" d="M470.651,155.635h-3.279V145.07c0-18.479-15.036-33.516-33.516-33.516h-21.719
	c-8.165-40.506-43.95-71.018-86.863-71.018H155.205c-42.914,0-78.697,30.512-86.862,71.018H46.631
	c-18.48,0-33.516,15.036-33.516,33.516v10.566H9.836c-5.436,0-9.836,4.4-9.836,9.836v69.717c0,5.437,4.4,9.836,9.836,9.836h28.003
	c5.434,0,9.836-4.399,9.836-9.836v-69.717c0-5.436-4.401-9.836-9.836-9.836h-3.278V145.07c0-6.651,5.42-12.072,12.07-12.072h19.947
	v209.094c0,22.032,17.86,39.894,39.894,39.894h7.264v20.754c0,20.551,16.66,37.212,37.211,37.212s37.211-16.661,37.211-37.212
	v-20.754h104.174v20.754c0,20.551,16.66,37.212,37.211,37.212c20.551,0,37.211-16.661,37.211-37.212v-20.754h7.255
	c22.033,0,39.894-17.861,39.894-39.894V132.997h19.955c6.652,0,12.072,5.421,12.072,12.072v10.566h-3.279
	c-5.436,0-9.836,4.4-9.836,9.836v69.717c0,5.437,4.4,9.836,9.836,9.836h28.001c5.436,0,9.836-4.399,9.836-9.836v-69.717
	C480.487,160.035,476.087,155.635,470.651,155.635z M150.93,356.265c-15.398,0-27.9-12.488-27.9-27.9
	c0-15.413,12.502-27.901,27.9-27.901c15.414,0,27.9,12.488,27.9,27.901C178.831,343.777,166.344,356.265,150.93,356.265z
	 M138.082,268.633c-8.816,0-15.963-7.145-15.963-15.961V127.704c0-22.033,17.862-39.894,39.893-39.894h63.927v180.822H138.082z
	 M329.542,356.265c-15.397,0-27.886-12.488-27.886-27.9c0-15.413,12.488-27.901,27.886-27.901c15.412,0,27.908,12.488,27.908,27.901
	C357.45,343.777,344.954,356.265,329.542,356.265z M358.359,252.672c0,8.816-7.145,15.961-15.963,15.961h-87.857V87.811h63.927
	c22.034,0,39.894,17.86,39.894,39.894V252.672z"/>
<g>
</g>
<g>
</g>
<g>
</g>
<g>
</g>
<g>
</g>
<g>
</g>
<g>
</g>
<g>
</g>
<g>
</g>
<g>
</g>
<g>
</g>
<g>
</g>
<g>
</g>
<g>
</g>
<g>
</g>
</svg>
