<?xml version="1.0" encoding="iso-8859-1"?>
<!-- Generator: Adobe Illustrator 18.0.0, SVG Export Plug-In . SVG Version: 6.00 Build 0)  -->
<!DOCTYPE svg PUBLIC "-//W3C//DTD SVG 1.1//EN" "http://www.w3.org/Graphics/SVG/1.1/DTD/svg11.dtd">
<svg version="1.1" id="Capa_1" xmlns="http://www.w3.org/2000/svg" xmlns:xlink="http://www.w3.org/1999/xlink" x="0px" y="0px"
	 viewBox="0 0 477.341 477.341" style="enable-background:new 0 0 477.341 477.341;" xml:space="preserve">
<g id="XMLID_284_">
	<path id="XMLID_288_" d="M387.201,247.605c0-18.087-14.656-32.745-32.744-32.745h-25.703v-68.197c0-8.368-6.782-15.15-15.152-15.15
		h-51.961c-8.369,0-15.152,6.783-15.152,15.15v68.197h-24.893V75.226c0-8.369-6.783-15.152-15.151-15.152h-51.961
		c-8.369,0-15.152,6.783-15.152,15.152V214.86h-0.809c-18.087,0-32.744,14.658-32.744,32.745v2.489l281.422,31.676V247.605z"/>
	<path id="XMLID_287_" d="M476.137,328.817c1.869-4.404,1.547-9.436-0.863-13.565c-2.41-4.129-6.634-6.877-11.391-7.419
		L16.85,257.512c-0.566-0.063-1.13-0.094-1.696-0.094c-4.498,0-8.792,2.002-11.689,5.511c-3.266,3.957-4.302,9.287-2.771,14.178
		l38.197,121.888c3.407,10.873,13.481,18.273,24.875,18.273h357.588c10.463,0,19.912-6.255,23.998-15.887L476.137,328.817z"/>
</g>
<g>
</g>
<g>
</g>
<g>
</g>
<g>
</g>
<g>
</g>
<g>
</g>
<g>
</g>
<g>
</g>
<g>
</g>
<g>
</g>
<g>
</g>
<g>
</g>
<g>
</g>
<g>
</g>
<g>
</g>
</svg>
