<?xml version="1.0" encoding="UTF-8" standalone="no"?>
<svg
   xmlns:dc="http://purl.org/dc/elements/1.1/"
   xmlns:cc="http://creativecommons.org/ns#"
   xmlns:rdf="http://www.w3.org/1999/02/22-rdf-syntax-ns#"
   xmlns:svg="http://www.w3.org/2000/svg"
   xmlns="http://www.w3.org/2000/svg"
   height="512px"
   width="512px"
   xml:space="preserve"
   style="enable-background:new 0 0 401.532 401.532;"
   viewBox="0 0 401.532 401.532"
   y="0px"
   x="0px"
   id="Capa_1"
   version="1.1"><metadata
     id="metadata3404"><rdf:RDF><cc:Work
         rdf:about=""><dc:format>image/svg+xml</dc:format><dc:type
           rdf:resource="http://purl.org/dc/dcmitype/StillImage" /><dc:title></dc:title></cc:Work></rdf:RDF></metadata><defs
     id="defs3402" /><g
     id="g3361"><g
       id="Layer_1_31_"><path
         id="path3358"
         d="m 93.721753,389.41979 c -1.32525,-0.48444 -3.99851,-2.32532 -5.94054,-4.09081 l -3.53099,-3.20999 -1.00671,-4.58355 -1.00671,-4.58355 25.018807,-57.10065 c 29.20426,-66.65313 27.14731,-58.23138 16.08369,-65.8512 l -8.93512,-6.15385 -9.35775,-10.21232 -9.357757,-10.21234 -5.88703,-11.20307 c -3.23789,-6.16169 -7.28493,-15.26611 -8.99347,-20.23204 l -3.10643,-9.02901 -1.67548,-13.48315 -1.67549,-13.48317 1.91608,-3.59713 c 1.05382,-1.97842 3.06299,-4.47769 4.46479,-5.55398 l 2.54876,-1.95686 106.494437,-0.0511 106.49448,-0.051 3.94288,3.94289 3.94289,3.94288 -0.0279,8.50643 -0.0279,8.5064 -2.37215,11.19845 -2.37212,11.19844 -5.54813,11.68278 c -9.66191,20.34546 -22.93676,36.32721 -39.44892,47.49312 -3.97575,2.6885 -7.43624,5.0389 -7.69,5.22311 -0.25377,0.18422 2.45696,6.96669 6.02386,15.07216 3.56686,8.10549 6.48523,15.35974 6.48523,16.12055 l 0,1.38332 -7.44938,2.53825 -7.44937,2.53825 -5.5374,4.22359 -5.53738,4.22357 -1.28958,-1.39015 c -0.70923,-0.76459 -4.35402,-8.41169 -8.09952,-16.99356 l -6.81,-15.60338 -7.42659,1.14613 c -8.58699,1.32522 -29.90403,1.50584 -40.2255,0.34084 l -7.09709,-0.80107 -13.12606,29.71769 -13.12606,29.7177 39.4995,0.42832 39.4995,0.42832 0,16.0369 0,16.03686 -46.7451,0 -46.74509,0 -4.44379,10.45582 -4.44377,10.4558 -4.75544,4.00144 -4.75543,4.00146 -3.491077,-0.12667 c -1.92008,-0.0698 -4.57536,-0.52327 -5.90061,-1.00773 z m 70.992447,-151.32004 -8.22072,-7.88197 -6.32168,-9.78088 -6.3217,-9.78087 -4.11171,-11.65325 c -2.26145,-6.40929 -4.91721,-15.80971 -5.90173,-20.88984 l -1.79002,-9.23657 -15.94971,0 -15.94974,0 0,2.24031 c 0,1.23219 1.41947,6.83438 3.15438,12.44931 l 3.15438,10.20898 5.77864,9.63817 5.77861,9.63817 6.72902,6.92002 c 3.70096,3.806 10.62327,9.51269 15.38292,12.68154 l 8.65393,5.76153 10.62242,3.74978 c 14.47155,5.10853 14.69868,4.93477 5.31271,-4.06443 z m 88.82882,147.07109 -8.0435,-3.74567 -5.17895,-5.89849 c -2.84841,-3.24419 -6.37188,-8.20538 -7.82991,-11.0249 l -2.65097,-5.12641 -0.77094,-9.71074 -0.77093,-9.71076 1.82921,-6.7595 1.82926,-6.7595 5.23241,-6.86014 5.23242,-6.86017 7.54419,-4.66421 7.54418,-4.66422 11.28037,-0.80709 11.28036,-0.80711 7.53074,2.87601 7.53071,2.876 6.73931,6.21208 6.73929,6.21206 3.52844,8.20207 3.52843,8.20207 0.0629,8.22628 0.0629,8.22625 -2.08584,6.9221 -2.08582,6.9221 -6.48309,7.36516 -6.48309,7.36518 -8.09302,3.76861 -8.09301,3.7686 -10.44135,0 -10.44135,0 -8.0435,-3.74566 z m 29.72938,-23.39097 4.01589,-2.75701 2.89843,-5.82596 2.8984,-5.82598 -1.72398,-6.40239 -1.72397,-6.40241 -4.912,-4.13317 -4.912,-4.13317 -6.19762,0 -6.19763,0 -4.11973,1.56633 -4.11975,1.56632 -3.20745,5.26072 -3.20746,5.26072 -0.007,6.70378 -0.007,6.7038 4.1491,4.93091 4.1491,4.93092 5.08748,1.43315 5.08748,1.43317 4.01591,-0.77637 c 2.20875,-0.42701 5.82306,-2.01701 8.03181,-3.53336 z M 124.20807,119.59757 c -2.85254,-3.24887 -6.1803,-8.28569 -7.39504,-11.19293 l -2.20859,-5.2859 0,-7.331823 0,-7.33183 2.46752,-5.90561 c 1.35716,-3.2481 5.74876,-10.70785 9.75911,-16.57722 l 7.29158,-10.67158 0.8352,-6.26184 0.83521,-6.26185 -2.5625,-9.870041 c -1.40938,-5.428525 -2.5625,-10.669272 -2.5625,-11.64612 l 0,-1.776084 2.356,0 2.356,0 5.86142,5.861421 5.86141,5.86142 2.99183,6.587884 2.99184,6.58788 0.0354,7.6818 0.0354,7.68182 -2.26863,5.4296 c -1.24776,2.98627 -5.93068,10.64417 -10.40653,17.01752 l -8.13789,11.58794 -1.02487,5.46297 -1.02485,5.462993 2.39924,9.52455 2.39925,9.52455 -0.87376,0.87376 c -0.48056,0.48056 -1.7627,0.87375 -2.84916,0.87375 l -1.97541,0 -5.18644,-5.90703 z m 56.22265,0 c -2.85254,-3.24887 -6.18032,-8.28569 -7.39504,-11.19293 l -2.20859,-5.2859 0,-7.331823 0,-7.33183 2.46755,-5.90561 c 1.35712,-3.2481 5.74871,-10.70785 9.75908,-16.57722 l 7.29158,-10.67158 0.8352,-6.26184 0.83521,-6.26185 -2.56251,-9.870041 c -1.40936,-5.428525 -2.56249,-10.669272 -2.56249,-11.64612 l 0,-1.776084 2.356,0 2.35599,0 5.86142,5.861421 5.86143,5.86142 2.99184,6.587884 2.99182,6.58788 0.0354,6.43605 c 0.0193,3.53983 -0.67984,8.92954 -1.55387,11.97713 l -1.58919,5.54109 -8.8943,12.96031 -8.89431,12.96032 -0.90989,5.60691 -0.90987,5.606913 2.38201,9.12171 2.38202,9.12172 -0.89455,0.89455 c -0.49208,0.492 -1.78357,0.89455 -2.87004,0.89455 l -1.97541,0 -5.18644,-5.90703 z m 56.22266,0 c -2.85254,-3.24887 -6.18032,-8.28569 -7.39506,-11.19293 l -2.20857,-5.2859 0,-7.331823 0,-7.33183 2.46385,-5.97226 c 1.35512,-3.28473 5.7492,-10.76302 9.76461,-16.61838 l 7.30079,-10.64611 0.82966,-6.22068 0.82969,-6.22067 -2.5625,-9.870041 c -1.40938,-5.428525 -2.5625,-10.669272 -2.5625,-11.64612 l 0,-1.776084 2.35602,0 2.35596,0 5.86143,5.861421 5.86144,5.86142 2.99184,6.587884 2.99183,6.58788 0.0354,6.43605 c 0.0193,3.53983 -0.67985,8.92954 -1.55389,11.97713 l -1.58918,5.54109 -8.8943,12.96031 -8.89431,12.96032 -0.90989,5.60691 -0.90985,5.606913 2.38199,9.12171 2.38202,9.12172 -0.89455,0.89455 c -0.49208,0.492 -1.78356,0.89455 -2.87002,0.89455 l -1.97543,0 -5.18642,-5.90703 z"
         style="fill:#006df0;fill-opacity:1" /></g></g><g
     id="g3370" /><g
     id="g3372" /><g
     id="g3374" /><g
     id="g3376" /><g
     id="g3378" /><g
     id="g3380" /><g
     id="g3382" /><g
     id="g3384" /><g
     id="g3386" /><g
     id="g3388" /><g
     id="g3390" /><g
     id="g3392" /><g
     id="g3394" /><g
     id="g3396" /><g
     id="g3398" /></svg>