<?xml version="1.0" encoding="UTF-8" standalone="no"?>
<svg
   xmlns:dc="http://purl.org/dc/elements/1.1/"
   xmlns:cc="http://creativecommons.org/ns#"
   xmlns:rdf="http://www.w3.org/1999/02/22-rdf-syntax-ns#"
   xmlns:svg="http://www.w3.org/2000/svg"
   xmlns="http://www.w3.org/2000/svg"
   height="512px"
   width="512px"
   xml:space="preserve"
   style="enable-background:new 0 0 25.944 25.944;"
   viewBox="0 0 25.944 25.944"
   y="0px"
   x="0px"
   id="Capa_1"
   version="1.1"><metadata
     id="metadata4361"><rdf:RDF><cc:Work
         rdf:about=""><dc:format>image/svg+xml</dc:format><dc:type
           rdf:resource="http://purl.org/dc/dcmitype/StillImage" /><dc:title></dc:title></cc:Work></rdf:RDF></metadata><defs
     id="defs4359" /><g
     id="g4327" /><g
     id="g4329" /><g
     id="g4331" /><g
     id="g4333" /><g
     id="g4335" /><g
     id="g4337" /><g
     id="g4339" /><g
     id="g4341" /><g
     id="g4343" /><g
     id="g4345" /><g
     id="g4347" /><g
     id="g4349" /><g
     id="g4351" /><g
     id="g4353" /><g
     id="g4355" /><path
     id="path6338"
     d="m 4.1416408,26.065027 c -0.084957,-0.09735 -0.1408838,-0.175372 -0.124282,-0.173391 0.029507,0.0035 0.3187744,0.350383 0.2922032,0.350383 -0.0074,0 -0.082964,-0.07965 -0.1679212,-0.176992 z"
     style="fill:#000000" /><g
     transform="matrix(0.07206667,0,0,0.07206667,-0.98939057,-12.092543)"
     id="g6350" /><g
     transform="matrix(0.07206667,0,0,0.07206667,-0.98939057,-12.092543)"
     id="g6352" /><g
     transform="matrix(0.07206667,0,0,0.07206667,-0.98939057,-12.092543)"
     id="g6354" /><g
     transform="matrix(0.07206667,0,0,0.07206667,-0.98939057,-12.092543)"
     id="g6356" /><g
     transform="matrix(0.07206667,0,0,0.07206667,-0.98939057,-12.092543)"
     id="g6358" /><g
     transform="matrix(0.07206667,0,0,0.07206667,-0.98939057,-12.092543)"
     id="g6360" /><g
     transform="matrix(0.07206667,0,0,0.07206667,-0.98939057,-12.092543)"
     id="g6362" /><g
     transform="matrix(0.07206667,0,0,0.07206667,-0.98939057,-12.092543)"
     id="g6364" /><g
     transform="matrix(0.07206667,0,0,0.07206667,-0.98939057,-12.092543)"
     id="g6366" /><g
     transform="matrix(0.07206667,0,0,0.07206667,-0.98939057,-12.092543)"
     id="g6368" /><g
     transform="matrix(0.07206667,0,0,0.07206667,-0.98939057,-12.092543)"
     id="g6370" /><g
     transform="matrix(0.07206667,0,0,0.07206667,-0.98939057,-12.092543)"
     id="g6372" /><g
     transform="matrix(0.07206667,0,0,0.07206667,-0.98939057,-12.092543)"
     id="g6374" /><g
     transform="matrix(0.07206667,0,0,0.07206667,-0.98939057,-12.092543)"
     id="g6376" /><g
     transform="matrix(0.07206667,0,0,0.07206667,-0.98939057,-12.092543)"
     id="g6378" /><g
     transform="matrix(0.23692644,0,0,0.23692644,7.0983231,1.9789848)"
     id="g6565"><g
       id="g6519"><g
         id="g6521"><circle
           style="fill:#006df0"
           cx="24.716999"
           cy="13.693"
           r="5.23"
           id="circle6523" /><path
           style="fill:#006df0"
           d="M 53.63,46.605 C 50.921,41.853 46.859,38.611 41.872,36.568 41.564,30.383 38.557,24.561 33.732,20.632 c -2.45,-1.996 -5.831,-2.375 -8.219,0.044 -0.147,0.148 -0.282,0.309 -0.41,0.475 C 20.181,18.347 14.761,16.247 9.757,14.549 5.961,13.261 4.345,19.25 8.109,20.527 c 5.665,1.921 11.892,4.411 17.076,8.021 0.118,0.12 0.239,0.238 0.372,0.347 2.971,2.418 4.816,5.292 4.714,9.184 -0.017,0.635 0.056,1.211 0.194,1.738 -0.323,2.008 -0.792,3.994 -1.384,5.941 -1.833,-1.894 -3.54,-3.896 -4.959,-6.148 -2.658,-4.213 -9.365,-0.327 -6.691,3.91 2.849,4.519 6.565,8.263 10.473,11.86 1.642,1.513 5.065,1.63 6.085,-0.784 1.532,-3.627 2.754,-7.281 3.578,-11.049 0.25,-0.062 0.495,-0.145 0.736,-0.234 0.262,0.178 0.551,0.332 0.875,0.457 2.498,0.955 4.568,2.482 6.199,4.476 -1.785,1.862 -3.742,3.521 -6.092,4.716 -4.453,2.268 -0.531,8.952 3.911,6.689 3.878,-1.973 7.054,-5.045 9.824,-8.354 1.146,-1.359 1.53,-3.074 0.61,-4.692 z"
           id="path6525" /><path
           style="fill:#006df0"
           d="m 21.456,7.669 c 0.73,-0.27 1.516,-0.811 2.339,-0.811 1.853,0 3.531,0.748 4.755,1.955 -0.797,-2.208 -1.572,-4.425 -2.297,-6.659 -1.227,-3.787 -7.213,-2.166 -5.978,1.648 0.378,1.165 0.782,2.709 1.181,3.867 z"
           id="path6527" /></g></g><g
       id="g6529" /><g
       id="g6531" /><g
       id="g6533" /><g
       id="g6535" /><g
       id="g6537" /><g
       id="g6539" /><g
       id="g6541" /><g
       id="g6543" /><g
       id="g6545" /><g
       id="g6547" /><g
       id="g6549" /><g
       id="g6551" /><g
       id="g6553" /><g
       id="g6555" /><g
       id="g6557" /></g><path
     d="m 3.2243554,1.8962718 c 0.1550696,0.00634 0.3103633,0.00494 0.4655341,0.00484 0.3217446,0.00403 0.643274,0.00811 0.9645121,0.027135 C 5.2614559,1.9890354 5.871196,2.0286758 6.469797,2.1503922 6.8437833,2.2298155 7.2227998,2.297197 7.5859696,2.4192608 7.9571107,2.5870056 7.6965002,2.8458449 7.5035802,3.0374222 7.259093,3.2571529 7.0079054,3.4691764 6.7629769,3.6884577 6.6358411,3.801831 6.5135796,3.919636 6.4032375,4.0494745 6.2418192,4.2602889 6.0711837,4.4637364 5.9064718,4.6720251 5.7291015,4.866269 5.5785062,5.0787121 5.4402277,5.3015512 5.3372209,5.4653369 5.2377521,5.6312427 5.1372839,5.7965835 5.0371035,5.9753741 4.9574275,6.1656034 4.8853219,6.3572464 4.8264886,6.5209733 4.7643026,6.6831117 4.6980837,6.8439209 4.6363142,6.9971815 4.6386357,7.1638519 4.6197191,7.3253741 4.5598473,7.5536306 4.514333,7.782825 4.4886362,8.0174794 4.4479729,8.2702332 4.4263938,8.5252743 4.3950387,8.7791374 4.353363,9.0235465 4.32871,9.2699203 4.3178737,9.5174858 c -0.010569,0.2408707 -0.00694,0.4819928 -0.00767,0.7229992 7.951e-4,0.333115 -0.062438,0.662005 -0.1039077,0.991472 -0.040511,0.370349 -0.050251,0.743275 -0.051561,1.115565 -0.00163,0.253363 -0.00318,0.506754 -0.00165,0.760122 -0.00308,0.273362 0.051568,0.543789 0.1033417,0.811228 0.104312,0.407729 0.2225183,0.812154 0.3478352,1.213911 0.1582921,0.462234 0.3438668,0.915038 0.5349142,1.364666 0.1638673,0.416305 0.334519,0.829812 0.4962986,1.246931 0.1914383,0.468927 0.4173193,0.923669 0.6508264,1.372961 0.1928987,0.403647 0.4149418,0.792196 0.611385,1.194124 0.08701,0.193617 0.1227516,0.400756 0.1377424,0.610746 -0.00294,0.165804 0.025408,0.32869 0.045285,0.49266 0.020782,0.175926 0.029814,0.352927 0.030888,0.529987 -0.00187,0.187312 -0.057713,0.367444 -0.1302754,0.538348 -0.09078,0.140169 -0.1697974,0.282102 -0.2362186,0.435236 -0.088772,0.201575 -0.1768078,0.404242 -0.2845134,0.596561 -0.1071837,0.162235 -0.260419,0.290894 -0.4114003,0.411643 -0.4276686,0.314131 -0.8830932,0.603934 -1.3722393,0.809351 -0.096227,0.04809 -0.1923194,0.0966 -0.2909793,0.13967 0,0 0.8903702,-0.707817 0.8903702,-0.707817 l 0,0 c 0.097362,-0.0477 0.1952975,-0.09421 0.2925768,-0.142087 0.3492077,-0.184441 0.824029,-0.468683 -0.7798783,0.460729 -0.022139,0.01283 0.044058,-0.02615 0.064902,-0.04099 0.1510801,-0.107573 -0.023699,0.0014 0.1422453,-0.0978 0.1517809,-0.115369 0.2999156,-0.237445 0.4313904,-0.375275 0.1182448,-0.181205 0.207747,-0.380555 0.2847424,-0.582379 0.072863,-0.150628 0.1127693,-0.315708 0.2380823,-0.437481 0.080223,-0.153511 0.12938,-0.318812 0.1508948,-0.490929 -0.00446,-0.173272 -0.00577,-0.346922 -0.025279,-0.519376 -0.020448,-0.16616 -0.060308,-0.330129 -0.050725,-0.498577 C 6.0184632,21.245039 5.997786,21.047016 5.9235958,20.860494 5.7557939,20.446619 5.5689003,20.041095 5.3680223,19.64219 5.132387,19.190438 4.8656789,18.751619 4.6741364,18.279286 4.516549,17.861112 4.3717286,17.438139 4.1953105,17.027186 4.0027712,16.574438 3.8241355,16.115992 3.649816,15.656069 3.5235679,15.252249 3.4062915,14.845783 3.275269,14.443511 c -0.056325,-0.2716 -0.1235463,-0.547623 -0.1230267,-0.82577 9.521e-4,-0.25506 -0.00214,-0.510174 0.00542,-0.765173 0.01652,-0.378819 0.041342,-0.757035 0.070543,-1.13509 0.027152,-0.321805 0.082079,-0.641905 0.077972,-0.965511 -3.547e-4,-0.243218 0.00364,-0.486456 0.00991,-0.729588 0.0111,-0.2501911 0.023219,-0.5004589 0.070018,-0.7471539 C 3.4274243,9.0239894 3.4367682,8.7678299 3.4841048,8.5170756 3.5040781,8.2842516 3.532533,8.0507348 3.6033396,7.8270742 3.6266535,7.6600486 3.6161385,7.4880211 3.6627524,7.324573 3.7219911,7.1587123 3.8054897,7.0024311 3.8644919,6.8359816 3.9256852,6.6350129 4.0132019,6.4431839 4.1054032,6.2547545 4.2010858,6.0881058 4.2998569,5.9234137 4.4020176,5.7607119 4.5431917,5.5262126 4.704763,5.3049463 4.8938075,5.1061402 5.0490225,4.904343 5.2013661,4.7004129 5.3572085,4.4992918 5.4591197,4.3507613 5.5902545,4.2298612 5.7234744,4.1100116 5.9798634,3.897204 6.2275308,3.6733854 6.4808633,3.4569373 6.5125458,3.4292632 6.7959136,3.1805668 6.7766623,3.1277226 6.7651086,3.0960073 6.6681267,3.0578649 6.6534091,3.0507454 6.3077585,2.9292081 5.9552972,2.8291721 5.5950967,2.7603618 4.9953883,2.6470202 4.3868326,2.5828966 3.7768744,2.5607281 c -0.3356223,-0.00582 -0.6710054,0.004 -1.0066216,0.00854 -0.1596151,-1.114e-4 -0.3193317,-0.0013 -0.4788559,0.00484 0,0 0.9329585,-0.677834 0.9329585,-0.677834 z"
     id="path6601"
     style="fill:#006df0;fill-opacity:1;stroke:#006df0;stroke-width:1.01343749;stroke-linecap:round;stroke-linejoin:round;stroke-miterlimit:4;stroke-dasharray:none;stroke-opacity:1" /><path
     d="m 9.8498672,23.868307 c 0.5376728,-0.407614 1.0716768,-0.818131 1.5706348,-1.27293 0.176445,-0.157039 0.328072,-0.339279 0.498483,-0.502326 0.03874,-0.03706 0.0746,-0.07878 0.12041,-0.106631 0.358596,-0.217957 0.717226,-0.437264 1.090358,-0.629279 0.05086,-0.02617 0.113653,-0.01303 0.170479,-0.01955 0.07101,0.02033 0.144134,0.03435 0.21302,0.06099 0.148485,0.05743 0.326175,0.163204 0.463012,0.242228 0.191252,0.110448 0.36649,0.222732 0.537545,0.362058 0.190191,0.174211 0.37386,0.354765 0.545321,0.547447 0.02454,0.0094 0.04739,0.02941 0.07363,0.02812 0.03468,-0.0017 0.06473,-0.02519 0.09753,-0.03657 0.193758,-0.06718 0.380933,-0.149159 0.575445,-0.214941 0.207416,-0.06726 0.386783,-0.194921 0.594615,-0.258977 0.09451,-0.05467 0.205558,-0.0556 0.302805,-0.101667 0.04911,-0.02326 0.09588,-0.05125 0.144966,-0.07456 0.167403,-0.09468 0.338513,-0.181646 0.520654,-0.243984 0.184846,-0.06864 0.355595,-0.16864 0.538772,-0.241148 0.04072,0.01945 0.08688,0.03021 0.122164,0.05836 0.152783,0.121879 0.325456,0.38429 0.441341,0.540867 0.369732,0.499557 -0.05974,-0.08989 0.276047,0.37274 0.176368,0.23276 0.304619,0.49595 0.465685,0.738121 0.09127,0.133845 0.22551,0.228605 0.359508,0.31586 0.143477,0.06284 0.30236,0.09517 0.456941,0.121002 0.250709,0.03257 0.504047,0.03705 0.75652,0.03995 0.261052,0.0211 0.486957,-0.0834 0.705776,-0.21287 -1.521002,0.89023 -0.933176,0.57513 -0.635926,0.322757 0.08431,-0.07158 0.163058,-0.149812 0.242259,-0.226886 0.177059,-0.155119 0.335687,-0.328547 0.520694,-0.474389 0.165388,-0.126708 0.318942,-0.267498 0.469746,-0.410948 0.368877,-0.305416 0.797616,-0.805464 1.286851,-0.655071 0.18501,0.05687 0.38108,0.167888 0.558509,0.248033 0.184457,0.0789 0.376408,0.156179 0.535815,0.28148 0.06314,0.04963 0.119384,0.107458 0.179569,0.160632 0.119766,0.13295 0.22968,0.275038 0.34186,0.414954 0.06405,0.06642 0.03405,0.03348 0.09038,0.09848 0,0 -0.983813,0.58797 -0.983813,0.58797 l 0,0 c -0.04689,-0.06453 -0.01962,-0.02988 -0.08374,-0.102419 -0.107822,-0.135126 -0.209884,-0.274584 -0.322693,-0.405049 -0.198707,-0.182688 -0.418687,-0.329795 -0.671634,-0.42956 -0.09908,-0.04518 -0.267108,-0.125507 -0.370833,-0.157598 -0.05812,-0.01798 -0.117567,-0.03598 -0.178337,-0.03875 -0.04279,-0.0019 -0.161886,0.04841 -0.126081,0.02489 0.283621,-0.186299 0.584322,-0.345197 0.876483,-0.517795 -0.02935,0.01985 -0.0587,0.0397 -0.08805,0.05955 -0.150216,0.146433 -0.301439,0.292453 -0.466572,0.422245 -0.06046,0.04683 -0.126194,0.08679 -0.185082,0.13559 -0.120907,0.100187 -0.204125,0.241731 -0.341134,0.324316 -0.425238,0.463751 -0.943848,0.751091 -1.51925,1.039133 -0.236366,0.117784 -0.47319,0.196523 -0.741655,0.167986 -0.258785,-0.0052 -0.518209,-0.01043 -0.774765,-0.04851 -0.169491,-0.03044 -0.347172,-0.06028 -0.493705,-0.155752 -0.140464,-0.103184 -0.282383,-0.208475 -0.375707,-0.359163 -0.149632,-0.247329 -0.255162,-0.520314 -0.428203,-0.754657 -0.144111,-0.217397 -0.469589,-0.729724 -0.707711,-0.826949 -0.02509,-0.01024 -0.05412,0.003 -0.08118,0.0045 -0.177707,0.08152 -0.353465,0.166922 -0.537409,0.234181 -0.17928,0.07478 -0.348424,0.170303 -0.52232,0.256536 -0.147485,0.06879 -0.304913,0.107476 -0.455585,0.16869 -0.191114,0.07965 -0.373573,0.179969 -0.572592,0.240876 -0.20003,0.07348 -0.53225,0.256694 -0.745663,0.188279 -0.03583,-0.01149 -0.06261,-0.04176 -0.09392,-0.06263 -0.163759,-0.188693 -0.328667,-0.376721 -0.510638,-0.548354 -0.26087,-0.222163 -0.62662,-0.483534 -0.962749,-0.562566 -0.06545,-0.01539 -0.133966,-0.01157 -0.20095,-0.01736 -0.434541,0.128839 -0.297716,0.101894 0.652708,-0.43503 0.04895,-0.02765 -0.09191,0.06503 -0.134646,0.101548 -0.19152,0.163645 -0.351485,0.361502 -0.543088,0.525158 -0.286602,0.259108 -0.581375,0.509753 -0.882235,0.7523 -0.169207,0.136411 -0.355798,0.252162 -0.513973,0.401224 -0.03077,0.029 -0.0495,0.06857 -0.07426,0.10285 0,0 -1.0704388,0.41297 -1.0704388,0.41297 z"
     id="path6605"
     style="fill:#006df0;fill-opacity:1;stroke:#006df0;stroke-width:1.01343749;stroke-linecap:round;stroke-linejoin:round;stroke-miterlimit:4;stroke-dasharray:none;stroke-opacity:1" /></svg>