<?xml version="1.0" encoding="iso-8859-1"?>
<!-- Generator: Adobe Illustrator 16.0.0, SVG Export Plug-In . SVG Version: 6.00 Build 0)  -->
<!DOCTYPE svg PUBLIC "-//W3C//DTD SVG 1.1//EN" "http://www.w3.org/Graphics/SVG/1.1/DTD/svg11.dtd">
<svg xmlns="http://www.w3.org/2000/svg" xmlns:xlink="http://www.w3.org/1999/xlink" version="1.1" id="Capa_1" x="0px" y="0px" width="512px" height="512px" viewBox="0 0 590.067 590.067" style="enable-background:new 0 0 590.067 590.067;" xml:space="preserve">
<g>
	<g>
		<path d="M238.294,377.538h-68.142c2.209,57.376,24.126,81.654,56.59,102.826l34.071-61.372    C248.537,409.812,240.208,396.664,238.294,377.538z" fill="#006DF0"/>
		<path d="M332.007,336.622l34.357-59.241c-20.243-14.076-44.81-22.376-71.336-22.376c-24.719,0-47.697,7.258-67.1,19.622    l33.918,58.875c9.39-6.684,20.789-10.699,33.191-10.699C309.2,322.804,321.996,328.12,332.007,336.622z" fill="#006DF0"/>
		<path d="M328.23,422.205l33.977,56.477c33.057-21.085,55.472-43.768,57.71-101.144h-68.134    C349.812,396.664,341.091,413.045,328.23,422.205z" fill="#006DF0"/>
		<circle cx="297.151" cy="379.661" r="31.078" fill="#006DF0"/>
		<path d="M583.04,505.266L323.647,54.154c-7.717-13.368-17.776-20.751-28.305-20.751c-10.729,0-20.99,7.564-28.908,21.286    L7.032,505.008c-7.908,13.692-9.208,27.138-3.586,36.873c5.508,9.533,16.935,14.783,32.207,14.783h518.766    c15.31,0,26.756-5.23,32.245-14.717C592.238,532.279,590.919,518.921,583.04,505.266z M515.649,516.979H74.281    c-15.591,0-21.979-11.053-14.197-24.562l220.958-383.579c7.781-13.509,20.508-13.505,28.278,0.011l220.546,383.556    C537.637,505.922,531.24,516.979,515.649,516.979z" fill="#006DF0"/>
	</g>
</g>
<g>
</g>
<g>
</g>
<g>
</g>
<g>
</g>
<g>
</g>
<g>
</g>
<g>
</g>
<g>
</g>
<g>
</g>
<g>
</g>
<g>
</g>
<g>
</g>
<g>
</g>
<g>
</g>
<g>
</g>
</svg>
