<?xml version="1.0" encoding="UTF-8" standalone="no"?>
<!-- Created with Inkscape (http://www.inkscape.org/) -->
<svg
   xmlns:dc="http://purl.org/dc/elements/1.1/"
   xmlns:cc="http://creativecommons.org/ns#"
   xmlns:rdf="http://www.w3.org/1999/02/22-rdf-syntax-ns#"
   xmlns:svg="http://www.w3.org/2000/svg"
   xmlns="http://www.w3.org/2000/svg"
   xmlns:sodipodi="http://sodipodi.sourceforge.net/DTD/sodipodi-0.dtd"
   xmlns:inkscape="http://www.inkscape.org/namespaces/inkscape"
   width="523.37744"
   height="317.98343"
   id="svg2"
   sodipodi:version="0.32"
   inkscape:version="0.46"
   version="1.0"
   sodipodi:docname="ContinentNorthamerica.svg"
   inkscape:output_extension="org.inkscape.output.svg.inkscape">
  <defs
     id="defs4">
    <inkscape:perspective
       sodipodi:type="inkscape:persp3d"
       inkscape:vp_x="0 : 526.18109 : 1"
       inkscape:vp_y="0 : 1000 : 0"
       inkscape:vp_z="744.09448 : 526.18109 : 1"
       inkscape:persp3d-origin="372.04724 : 350.78739 : 1"
       id="perspective10" />
    <inkscape:perspective
       id="perspective2390"
       inkscape:persp3d-origin="372.04724 : 350.78739 : 1"
       inkscape:vp_z="744.09448 : 526.18109 : 1"
       inkscape:vp_y="0 : 1000 : 0"
       inkscape:vp_x="0 : 526.18109 : 1"
       sodipodi:type="inkscape:persp3d" />
    <inkscape:perspective
       id="perspective2589"
       inkscape:persp3d-origin="372.04724 : 350.78739 : 1"
       inkscape:vp_z="744.09448 : 526.18109 : 1"
       inkscape:vp_y="0 : 1000 : 0"
       inkscape:vp_x="0 : 526.18109 : 1"
       sodipodi:type="inkscape:persp3d" />
    <inkscape:perspective
       id="perspective2624"
       inkscape:persp3d-origin="372.04724 : 350.78739 : 1"
       inkscape:vp_z="744.09448 : 526.18109 : 1"
       inkscape:vp_y="0 : 1000 : 0"
       inkscape:vp_x="0 : 526.18109 : 1"
       sodipodi:type="inkscape:persp3d" />
    <inkscape:perspective
       id="perspective2659"
       inkscape:persp3d-origin="372.04724 : 350.78739 : 1"
       inkscape:vp_z="744.09448 : 526.18109 : 1"
       inkscape:vp_y="0 : 1000 : 0"
       inkscape:vp_x="0 : 526.18109 : 1"
       sodipodi:type="inkscape:persp3d" />
    <inkscape:perspective
       id="perspective2694"
       inkscape:persp3d-origin="372.04724 : 350.78739 : 1"
       inkscape:vp_z="744.09448 : 526.18109 : 1"
       inkscape:vp_y="0 : 1000 : 0"
       inkscape:vp_x="0 : 526.18109 : 1"
       sodipodi:type="inkscape:persp3d" />
    <inkscape:perspective
       id="perspective2729"
       inkscape:persp3d-origin="372.04724 : 350.78739 : 1"
       inkscape:vp_z="744.09448 : 526.18109 : 1"
       inkscape:vp_y="0 : 1000 : 0"
       inkscape:vp_x="0 : 526.18109 : 1"
       sodipodi:type="inkscape:persp3d" />
  </defs>
  <sodipodi:namedview
     id="base"
     pagecolor="#ffffff"
     bordercolor="#666666"
     borderopacity="1.0"
     inkscape:pageopacity="0.0"
     inkscape:pageshadow="2"
     inkscape:zoom="1.8684589"
     inkscape:cx="153.30342"
     inkscape:cy="162.16572"
     inkscape:document-units="px"
     inkscape:current-layer="layer1"
     showgrid="false"
     inkscape:window-width="1280"
     inkscape:window-height="781"
     inkscape:window-x="0"
     inkscape:window-y="0" />
  <metadata
     id="metadata7">
    <rdf:RDF>
      <cc:Work
         rdf:about="">
        <dc:format>image/svg+xml</dc:format>
        <dc:type
           rdf:resource="http://purl.org/dc/dcmitype/StillImage" />
      </cc:Work>
    </rdf:RDF>
  </metadata>
  <g
     inkscape:label="Ebene 1"
     inkscape:groupmode="layer"
     id="layer1"
     transform="translate(-224.55,-46.46197)">
    <path
       style="fill:#000000"
       d=""
       id="path2396" />
    <path
       style="fill:#19cd19;fill-opacity:1"
       d="M 427.42813,361.71819 C 419.69754,357.96013 412.49633,351.83291 412.49633,349.01331 C 412.49633,347.77191 411.79533,346.17444 410.93855,345.46338 C 410.08178,344.75232 408.75731,342.67836 407.99529,340.85459 C 406.77881,337.94315 406.26304,337.60799 403.76732,338.10713 C 399.75817,338.90896 390.39283,334.57909 387.57408,330.62052 C 386.3446,328.89387 383.99559,326.78663 382.35406,325.93776 C 379.64516,324.53693 378.96786,324.54774 375.02184,326.05474 L 370.67422,327.71511 L 357.33527,321.25143 C 349.13016,317.27546 342.76225,313.48269 340.78988,311.39687 C 337.72379,308.15442 337.63059,307.8202 338.66071,303.76183 C 339.63177,299.93617 339.46714,298.98234 336.99105,294.08844 C 335.48023,291.10236 332.72586,287.18765 330.87022,285.3891 C 329.01458,283.59054 327.49633,281.2626 327.49633,280.21589 C 327.49633,279.16918 325.95723,275.76996 324.07611,272.66206 C 322.19499,269.55416 320.35393,265.08991 319.98487,262.74151 C 319.34841,258.6917 317.37402,255.51133 315.49633,255.51133 C 315.0249,255.51133 313.8995,256.25102 312.99543,257.15509 C 311.02102,259.12949 311.47823,261.57659 315.4083,270.06949 C 316.95018,273.40148 318.5443,278.34555 318.95081,281.05632 C 319.35731,283.76708 320.35453,287.27023 321.16685,288.84109 C 323.3682,293.09802 321.75213,293.49031 318.43202,289.50494 C 316.25665,286.89367 315.66052,285.33606 316.07166,283.33762 C 316.51414,281.18685 316.03222,280.22808 313.60765,278.43551 C 309.95289,275.73343 309.17702,273.97649 310.52568,271.45649 C 311.31364,269.98418 310.94946,268.36564 308.93632,264.39291 C 307.0367,260.64418 306.48754,258.37174 306.92182,256.05683 C 307.79553,251.39952 305.84648,246.91548 301.94882,244.6158 C 298.37356,242.50634 298.08883,241.83108 296.42322,231.51133 C 294.73953,221.07959 295.16849,216.5672 298.15048,213.34152 C 299.33526,212.05992 301.02828,209.25567 301.91274,207.10986 C 302.7972,204.96405 305.2898,201.28931 307.45184,198.94377 C 309.61388,196.59824 312.76484,191.9414 314.45397,188.59525 C 317.6504,182.26316 318.94971,181.38153 320.98438,184.16411 C 322.45537,186.1758 324.01772,185.33753 326.02234,181.46103 C 327.3373,178.91818 327.3511,178.09952 326.12837,175.1731 C 325.3552,173.32265 323.36062,170.83882 321.69596,169.65348 C 318.86419,167.63708 318.68494,167.12851 318.91195,161.75482 C 319.04541,158.5959 319.64238,155.10149 320.23856,153.98946 C 321.35514,151.90674 321.70516,143.43184 320.80931,140.17004 C 320.53117,139.15734 318.68806,137.65374 316.71351,136.82872 C 314.73896,136.0037 311.70234,134.24478 309.96548,132.92001 C 308.22862,131.59524 306.025,130.51133 305.06855,130.51133 C 304.11211,130.51133 299.76452,129.6011 295.40726,128.48859 C 288.40198,126.69998 287.16731,126.62934 284.74065,127.87827 C 279.7117,130.46652 274.38372,131.52143 272.21161,130.35896 C 270.58235,129.487 268.80432,130.02549 262.60434,133.26858 C 258.41993,135.45736 253.42133,137.58783 251.49633,138.00297 C 249.57133,138.4181 245.88732,139.82045 243.30965,141.1193 C 237.19344,144.20117 225.31351,148.66184 224.74255,148.09088 C 224.00753,147.35586 225.52038,145.51133 226.85824,145.51133 C 227.54238,145.51133 231.79082,143.72752 236.29923,141.54731 C 244.68147,137.49375 247.17983,134.72464 241.41447,135.87771 C 239.71944,136.21671 237.382,135.98533 236.22014,135.36352 C 234.13589,134.24807 234.147,134.20161 237.052,131.88524 C 239.19293,130.17813 239.99633,128.67659 239.99633,126.38235 C 239.99633,121.90061 243.41087,119.77471 252.82862,118.39291 C 258.61049,117.54458 261.44053,116.58773 263.63896,114.73787 C 266.98716,111.92055 266.21822,109.51944 262.58968,111.46138 C 260.38694,112.64025 253.88708,111.95259 252.95342,110.44191 C 252.66697,109.97842 253.64395,108.80549 255.12449,107.83541 C 257.05951,106.56754 259.87108,106.06214 265.1242,106.03791 C 273.72944,105.99822 276.63481,104.3072 274.35897,100.66299 C 272.52002,97.718369 274.01056,96.580196 281.10186,95.514138 C 284.34382,95.026765 289.26269,93.740118 292.03269,92.654923 C 294.80269,91.569729 302.33461,89.953667 308.77029,89.063676 C 319.21083,87.619851 321.4156,87.602045 329.23393,88.898413 C 334.05325,89.69751 340.69633,90.650584 343.99633,91.016355 C 347.29633,91.382126 353.13729,92.543131 356.97623,93.596365 C 365.89228,96.042529 371.69953,96.012681 381.66021,93.469496 C 386.05861,92.346483 390.50409,91.696412 391.53905,92.024895 C 392.574,92.353377 394.33372,92.133548 395.44953,91.536386 C 396.99021,90.711838 398.18568,90.816453 400.4188,91.971245 C 402.44644,93.019779 404.75169,93.30101 407.84428,92.877123 C 413.85428,92.053362 427.13545,96.023324 427.87876,98.86576 C 428.33245,100.60067 429.03208,100.73981 434.69036,100.22041 C 440.64265,99.674016 441.12156,99.792134 443.22908,102.32644 L 445.46183,105.01134 L 447.22908,102.78259 C 448.20107,101.55678 451.13383,99.913325 453.74633,99.130461 C 457.87185,97.894206 459.12081,97.898315 463.24633,99.16172 C 466.12937,100.04463 469.64811,100.37792 472.19886,100.0097 C 475.28756,99.563818 477.10174,99.861912 479.04383,101.13442 C 481.57506,102.79294 481.86114,102.77828 485.8413,100.78616 C 488.12657,99.642354 491.23383,98.222245 492.74633,97.630363 C 495.53429,96.53936 496.52117,93.26276 494.44777,91.981326 C 492.8792,91.011896 494.81132,89.123983 499.56653,86.979681 C 502.97413,85.443069 503.78932,85.367371 504.50251,86.521331 C 504.9841,87.300564 504.95253,88.658922 504.43014,89.635013 C 502.78277,92.713158 504.54312,95.05115 508.17092,94.603299 C 509.98166,94.379765 510.69809,96.265827 509.58938,98.337474 C 508.90516,99.615953 508.93659,100.55159 509.68903,101.30403 C 511.07323,102.68823 516.92241,99.856535 520.42064,96.108655 C 522.0311,94.383277 523.89428,93.511337 525.97064,93.511337 C 530.98081,93.511337 531.79738,95.229746 528.68128,99.215643 C 524.99184,103.93492 521.56518,105.51134 514.99633,105.51134 C 511.9167,105.51134 508.10116,106.18145 506.51734,107.00047 C 504.74415,107.91742 502.4578,108.25363 500.567,107.87547 C 497.4327,107.24861 496.61481,108.22982 498.6092,110.2242 C 499.22127,110.83628 499.45945,111.762 499.13847,112.28135 C 498.35441,113.54999 486.96156,115.9169 485.62253,115.08934 C 485.0391,114.72875 483.98453,115.4087 483.27904,116.60033 C 482.57355,117.79196 479.69088,119.80352 476.87311,121.07046 C 468.88462,124.66227 460.50844,130.39065 459.26981,133.10915 C 457.74432,136.45723 461.15455,142.65573 465.17657,143.84538 C 466.72744,144.3041 470.69633,145.98459 473.99633,147.5798 C 477.29633,149.17501 481.27017,150.7701 482.82709,151.12444 C 486.53313,151.96789 487.05685,153.65318 485.11843,158.49777 C 483.8699,161.61817 483.76766,163.01274 484.64612,164.94073 C 487.25369,170.66373 492.98671,168.3551 496.03013,160.35649 C 497.85103,155.57089 498.67503,154.68494 503.90134,151.89348 C 511.63991,147.76017 514.81491,143.72642 513.95164,139.1248 C 513.39231,136.14333 513.66112,135.44947 515.95868,133.94405 C 517.41775,132.98803 519.49141,130.48115 520.5668,128.3732 C 523.42037,122.77973 526.44369,121.12639 532.23133,121.9943 C 537.71716,122.81696 541.21853,124.4419 543.90735,127.41302 C 545.45999,129.12866 545.6125,129.96095 544.72941,131.89913 C 543.89136,133.73844 543.98175,134.75935 545.12745,136.39507 C 547.20085,139.35526 549.49652,139.04891 555.49633,135.01133 C 561.11248,131.23194 562.41041,130.82386 562.65255,132.76133 C 563.32413,138.13478 563.52502,140.33977 563.54086,142.51133 C 563.5509,143.88633 564.29505,146.71376 565.19455,148.7945 C 566.44073,151.67722 566.55227,152.85539 565.66316,153.7445 C 563.46239,155.94527 564.50119,156.63315 569.00541,155.9577 C 572.02346,155.50511 574.00751,155.69068 575.00541,156.51887 C 578.68114,159.56945 575.45347,163.82465 566.46727,167.77517 C 559.04956,171.03614 554.668,171.85284 543.99633,171.96365 C 535.71859,172.04961 534.33426,172.36915 526.74633,175.94544 C 522.20883,178.08403 518.49633,180.43623 518.49633,181.17256 C 518.49633,183.03696 519.52414,182.87146 525.64703,180.0211 C 531.19501,177.43838 537.49633,176.69168 537.49633,178.61697 C 537.49633,179.22508 536.37295,181.05768 534.99992,182.68943 C 533.0473,185.00999 532.72225,186.06494 533.50766,187.5325 C 535.0913,190.49157 538.64911,192.51133 542.27785,192.51133 C 546.80263,192.51133 545.50989,194.13285 539.58156,195.89338 C 536.92568,196.68209 533.36736,198.04378 531.67417,198.91936 C 529.98099,199.79495 527.8983,200.51133 527.04599,200.51133 C 524.2185,200.51133 525.44008,198.58067 529.61531,196.45063 C 535.40877,193.49503 533.43903,191.6449 526.8103,193.81596 C 515.93243,197.37871 506.63722,202.33819 505.03666,205.43334 C 503.25812,208.87265 501.37002,210.0627 494.41487,212.12816 C 491.45988,213.0057 488.87232,214.53405 487.94469,215.9498 C 487.09447,217.2474 485.05552,218.86549 483.41369,219.54556 C 481.77186,220.22563 479.6382,221.73364 478.67224,222.89669 C 477.70627,224.05974 476.03402,225.51056 474.95613,226.12073 C 473.46556,226.96451 472.98495,228.33737 472.94881,231.85466 C 472.89433,237.15668 469.81592,241.19493 463.60344,244.11386 C 457.11951,247.16034 447.89319,254.35921 446.02381,257.83044 C 444.37604,260.89017 444.30499,262.09438 445.312,269.89539 C 446.14746,276.36748 446.14068,279.19778 445.28522,281.07533 C 442.73755,286.66685 438.06804,280.74664 438.02263,271.86751 C 437.99132,265.74453 435.44573,262.05623 431.8704,262.95358 C 430.65302,263.25912 427.51862,262.59251 424.90507,261.47221 C 419.33591,259.08499 415.35599,259.90037 411.99338,264.11749 L 409.96398,266.6626 L 405.48015,264.92619 C 398.7501,262.31989 394.78404,262.69216 388.49633,266.52033 C 385.47133,268.36205 381.96334,270.48726 380.70079,271.24301 C 378.12365,272.78568 377.92109,273.2216 373.53701,286.66034 L 370.38924,296.30936 L 372.00315,302.53766 C 375.00564,314.12464 379.01985,317.37484 388.02033,315.50635 C 393.56744,314.35477 399.49633,310.09707 399.49633,307.26511 C 399.49633,304.93175 402.75005,302.6543 407.07071,301.9634 C 413.80712,300.8862 413.99159,302.4793 408.52366,314.51133 C 405.19853,321.82817 404.05074,325.38697 404.73754,326.25043 C 405.40286,327.08689 408.27155,327.41183 413.56572,327.25043 C 424.35824,326.9214 424.8271,327.46307 423.09605,338.26093 C 421.22709,349.91904 422.60237,354.96345 428.47812,358.00192 C 430.76997,359.18708 431.73617,359.18602 435.07962,357.9947 C 440.55314,356.0444 441.99166,356.17316 445.15807,358.89679 C 447.54673,360.95144 447.74551,361.50616 446.59139,362.89679 C 444.72349,365.14747 443.57912,364.91073 444.23335,362.40897 C 444.84109,360.08496 443.15045,358.54196 439.99633,358.54196 C 437.25094,358.54196 435.41528,359.85783 435.09247,362.05723 C 434.69499,364.76544 433.59659,364.71685 427.42813,361.71819 z M 465.24633,209.52229 C 470.75819,206.16164 468.68372,203.71955 462.49633,206.28495 C 458.8327,207.80395 457.2889,209.36668 458.12133,210.71358 C 458.96221,212.07416 461.85394,211.59067 465.24633,209.52229 z M 443.75985,209.26133 C 444.66502,208.57383 446.28078,205.94208 447.35042,203.41301 C 449.39881,198.56975 453.21938,194.86993 457.20538,193.86951 C 460.3927,193.06954 461.10316,194.00894 459.53163,196.94538 C 456.66705,202.29788 462.10328,204.68752 466.49927,200.0082 C 467.79264,198.63148 469.33358,197.55979 469.92359,197.62668 C 472.65824,197.9367 473.49633,197.3286 473.49633,195.03438 C 473.49633,191.57212 469.41776,188.94783 466.4802,190.51996 C 464.73248,191.45531 463.96519,191.34063 462.38141,189.90733 C 461.30971,188.93745 460.53338,187.43908 460.65624,186.57762 C 461.43019,181.15084 456.53545,177.74622 450.64089,179.61128 C 441.27833,182.57364 438.61891,183.7184 437.03583,185.46768 C 435.42101,187.25204 435.44059,187.41113 437.40433,188.4621 C 439.0139,189.32351 440.1812,189.20853 442.61766,187.94859 C 445.53071,186.44219 446.03215,186.4492 449.57291,188.04586 C 451.67164,188.99226 454.08798,189.49827 454.94255,189.17034 C 455.79713,188.84241 456.49633,188.90435 456.49633,189.308 C 456.49633,189.71164 454.23855,190.84378 451.47904,191.82388 C 446.45332,193.60885 445.64688,194.47645 440.02184,204.14986 C 437.16524,209.06238 439.61367,212.41044 443.75985,209.26133 z M 483.0552,202.07865 C 484.52964,200.99042 484.71794,200.36341 483.83839,199.47071 C 482.30852,197.91796 475.49633,200.05597 475.49633,202.08888 C 475.49633,203.9681 480.50438,203.96132 483.0552,202.07865 z M 512.05018,353.59846 C 511.00989,351.91524 512.48138,350.09638 513.8092,351.4242 C 514.59204,352.20704 514.59204,352.81562 513.8092,353.59846 C 513.02635,354.38131 512.534,354.38131 512.05018,353.59846 z M 448.163,316.84466 C 446.79828,315.47995 447.56553,314.38241 449.668,314.69178 C 452.4161,315.09615 453.33978,317.51133 450.74633,317.51133 C 449.69216,317.51133 448.52966,317.21133 448.163,316.84466 z M 493.19018,316.87185 C 492.25694,315.93861 493.3847,314.51133 495.05535,314.51133 C 495.84789,314.51133 496.49633,315.18633 496.49633,316.01133 C 496.49633,317.51756 494.38534,318.06701 493.19018,316.87185 z M 471.74633,315.84905 C 471.05883,315.57164 470.49633,314.00963 470.49633,312.37793 L 470.49633,309.41119 L 476.46031,309.80892 C 482.02069,310.17974 485.49633,311.63286 485.49633,313.58677 C 485.49633,315.42695 474.98587,317.15623 471.74633,315.84905 z M 454.2493,307.78304 C 451.99604,307.54726 450.12626,306.68837 449.55907,305.62856 C 448.19326,303.07652 441.36503,298.58998 437.02155,297.39068 C 434.32017,296.6448 432.49162,296.68485 430.43949,297.53487 C 426.13419,299.31819 424.46101,298.11153 428.40269,296.06599 C 433.29068,293.52936 442.5171,294.27063 449.01559,297.72207 C 451.755,299.17701 456.46468,301.56593 459.48155,303.03079 C 464.62481,305.52812 464.84668,305.78198 463.04042,307.10275 C 461.98093,307.87747 460.41258,308.43568 459.5552,308.34323 C 458.69782,308.25077 456.31017,307.99869 454.2493,307.78304 z M 450.49633,284.51133 C 450.49633,283.96133 450.94633,283.51133 451.49633,283.51133 C 452.04633,283.51133 452.49633,283.96133 452.49633,284.51133 C 452.49633,285.06133 452.04633,285.51133 451.49633,285.51133 C 450.94633,285.51133 450.49633,285.06133 450.49633,284.51133 z M 561.24633,183.79508 C 559.73383,183.56595 558.49633,183.00789 558.49633,182.55494 C 558.49633,182.10199 561.08383,179.0977 564.24633,175.87873 C 569.68343,170.34455 570.01232,170.16255 570.29013,172.53423 C 570.49089,174.24811 571.75761,175.67146 574.29013,177.02881 C 578.70299,179.39396 579.28327,182.56318 575.49633,183.61657 C 572.7834,184.3712 565.64014,184.46068 561.24633,183.79508 z M 316.48693,176.50255 C 313.82506,174.01599 313.48082,173.23494 314.50362,172.00255 C 316.16898,169.99591 316.76343,170.10276 319.85031,172.96358 C 322.66831,175.57522 323.4208,179.51133 321.10209,179.51133 C 320.33525,179.51133 318.25843,178.15738 316.48693,176.50255 z M 314.49633,150.09466 C 314.49633,149.22383 315.20883,148.51133 316.07966,148.51133 C 316.9505,148.51133 317.48487,149.0457 317.26716,149.69883 C 316.64909,151.55305 314.49633,151.86059 314.49633,150.09466 z M 622.99633,126.73798 C 616.66821,123.28707 613.64323,117.98512 615.47684,113.55838 C 616.34464,111.46335 616.37116,110.14596 615.57547,108.65921 C 613.91953,105.56507 616.08006,101.93902 621.60524,98.539344 C 627.61283,94.842834 629.01332,92.433129 627.56639,88.282468 C 626.9745,86.584557 625.58406,84.560663 624.47654,83.784925 C 623.36902,83.009187 622.71242,81.970716 623.01742,81.477211 C 623.82248,80.174599 620.1297,73.420912 617.0304,70.527602 C 614.58415,68.243947 613.57617,68.037928 604.51754,67.970141 C 594.0365,67.89171 591.32064,66.899187 592.2162,63.474569 C 592.49856,62.394792 592.80141,61.511337 592.8892,61.511337 C 592.97698,61.511337 596.86199,61.042295 601.52256,60.46902 C 607.47335,59.737043 612.80851,58.227479 619.44141,55.398943 C 629.7109,51.019622 630.49317,50.934058 654.99633,51.509997 C 662.73382,51.691864 669.85202,51.119228 678.99633,49.579273 C 687.51201,48.145183 693.77807,47.604568 697.16157,48.012034 C 700.03647,48.35825 704.19906,48.129926 706.54915,47.497115 C 712.00271,46.028623 726.17199,47.795064 731.74501,50.638206 C 735.03972,52.319041 736.7829,52.540991 742.34235,51.987511 C 748.34748,51.38966 748.8013,51.4683 746.99633,52.793965 C 745.89633,53.601861 742.52133,54.589638 739.49633,54.989026 C 733.22233,55.817375 728.49633,59.370014 728.49633,63.257971 C 728.49633,66.383256 721.95297,74.19027 717.3381,76.571075 C 715.32607,77.609079 711.83857,78.752789 709.5881,79.112654 C 707.33762,79.472519 705.49633,80.125724 705.49633,80.564221 C 705.49633,81.002718 707.37577,82.407704 709.67287,83.686413 C 714.37169,86.302072 715.38672,87.955687 712.88314,88.916399 C 711.8453,89.314656 709.76737,88.585171 707.53712,87.039606 C 705.53056,85.649058 703.60848,84.511337 703.26582,84.511337 C 702.31375,84.511337 699.63047,90.312144 700.28143,90.963104 C 700.59597,91.277642 702.29646,91.264256 704.0603,90.933358 C 707.91967,90.209336 709.64024,92.101809 706.30272,93.399811 C 701.23298,95.371492 688.8152,97.52641 685.89373,96.941485 C 682.57252,96.276528 676.77662,98.683272 670.86972,103.18019 C 668.92279,104.66239 664.80955,106.12177 659.96803,107.0481 C 649.87145,108.9799 646.45952,111.21398 640.3759,119.87673 C 635.48953,126.83468 632.54311,129.42801 629.49633,129.45254 C 628.67133,129.45918 625.74633,128.23763 622.99633,126.73798 z M 552.09171,120.0498 C 549.94417,118.73029 547.3291,116.29558 546.28044,114.63934 C 544.52138,111.86109 544.49573,111.44189 545.94908,109.22379 C 548.1843,105.81242 552.06065,104.2078 554.67997,105.60962 C 556.20467,106.42561 557.41728,106.41276 559.28717,105.56077 L 561.82503,104.40445 L 558.76459,101.60917 C 557.08134,100.07177 554.9933,97.43926 554.12448,95.759157 C 553.25567,94.079053 550.98106,91.737968 549.0698,90.556744 C 545.81336,88.544153 545.40481,88.507305 542.57449,89.97092 C 540.11441,91.243075 538.67466,91.335669 534.81241,90.470119 C 532.20443,89.885659 528.35161,89.69789 526.25058,90.052856 C 521.9501,90.779418 517.18246,88.492852 518.08637,86.137293 C 518.83042,84.198341 526.48061,78.934516 529.68504,78.156663 C 532.82343,77.394843 534.13164,78.739189 531.98532,80.520475 C 530.52468,81.732694 529.90965,84.511337 531.10197,84.511337 C 531.43508,84.511337 532.97792,83.442452 534.5305,82.136036 C 536.08309,80.82962 538.98645,79.45437 540.98242,79.079925 C 544.01608,78.510807 545.36839,78.900492 549.22533,81.455226 C 554.33959,84.84277 554.79853,84.955157 557.53562,83.490309 C 559.08873,82.659109 559.92741,83.012467 562.04662,85.390917 C 563.60234,87.136952 566.42963,88.760718 569.07307,89.426343 C 571.50586,90.038928 573.53289,90.871154 573.57757,91.275735 C 573.62225,91.680316 573.75249,93.314631 573.86699,94.907546 C 573.98816,96.593152 575.0139,98.474133 576.32095,99.407546 C 577.55613,100.28963 579.56339,101.77245 580.78153,102.70271 L 582.99633,104.39408 L 580.38337,107.04294 L 577.77041,109.69181 L 573.50493,107.51572 C 569.65354,105.55089 569.08909,105.49 567.69055,106.88855 C 566.40967,108.16943 566.35072,108.89634 567.3499,111.08931 C 569.64111,116.11796 567.01317,118.92867 562.35245,116.43433 C 561.24563,115.84198 559.6328,115.62873 558.76839,115.96043 C 557.41669,116.47913 557.49888,116.88515 559.35568,118.86162 C 563.33636,123.09885 558.37494,123.9104 552.09171,120.0498 z M 503.89737,115.35122 C 503.47857,114.67358 504.35102,113.17291 505.97682,111.77446 C 508.05271,109.98886 509.45325,109.53105 511.38706,110.00597 C 517.56818,111.52399 520.97948,116.39154 515.39512,115.72504 C 514.07579,115.56757 512.32133,115.36805 511.49633,115.28166 C 510.67133,115.19526 508.78641,115.43825 507.30762,115.82163 C 505.63265,116.25586 504.34686,116.0785 503.89737,115.35122 z M 532.15346,112.83514 C 531.04275,111.72442 533.64367,109.51134 536.05976,109.51134 C 538.40502,109.51134 540.17305,111.01102 538.76264,111.80398 C 537.05785,112.76246 532.7525,113.43417 532.15346,112.83514 z M 440.49633,96.581489 C 436.34303,95.751009 432.49633,93.803353 432.49633,92.530944 C 432.49633,92.030431 434.63383,91.483763 437.24633,91.316128 C 442.37694,90.986915 443.73194,89.211041 439.24633,88.694915 C 437.69564,88.516488 436.49633,87.763347 436.49633,86.967968 C 436.49633,86.192179 435.41666,84.850016 434.09706,83.985384 C 431.86426,82.522397 431.26372,82.589708 425.44135,84.955546 C 420.72071,86.873714 418.85492,87.2239 417.84062,86.382108 C 417.10126,85.768495 416.49633,84.903068 416.49633,84.458938 C 416.49633,83.270906 430.47326,75.830895 434.16265,75.055041 C 437.878,74.273728 444.92347,75.968733 448.48716,78.501244 C 452.29742,81.208971 457.5862,82.396671 460.34724,81.164658 C 462.23806,80.320951 462.88112,80.447538 463.64583,81.813988 C 464.90529,84.064528 466.78178,83.958384 468.99633,81.511337 C 472.48961,77.651308 474.94933,79.927873 472.41065,84.671427 C 471.52775,86.321136 471.7445,87.146602 473.57111,89.090938 L 475.81725,91.481841 L 471.07918,93.577712 C 466.91931,95.417823 465.76513,95.535406 461.62107,94.541262 C 457.49995,93.552619 456.29383,93.669215 452.11577,95.460138 C 447.08268,97.617572 446.13516,97.709014 440.49633,96.581489 z M 481.90257,96.359633 C 481.05405,94.986697 484.13186,92.511337 486.68746,92.511337 C 489.36314,92.511337 488.88185,95.014654 485.94928,96.350822 C 482.81716,97.777909 482.77917,97.777991 481.90257,96.359633 z M 489.28114,83.86758 C 487.75614,82.342571 487.9032,82.08357 491.31686,80.282377 C 496.43921,77.579607 500.36032,76.482256 501.02909,77.564343 C 502.06896,79.246896 499.44581,82.505607 495.83814,84.012987 C 491.38057,85.875477 491.28697,85.873402 489.28114,83.86758 z M 505.90424,81.362337 C 505.51184,80.727413 505.97603,79.633738 506.93579,78.931948 C 509.08289,77.361952 516.02955,76.104818 517.50819,77.018667 C 519.36153,78.164094 516.53889,80.511337 513.30814,80.511337 C 511.68933,80.511337 509.52174,80.962554 508.49128,81.514041 C 507.18168,82.214914 506.40294,82.169249 505.90424,81.362337 z M 547.99633,75.004069 C 547.44633,74.811914 542.15883,74.354137 536.24633,73.986786 C 524.70152,73.269494 522.99082,72.199117 528.07017,68.870998 C 530.50851,67.273339 530.86387,67.290448 534.82017,69.195994 C 538.33142,70.887184 540.38946,71.132055 547.74633,70.733984 C 554.97969,70.342597 556.49633,70.514443 556.49633,71.72542 C 556.49633,74.011033 551.1056,76.090364 547.99633,75.004069 z M 559.49633,68.011337 C 558.12133,67.225316 555.91812,66.566262 554.60031,66.546772 L 552.20428,66.511337 L 554.81547,64.09137 C 556.25163,62.760388 558.22984,61.514506 559.2115,61.322744 C 560.35141,61.100068 560.99633,60.077477 560.99633,58.492711 L 560.99633,56.011337 L 570.25405,56.377373 C 576.59193,56.627964 579.97896,56.355681 580.99304,55.514067 C 583.23838,53.650602 581.86545,52.577179 578.03229,53.199214 C 574.1386,53.831073 569.15875,52.866575 569.92376,51.628754 C 570.46999,50.744942 577.98765,49.968022 599.60972,48.560831 C 607.09709,48.073543 615.42209,47.401957 618.10972,47.068417 L 622.99633,46.46198 L 614.92956,50.336779 C 607.36639,53.969673 595.06724,57.511337 590.01443,57.511337 C 588.78432,57.511337 585.24802,58.861337 582.15599,60.511337 C 579.06396,62.161337 575.91403,63.511337 575.15615,63.511337 C 574.39826,63.511337 571.12726,64.855637 567.88725,66.49867 C 564.64724,68.141702 561.99633,69.475756 561.99633,69.463234 C 561.99633,69.450712 560.87133,68.797358 559.49633,68.011337 z M 545.49633,66.511337 C 544.38285,65.791749 544.97783,65.538017 547.80535,65.52665 C 550.09332,65.517452 551.36757,65.910664 550.99633,66.511337 C 550.21522,67.775196 547.45201,67.775196 545.49633,66.511337 z M 540.49633,58.853162 C 539.67133,58.578007 538.32133,58.131394 537.49633,57.860689 C 535.37833,57.165714 538.74535,54.790642 543.7646,53.4391 C 550.8958,51.518867 554.11428,54.514113 548.40897,57.761337 C 545.33234,59.512423 543.30978,59.791506 540.49633,58.853162 z"
       id="path2735" />
  </g>
</svg>
