<?xml version="1.0" encoding="UTF-8" standalone="no"?>
<!-- Generator: Adobe Illustrator 17.1.0, SVG Export Plug-In . SVG Version: 6.00 Build 0)  -->

<svg
   xmlns:dc="http://purl.org/dc/elements/1.1/"
   xmlns:cc="http://creativecommons.org/ns#"
   xmlns:rdf="http://www.w3.org/1999/02/22-rdf-syntax-ns#"
   xmlns:svg="http://www.w3.org/2000/svg"
   xmlns="http://www.w3.org/2000/svg"
   xmlns:sodipodi="http://sodipodi.sourceforge.net/DTD/sodipodi-0.dtd"
   xmlns:inkscape="http://www.inkscape.org/namespaces/inkscape"
   version="1.1"
   id="Capa_1"
   x="0px"
   y="0px"
   viewBox="0 0 212 212"
   style="enable-background:new 0 0 212 212;"
   xml:space="preserve"
   width="512px"
   height="512px"
   inkscape:version="0.91 r13725"
   sodipodi:docname="snorkelling.svg"><metadata
     id="metadata5707"><rdf:RDF><cc:Work
         rdf:about=""><dc:format>image/svg+xml</dc:format><dc:type
           rdf:resource="http://purl.org/dc/dcmitype/StillImage" /></cc:Work></rdf:RDF></metadata><defs
     id="defs5705" /><sodipodi:namedview
     pagecolor="#ffffff"
     bordercolor="#666666"
     borderopacity="1"
     objecttolerance="10"
     gridtolerance="10"
     guidetolerance="10"
     inkscape:pageopacity="0"
     inkscape:pageshadow="2"
     inkscape:window-width="1097"
     inkscape:window-height="668"
     id="namedview5703"
     showgrid="false"
     inkscape:zoom="0.65186406"
     inkscape:cx="-100.80933"
     inkscape:cy="242.42792"
     inkscape:window-x="-8"
     inkscape:window-y="-8"
     inkscape:window-maximized="1"
     inkscape:current-layer="Capa_1" /><path
     style="fill:#006df0;stroke:#006df0;stroke-width:6.2109375;stroke-miterlimit:4;stroke-dasharray:none;stroke-opacity:1;fill-opacity:1"
     d="m 186.07911,25.093528 0,138.160792 c 0,23.56268 -19.49419,42.73226 -43.45588,42.73226 -21.11468,0 -38.75197,-14.8886 -42.64749,-34.54772 -6.09355,-0.93715 -10.774269,-6.11789 -10.774269,-12.36888 0,-6.91192 5.718098,-12.5348 12.747069,-12.5348 l 13.90588,0 c 7.02895,0 12.74705,5.62288 12.74705,12.5348 0,5.82253 -4.0633,10.71611 -9.54499,12.11818 3.36058,9.62581 12.65157,16.56599 23.56675,16.56599 13.73809,0 24.91471,-10.99051 24.91471,-24.49983 l 0,-138.160792 c 0,-5.033974 4.15136,-9.116215 9.27058,-9.116215 5.11922,0 9.27059,4.082241 9.27059,9.116215 z"
     id="path5711"
     inkscape:connector-curvature="0" /><path
     style="fill:#ffffff;stroke:#006df0;stroke-opacity:1;stroke-width:16.56249975;stroke-miterlimit:4;stroke-dasharray:none;fill-opacity:1"
     d="m 153.92813,59.136918 -93.999997,0 c -22.47,0 -40.75,18.741381 -40.75,41.778512 l 0,11.53395 c 0,13.28506 10.542,24.09313 23.5,24.09313 l 28.5,0 c 12.958,0 23.5,-10.80807 23.5,-24.09313 0,-4.8053 3.813,-8.71454 8.499997,-8.71454 l 7.5,0 c 4.687,0 8.5,3.90924 8.5,8.71454 0,13.28506 10.542,24.09313 23.5,24.09313 l 28.5,0 c 12.958,0 23.5,-10.80807 23.5,-24.09313 l 0,-11.53395 c 0,-23.037131 -18.28,-41.778512 -40.75,-41.778512 z"
     id="path5671"
     inkscape:connector-curvature="0" /><g
     id="g5673" /><g
     id="g5675" /><g
     id="g5677" /><g
     id="g5679" /><g
     id="g5681" /><g
     id="g5683" /><g
     id="g5685" /><g
     id="g5687" /><g
     id="g5689" /><g
     id="g5691" /><g
     id="g5693" /><g
     id="g5695" /><g
     id="g5697" /><g
     id="g5699" /><g
     id="g5701" /></svg>