<?xml version="1.0" encoding="iso-8859-1"?>
<!-- Generator: Adobe Illustrator 18.0.0, SVG Export Plug-In . SVG Version: 6.00 Build 0)  -->
<!DOCTYPE svg PUBLIC "-//W3C//DTD SVG 1.1//EN" "http://www.w3.org/Graphics/SVG/1.1/DTD/svg11.dtd">
<svg version="1.1" id="Capa_1" xmlns="http://www.w3.org/2000/svg" xmlns:xlink="http://www.w3.org/1999/xlink" x="0px" y="0px"
	 viewBox="0 0 470.645 470.645" style="enable-background:new 0 0 470.645 470.645;" xml:space="preserve">
<g id="XMLID_223_">
	<path id="XMLID_228_" d="M383.624,141.886h-54.832V76.697c0-8.663-7.023-15.688-15.688-15.688h-28.121
		c-0.061-10.257-8.373-18.56-18.652-18.56h-62.018c-10.271,0-18.583,8.304-18.644,18.56h-28.137
		c-8.663,0-15.688,7.025-15.688,15.688v65.189H87.021v0.008c-0.016,47.968-39.045,86.997-87.013,87.013H0v105.872
		c47.983,0,87.028,39.037,87.028,87.02c0,2.505-0.191,4.581-0.406,6.397h297.001c0-47.984,39.037-87.021,87.021-87.021v-112.26
		C422.661,228.915,383.624,189.87,383.624,141.886z M173.221,92.385h12.448c0.062,10.257,8.373,18.561,18.644,18.561h62.018
		c10.279,0,18.591-8.304,18.652-18.561h12.433v49.501H173.221V92.385z M113.784,228.363c0-19.602,15.888-35.49,35.49-35.49
		c19.603,0,35.49,15.888,35.49,35.49c0,19.603-15.887,35.49-35.49,35.49C129.672,263.852,113.784,247.965,113.784,228.363z
		 M215.773,343.741l-12.317,23.724c-3.47,6.688-11.704,9.3-18.392,5.83l-23.724-12.318c-6.688-3.47-9.3-11.705-5.83-18.391
		l12.318-23.724c3.469-6.688,11.703-9.3,18.391-5.83l23.724,12.316C216.631,328.819,219.243,337.053,215.773,343.741z
		 M345.997,361.422l-19.204,36.999c-1.188,2.289-4.015,3.186-6.305,1.999l-36.999-19.204c-1.134-0.59-1.807-1.809-1.692-3.087
		c0.106-1.272,0.973-2.359,2.198-2.75l58.227-18.439c1.225-0.391,2.559,0,3.385,0.98
		C346.434,358.901,346.587,360.287,345.997,361.422z M365.807,266.304l-68.008,25.048c-4.643,1.716-9.782,1.509-14.278-0.566
		c-4.498-2.076-7.982-5.852-9.699-10.494L262.7,250.08c-3.569-9.675,1.387-20.407,11.061-23.976l68.008-25.049
		c4.642-1.716,9.781-1.509,14.277,0.566c4.496,2.075,7.982,5.853,9.699,10.495l11.123,30.211
		C380.438,252.002,375.481,262.734,365.807,266.304z"/>
	<path id="XMLID_227_" d="M451.969,141.886H415c0,30.741,24.911,55.652,55.645,55.652v-36.977
		C470.645,150.243,462.287,141.886,451.969,141.886z"/>
	<path id="XMLID_226_" d="M415,428.196h36.969c10.318,0,18.675-8.357,18.675-18.675v-36.969
		C439.911,372.551,415,397.462,415,428.196z"/>
	<path id="XMLID_225_" d="M0,366.155v43.365c0,10.318,8.357,18.675,18.675,18.675h36.333c0.246-2.123,0.644-4.206,0.644-6.397
		C55.652,391.066,30.741,366.155,0,366.155z"/>
	<path id="XMLID_224_" d="M55.644,141.886H18.675C8.357,141.886,0,150.243,0,160.562v36.969
		C30.733,197.523,55.636,172.619,55.644,141.886z"/>
</g>
<g>
</g>
<g>
</g>
<g>
</g>
<g>
</g>
<g>
</g>
<g>
</g>
<g>
</g>
<g>
</g>
<g>
</g>
<g>
</g>
<g>
</g>
<g>
</g>
<g>
</g>
<g>
</g>
<g>
</g>
</svg>
