<?xml version="1.0" encoding="iso-8859-1"?>
<!-- Generator: Adobe Illustrator 18.0.0, SVG Export Plug-In . SVG Version: 6.00 Build 0)  -->
<!DOCTYPE svg PUBLIC "-//W3C//DTD SVG 1.1//EN" "http://www.w3.org/Graphics/SVG/1.1/DTD/svg11.dtd">
<svg version="1.1" id="Capa_1" xmlns="http://www.w3.org/2000/svg" xmlns:xlink="http://www.w3.org/1999/xlink" x="0px" y="0px"
	 viewBox="0 0 64.082 64.082" style="enable-background:new 0 0 64.082 64.082;" xml:space="preserve">
<path style="fill:#231F20;" d="M61.082,17.355c-1.657,0-3,1.343-3,3v6.146c-1.349-0.806-2.92-1.277-4.605-1.277h-30.29
	c-2.945,0-5.552,1.421-7.194,3.607c0.002-0.064,0.01-0.128,0.01-0.193c0-3.13-2.538-5.668-5.668-5.668
	c-1.74,0-3.295,0.785-4.334,2.019v-4.634c0-1.657-1.343-3-3-3s-3,1.343-3,3v23.371c0,1.657,1.343,3,3,3s3-1.343,3-3v-6.5h52.082v6.5
	c0,1.657,1.343,3,3,3s3-1.343,3-3V20.355C64.082,18.698,62.739,17.355,61.082,17.355z"/>
<g>
</g>
<g>
</g>
<g>
</g>
<g>
</g>
<g>
</g>
<g>
</g>
<g>
</g>
<g>
</g>
<g>
</g>
<g>
</g>
<g>
</g>
<g>
</g>
<g>
</g>
<g>
</g>
<g>
</g>
</svg>
