<?xml version="1.0" encoding="iso-8859-1"?>
<!-- Generator: Adobe Illustrator 18.0.0, SVG Export Plug-In . SVG Version: 6.00 Build 0)  -->
<!DOCTYPE svg PUBLIC "-//W3C//DTD SVG 1.1//EN" "http://www.w3.org/Graphics/SVG/1.1/DTD/svg11.dtd">
<svg version="1.1" id="Capa_1" xmlns="http://www.w3.org/2000/svg" xmlns:xlink="http://www.w3.org/1999/xlink" x="0px" y="0px"
	 viewBox="0 0 61.163 61.163" style="enable-background:new 0 0 61.163 61.163;" xml:space="preserve">
<path style="fill:#231F20;" d="M30.581,0C13.719,0,0,13.719,0,30.582s13.718,30.582,30.58,30.582
	c16.863,0,30.582-13.719,30.582-30.582S47.443,0,30.581,0z M30.581,6c0.979,0,1.943,0.064,2.892,0.176
	c-1.394,3.338-2.65,4.146-2.891,4.146s-1.498-0.808-2.892-4.147C28.639,6.064,29.602,6,30.581,6z M32.923,13.572
	c0,0.828-1.049,1.5-2.342,1.5s-2.342-0.672-2.342-1.5c0-0.828,1.049-1.5,2.342-1.5S32.923,12.744,32.923,13.572z M7.708,39.566
	C6.61,36.781,6,33.752,6,30.582c0-8.515,4.353-16.031,10.95-20.444c1.523,1.554,3.174,2.829,4.911,3.812
	C14.355,18.255,8.82,27.941,7.708,39.566z M36.26,54.493c-1.825,0.433-3.725,0.67-5.68,0.67c-1.954,0-3.854-0.236-5.677-0.669
	c-0.437-3.366-0.671-6.919-0.671-10.614c0-17.278,4.716-26.332,6.348-26.333c0.001,0,0.001,0,0.001,0
	c1.632,0,6.35,9.055,6.35,26.333C36.931,47.573,36.697,51.126,36.26,54.493z M39.301,13.95c1.737-0.983,3.387-2.258,4.91-3.812
	c6.597,4.413,10.951,11.929,10.951,20.444c0,3.17-0.61,6.199-1.708,8.984C52.343,27.941,46.807,18.255,39.301,13.95z"/>
<g>
</g>
<g>
</g>
<g>
</g>
<g>
</g>
<g>
</g>
<g>
</g>
<g>
</g>
<g>
</g>
<g>
</g>
<g>
</g>
<g>
</g>
<g>
</g>
<g>
</g>
<g>
</g>
<g>
</g>
</svg>
