<?xml version="1.0" encoding="iso-8859-1"?>
<!-- Generator: Adobe Illustrator 18.0.0, SVG Export Plug-In . SVG Version: 6.00 Build 0)  -->
<!DOCTYPE svg PUBLIC "-//W3C//DTD SVG 1.1//EN" "http://www.w3.org/Graphics/SVG/1.1/DTD/svg11.dtd">
<svg version="1.1" id="Capa_1" xmlns="http://www.w3.org/2000/svg" xmlns:xlink="http://www.w3.org/1999/xlink" x="0px" y="0px"
	 viewBox="0 0 68.893 68.893" style="enable-background:new 0 0 68.893 68.893;" xml:space="preserve">
<path style="fill:#231F20;" d="M67.857,26.361l-6.393-3.518c-1.131-5.66-6.049-9.723-11.856-9.723c-0.655,0-1.316,0.054-1.967,0.16
	c-3.191,0.521-5.989,2.255-7.876,4.881c-1.888,2.625-2.64,5.829-2.118,9.021c0.036,0.221,0.089,0.436,0.137,0.652
	c-2.518-0.267-5.108-0.401-7.696-0.401C15.112,27.433,0,31.815,0,41.603s15.112,14.17,30.088,14.17s30.088-4.382,30.088-14.17
	c0-2.691-1.148-4.971-3.115-6.866c1.211-0.951,2.253-2.121,3.036-3.486l7.118-1.164c0.842-0.138,1.503-0.794,1.648-1.635
	C69.009,27.612,68.604,26.772,67.857,26.361z M30.088,44.773c-8.811,0-15.037-1.73-17.848-3.17c2.811-1.439,9.037-3.17,17.848-3.17
	s15.037,1.73,17.848,3.17C45.125,43.042,38.899,44.773,30.088,44.773z M54.44,25.79c-1.477,0.242-2.87-0.76-3.111-2.237
	c-0.242-1.477,0.76-2.87,2.237-3.111s2.87,0.76,3.111,2.237S55.916,25.548,54.44,25.79z"/>
<g>
</g>
<g>
</g>
<g>
</g>
<g>
</g>
<g>
</g>
<g>
</g>
<g>
</g>
<g>
</g>
<g>
</g>
<g>
</g>
<g>
</g>
<g>
</g>
<g>
</g>
<g>
</g>
<g>
</g>
</svg>
