<?xml version="1.0" encoding="UTF-8" standalone="no"?>
<!-- Generator: Adobe Illustrator 18.1.1, SVG Export Plug-In . SVG Version: 6.00 Build 0)  -->

<svg
   xmlns:dc="http://purl.org/dc/elements/1.1/"
   xmlns:cc="http://creativecommons.org/ns#"
   xmlns:rdf="http://www.w3.org/1999/02/22-rdf-syntax-ns#"
   xmlns:svg="http://www.w3.org/2000/svg"
   xmlns="http://www.w3.org/2000/svg"
   xmlns:sodipodi="http://sodipodi.sourceforge.net/DTD/sodipodi-0.dtd"
   xmlns:inkscape="http://www.inkscape.org/namespaces/inkscape"
   version="1.1"
   id="Capa_1"
   x="0px"
   y="0px"
   viewBox="0 0 25.944 25.944"
   style="enable-background:new 0 0 25.944 25.944;"
   xml:space="preserve"
   width="512px"
   height="512px"
   inkscape:version="0.91 r13725"
   sodipodi:docname="rockpooling.svg"><metadata
     id="metadata4361"><rdf:RDF><cc:Work
         rdf:about=""><dc:format>image/svg+xml</dc:format><dc:type
           rdf:resource="http://purl.org/dc/dcmitype/StillImage" /><dc:title /></cc:Work></rdf:RDF></metadata><defs
     id="defs4359"><inkscape:path-effect
       effect="spiro"
       id="path-effect4989"
       is_visible="true" /><inkscape:path-effect
       effect="spiro"
       id="path-effect4938"
       is_visible="true" /><inkscape:path-effect
       effect="spiro"
       id="path-effect4934"
       is_visible="true" /><inkscape:path-effect
       effect="spiro"
       id="path-effect4390"
       is_visible="true" /><inkscape:path-effect
       effect="spiro"
       id="path-effect4390-8"
       is_visible="true" /><inkscape:path-effect
       effect="spiro"
       id="path-effect4390-7"
       is_visible="true" /><inkscape:path-effect
       effect="spiro"
       id="path-effect4390-7-7"
       is_visible="true" /><inkscape:path-effect
       effect="spiro"
       id="path-effect4390-6"
       is_visible="true" /></defs><sodipodi:namedview
     pagecolor="#ffffff"
     bordercolor="#666666"
     borderopacity="1"
     objecttolerance="10"
     gridtolerance="10"
     guidetolerance="10"
     inkscape:pageopacity="0"
     inkscape:pageshadow="2"
     inkscape:window-width="1097"
     inkscape:window-height="668"
     id="namedview4357"
     showgrid="false"
     inkscape:zoom="0.4609375"
     inkscape:cx="-384"
     inkscape:cy="445.59429"
     inkscape:window-x="-8"
     inkscape:window-y="-8"
     inkscape:window-maximized="1"
     inkscape:current-layer="Capa_1" /><g
     id="g4327" /><g
     id="g4329" /><g
     id="g4331" /><g
     id="g4333" /><g
     id="g4335" /><g
     id="g4337" /><g
     id="g4339" /><g
     id="g4341" /><g
     id="g4343" /><g
     id="g4345" /><g
     id="g4347" /><g
     id="g4349" /><g
     id="g4351" /><g
     id="g4353" /><g
     id="g4355" /><path
     inkscape:connector-curvature="0"
     style="fill:#000000"
     d="m 4.1416408,26.065027 c -0.084957,-0.09735 -0.1408838,-0.175372 -0.124282,-0.173391 0.029507,0.0035 0.3187744,0.350383 0.2922032,0.350383 -0.0074,0 -0.082964,-0.07965 -0.1679212,-0.176992 z"
     id="path6338" /><path
     style="fill:#006df0;fill-opacity:1"
     d="m 15.401752,25.427459 c -0.403106,-0.05629 -0.389517,-0.04824 -0.722063,-0.428063 -0.172144,-0.196621 -0.284512,-0.348014 -0.249708,-0.336428 0.28052,0.09338 0.802028,0.192118 1.32463,0.250807 0.196032,0.02201 0.196032,0.02201 0.196032,-0.546119 0,-0.568135 0,-0.568135 -1.16926,-0.568135 -1.16926,0 -1.16926,0 -1.371322,-0.230091 -0.202062,-0.23009 -0.202062,-0.23009 1.16926,-0.23009 1.371322,0 1.371322,0 1.371322,-1.610633 0,-1.610634 0,-1.610634 -1.427117,-1.610634 -1.427117,0 -1.427117,0 -1.427117,1.541925 0,0.912903 -0.0116,1.533835 -0.02843,1.522094 -0.01564,-0.01091 -0.01211,0.01989 0.0078,0.06843 0.01995,0.04854 0.0508,0.08839 0.06855,0.08854 0.01775,1.42e-4 0.123199,0.103817 0.234333,0.230367 0.202061,0.23009 0.202061,0.23009 -0.04011,0.23009 -0.242174,0 -0.242174,0 -0.242174,0.173229 0,0.199959 0.03759,0.223518 0.827719,0.518754 0.404289,0.151065 0.404289,0.151065 0.712544,0.497654 0.16954,0.190624 0.304438,0.350898 0.299772,0.356164 -0.01568,0.01769 -0.692058,-0.16402 -1.02347,-0.274963 C 12.112182,24.467528 10.068498,22.916608 8.6879342,21.105153 8.5508447,20.925277 8.3872026,20.721192 8.3242851,20.651631 7.3456926,19.569718 7.957213,17.203808 9.848479,14.754679 c 1.442478,-1.867964 3.689333,-3.45084 4.898382,-3.45084 0.06799,0 0.174597,-0.09863 0.513445,-0.475029 0.460097,-0.511083 0.508814,-0.542285 0.791587,-0.506991 0.133995,0.01672 0.133995,0.01672 3.819721,-4.1378357 4.343518,-4.8960333 3.760543,-4.4005776 4.378862,-3.7214874 0.648401,0.7121284 0.650044,0.6642272 -0.05003,1.4584538 -0.292852,0.3322372 -1.951315,2.2048898 -3.685472,4.161449 -3.153013,3.5573803 -3.153013,3.5573803 -3.133691,3.7217733 0.03315,0.28204 -0.02357,0.397017 -0.420419,0.852211 -0.328242,0.376499 -0.357328,0.420295 -0.317379,0.47788 0.213042,0.307101 1.695733,2.30079 2.021568,2.718286 0.915915,1.173573 1.703568,1.947758 2.539267,2.495848 2.106307,1.381412 2.206451,3.168624 0.275771,4.9215 -0.957716,0.869515 -2.463715,1.723246 -3.487442,1.976984 -0.13788,0.03418 -0.13788,0.03418 0.04704,-0.184465 0.184919,-0.218639 0.184919,-0.218639 -0.02457,0.008 -0.209491,0.226589 -0.209491,0.226589 -0.5332,0.294618 -0.367321,0.07719 -1.690226,0.116926 -2.080161,0.06247 z"
     id="path6336"
     inkscape:connector-curvature="0" /><path
     inkscape:connector-curvature="0"
     style="fill:#ffffff"
     d="m 17.430846,24.822065 c 0.211449,-0.04053 0.504779,-0.112602 0.651844,-0.160159 0.147066,-0.04756 0.295621,-0.09558 0.330123,-0.106716 0.04587,-0.01481 0.02901,0.02099 -0.06273,0.133155 -0.121619,0.148708 -0.120178,0.148011 0.04705,-0.02278 0.127516,-0.130232 0.25227,-0.212199 0.47832,-0.314269 0.30581,-0.138084 0.30581,-0.138084 0.30581,-0.352563 0,-0.207254 0.005,-0.220483 0.148971,-0.392688 0.14897,-0.178209 0.14897,-0.178209 -0.02451,0.0076 -0.17348,0.185842 -0.17348,0.185842 -1.560405,0.185842 -1.386924,0 -1.386924,0 -1.386924,0.571699 0,0.634152 0.03638,0.649444 1.072455,0.450846 z"
     id="path6334" /><path
     inkscape:connector-curvature="0"
     style="fill:#000000"
     d="m 19.868681,23.812869 c 0.0072,-0.0073 -0.0528,-0.01335 -0.133302,-0.01335 -0.135534,0 -0.146371,0.0066 -0.146371,0.08922 0,0.08262 0.169525,0.03663 0.279673,-0.07587 z"
     id="path6332" /><path
     inkscape:connector-curvature="0"
     style="fill:#000000"
     d="m 12.688661,23.852619 c 0,-0.03656 -0.03174,-0.05271 -0.101937,-0.05184 -0.101937,0.0013 -0.101937,0.0013 -0.02352,0.05184 0.101016,0.06517 0.125461,0.06517 0.125461,0 z"
     id="path6330" /><path
     inkscape:connector-curvature="0"
     style="fill:#ffffff"
     d="m 12.688661,21.728707 c 0,-1.610634 0,-1.610634 -0.404365,-1.610634 -0.404365,0 -0.404365,0 -0.662391,0.163763 -0.690526,0.438259 -1.476993,0.73198 -2.0722319,0.773913 -0.128025,0.009 -0.2363916,0.01678 -0.2408155,0.01724 -0.016001,0.0017 0.420932,0.488093 0.6353477,0.707298 0.1207557,0.123453 0.2760137,0.282261 0.3450167,0.352906 0.171585,0.175665 0.817118,0.724573 1.160513,0.986803 0.282287,0.215565 0.282287,0.215565 0.760606,0.217453 0.47832,0.0019 0.47832,0.0019 0.47832,-1.608743 z"
     id="path6328" /><path
     inkscape:connector-curvature="0"
     style="fill:#ffffff"
     d="m 19.18126,21.728707 c 0,-1.610634 0,-1.610634 -1.411435,-1.610634 -1.411434,0 -1.411434,0 -1.411434,1.610634 0,1.610633 0,1.610633 1.411434,1.610633 1.411435,0 1.411435,0 1.411435,-1.610633 z"
     id="path6326" /><path
     inkscape:connector-curvature="0"
     style="fill:#ffffff"
     d="m 20.761399,23.192986 c 1.254347,-0.956157 1.811472,-2.008558 1.538799,-2.90677 -0.05104,-0.168143 -0.05104,-0.168143 -1.381117,-0.168143 -1.330073,0 -1.330073,0 -1.330073,1.610634 0,1.610633 0,1.610633 0.490197,1.610633 0.490197,0 0.490197,0 0.682194,-0.146354 z"
     id="path6324" /><path
     inkscape:connector-curvature="0"
     style="fill:#ffffff"
     d="m 10.091511,19.589958 c 0.741927,-0.240241 1.862462,-1.026258 2.675563,-1.876816 0.103505,-0.108275 0.161304,-0.16102 0.128441,-0.117215 -0.156125,0.208113 0.02215,0.01576 0.655957,-0.707733 0.379372,-0.433058 0.566267,-0.652439 0.415321,-0.487511 -0.302885,0.330943 -0.356439,0.348614 -0.123496,0.04075 0.576314,-0.761676 1.136953,-1.82353 1.338852,-2.535803 0.780358,-2.752983 -3.318547,-0.432643 -5.3152099,3.008876 -1.1115818,1.915962 -1.0141632,3.076565 0.2245719,2.675453 z"
     id="path6322" /><path
     inkscape:connector-curvature="0"
     style="fill:#000000"
     d="m 12.688661,19.603979 c 0,-0.08713 -0.0019,-0.0879 -0.07841,-0.03132 -0.04312,0.03189 -0.07841,0.07208 -0.07841,0.08931 0,0.01723 0.03529,0.03132 0.07841,0.03132 0.06292,0 0.07841,-0.01765 0.07841,-0.08931 z"
     id="path6320" /><path
     inkscape:connector-curvature="0"
     style="fill:#ffffff"
     d="m 15.943122,18.073808 c 0.0082,-1.601784 0.0082,-1.601784 -0.313653,-1.600617 -0.321813,0.0012 -0.321813,0.0012 -0.510004,0.290979 -0.454983,0.700669 -1.09701,1.484758 -1.673795,2.044158 -0.346738,0.336286 -0.346738,0.336286 -0.348,0.587025 -6.8e-4,0.137908 0.0083,0.261522 0.01997,0.274699 0.01167,0.01318 0.65035,0.01981 1.419276,0.01475 1.398046,-0.0092 1.398046,-0.0092 1.406207,-1.610994 z"
     id="path6318" /><path
     inkscape:connector-curvature="0"
     style="fill:#ffffff"
     d="m 19.180303,18.480891 c -9.59e-4,-1.2124 -9.59e-4,-1.2124 -0.345575,-1.610633 -0.344618,-0.398234 -0.344618,-0.398234 -1.410478,-0.398234 -1.065859,0 -1.065859,0 -1.065859,1.610634 0,1.610634 0,1.610634 1.411434,1.610634 1.411435,0 1.411435,0 1.410478,-1.212401 z"
     id="path6316" /><path
     inkscape:connector-curvature="0"
     style="fill:#ffffff"
     d="m 21.941399,19.660724 c 0,-0.06203 -0.348872,-0.383098 -0.661077,-0.608391 -0.776711,-0.560488 -1.162029,-0.856602 -1.416868,-1.088852 -0.274446,-0.250118 -0.274446,-0.250118 -0.274446,0.739846 0,0.989965 0,0.989965 1.176195,0.989965 0.695048,0 1.176196,-0.01332 1.176196,-0.03257 z"
     id="path6314" /><path
     inkscape:connector-curvature="0"
     style="fill:#ffffff"
     d="m 18.253177,15.861399 c -0.777692,-0.880981 -1.499533,-1.716266 -1.604089,-1.856189 -0.104557,-0.139924 -0.197684,-0.245852 -0.206949,-0.235396 -0.06294,0.07103 -0.07809,-0.04442 -0.01634,-0.124558 0.07212,-0.09361 0.07212,-0.09361 -0.005,-0.01357 -0.07708,0.08004 -0.07708,0.08004 -1.112657,-1.079656 -1.035575,-1.159694 -1.035575,-1.159694 -0.0083,0.0088 1.02731,1.168461 1.02731,1.168461 0.862543,1.362444 -0.164766,0.193983 -0.164766,0.193983 0.01039,0.0067 0.205162,-0.21938 0.281612,-0.200915 0.219154,0.05293 -0.01959,0.07963 -0.03333,0.524154 -0.03343,1.082069 -1.74e-4,0.946911 -1.74e-4,0.946911 0.897579,0.946911 0.897753,0 0.897753,0 0.696578,-0.256639 -0.352825,-0.450098 -0.69226,-0.914824 -0.679065,-0.929717 0.007,-0.0079 0.541372,0.582306 1.187431,1.311638 0.64606,0.729332 1.181724,1.326058 1.190364,1.326058 0.0086,0 -0.620583,-0.720802 -1.398275,-1.601784 z"
     id="path6312" /><g
     id="XMLID_229_"
     transform="matrix(0.03236893,0,0,0.03053673,2.0887111,2.2536096)"
     style="fill:#006df0;fill-opacity:1"><g
       id="g6346"
       style="fill:#006df0;fill-opacity:1"><path
         style="fill:#006df0;fill-opacity:1"
         inkscape:connector-curvature="0"
         d="m 340,182.5 c 0,13.785 -11.215,25 -25,25 l -17.978,0 c -3.467,-11.457 -9.85,-22.081 -18.529,-31.417 8.314,-6.404 14.751,-15.123 18.334,-25.191 C 336.651,143.064 360,107.785 360,72.499 360,32.5 330,22.5 330,22.5 c 0,30 -20,50 -20,50 l 0,-40 c -50,10 -50,80 -50,100 0,8.271 -6.729,15 -15,15 l -9.98,0 c -6.539,-2.535 -13.43,-4.628 -20.601,-6.236 2.663,-6.915 4.7,-15.567 5.353,-26.322 6.1,-3.426 10.229,-9.947 10.229,-17.441 0,-11.045 -8.955,-20 -20,-20 -11.046,0 -20,8.955 -20,20 0,7.292 3.915,13.654 9.746,17.148 -0.758,10.686 -3.157,18.237 -5.798,23.46 -4.577,-0.397 -9.229,-0.608 -13.948,-0.608 -4.719,0 -9.371,0.211 -13.948,0.608 -2.641,-5.223 -5.04,-12.774 -5.798,-23.46 5.831,-3.495 9.746,-9.856 9.746,-17.148 0,-11.045 -8.954,-20 -20,-20 -11.045,0 -20,8.955 -20,20 0,7.494 4.129,14.016 10.229,17.441 0.652,10.755 2.689,19.408 5.353,26.322 -7.171,1.608 -14.062,3.702 -20.601,6.236 l -9.982,0 c -8.271,0 -15,-6.729 -15,-15 0,-20 0,-90 -50,-100 l 0,40 c 0,0 -20,-20 -20,-50 0,0 -30,10 -30,49.999 0,35.286 23.349,70.564 63.174,78.392 3.583,10.068 10.02,18.788 18.334,25.191 -8.68,9.335 -15.063,19.96 -18.529,31.417 l -17.979,0 c -13.785,0 -25,-11.215 -25,-25 l 0,-25 -20,0 0,25 c 0,24.813 20.187,45 45,45 l 15,0 c 0,6.874 1.032,13.567 2.979,20 l -17.979,0 c -24.813,0 -45,20.187 -45,45 l 0,25 20,0 0,-25 c 0,-13.785 11.215,-25 25,-25 l 27.483,0 c 2.763,4.169 5.938,8.156 9.497,11.928 C 63.496,285.026 50,302.213 50,322.5 l 0,15 20,0 0,-15 c 0,-13.785 11.215,-25 25,-25 l 9.582,0 c 20.608,12.505 46.844,20 75.418,20 28.573,0 54.809,-7.495 75.418,-20 l 9.582,0 c 13.785,0 25,11.215 25,25 l 0,15 20,0 0,-15 c 0,-20.287 -13.496,-37.475 -31.98,-43.072 3.559,-3.771 6.734,-7.759 9.497,-11.928 l 27.483,0 c 13.785,0 25,11.215 25,25 l 0,25 20,0 0,-25 c 0,-24.813 -20.186,-45 -45,-45 l -17.978,0 c 1.946,-6.433 2.978,-13.126 2.978,-20 l 15,0 c 24.814,0 45,-20.187 45,-45 l 0,-25 -20,0 0,25 z"
         id="path6348" /></g></g><g
     id="g6350"
     transform="matrix(0.07206667,0,0,0.07206667,-0.98939057,-12.092543)" /><g
     id="g6352"
     transform="matrix(0.07206667,0,0,0.07206667,-0.98939057,-12.092543)" /><g
     id="g6354"
     transform="matrix(0.07206667,0,0,0.07206667,-0.98939057,-12.092543)" /><g
     id="g6356"
     transform="matrix(0.07206667,0,0,0.07206667,-0.98939057,-12.092543)" /><g
     id="g6358"
     transform="matrix(0.07206667,0,0,0.07206667,-0.98939057,-12.092543)" /><g
     id="g6360"
     transform="matrix(0.07206667,0,0,0.07206667,-0.98939057,-12.092543)" /><g
     id="g6362"
     transform="matrix(0.07206667,0,0,0.07206667,-0.98939057,-12.092543)" /><g
     id="g6364"
     transform="matrix(0.07206667,0,0,0.07206667,-0.98939057,-12.092543)" /><g
     id="g6366"
     transform="matrix(0.07206667,0,0,0.07206667,-0.98939057,-12.092543)" /><g
     id="g6368"
     transform="matrix(0.07206667,0,0,0.07206667,-0.98939057,-12.092543)" /><g
     id="g6370"
     transform="matrix(0.07206667,0,0,0.07206667,-0.98939057,-12.092543)" /><g
     id="g6372"
     transform="matrix(0.07206667,0,0,0.07206667,-0.98939057,-12.092543)" /><g
     id="g6374"
     transform="matrix(0.07206667,0,0,0.07206667,-0.98939057,-12.092543)" /><g
     id="g6376"
     transform="matrix(0.07206667,0,0,0.07206667,-0.98939057,-12.092543)" /><g
     id="g6378"
     transform="matrix(0.07206667,0,0,0.07206667,-0.98939057,-12.092543)" /></svg>