<?xml version="1.0" encoding="iso-8859-1"?>
<!-- Generator: Adobe Illustrator 18.0.0, SVG Export Plug-In . SVG Version: 6.00 Build 0)  -->
<!DOCTYPE svg PUBLIC "-//W3C//DTD SVG 1.1//EN" "http://www.w3.org/Graphics/SVG/1.1/DTD/svg11.dtd">
<svg version="1.1" id="Capa_1" xmlns="http://www.w3.org/2000/svg" xmlns:xlink="http://www.w3.org/1999/xlink" x="0px" y="0px"
	 viewBox="0 0 46.866 46.866" style="enable-background:new 0 0 46.866 46.866;" xml:space="preserve">
<path style="fill:#231F20;" d="M43.834,12.327c-0.06-0.118-0.126-0.233-0.19-0.349c-1.273-2.285-3.317-4.082-5.785-5.031
	c-0.074-3.583-2.798-6.511-6.295-6.9C31.303,0.018,31.04,0,30.772,0c-0.023,0-0.045,0.003-0.067,0.003
	C30.682,0.003,30.66,0,30.637,0c-9.27,0-17.12,6.024-19.885,14.366c-4.496,0.919-7.879,4.897-7.879,9.664
	c0,1.644,0.408,3.19,1.119,4.553c1.215-2.328,3.331-4.106,5.885-4.881c0.462,3.521,1.793,6.761,3.777,9.507
	c1.314,1.818,2.908,3.413,4.725,4.727c3.449,2.495,7.675,3.983,12.258,3.983c0.055,0,0.109-0.005,0.164-0.005
	c0.563,1.964,1.979,3.659,4.025,4.47c1.789,0.709,3.697,0.606,5.324-0.127c-0.13-0.043-0.261-0.081-0.39-0.132
	c-2.457-0.974-4.029-3.215-4.276-5.675c-0.012-0.118-0.02-0.236-0.025-0.354c-0.045-0.941,0.099-1.906,0.469-2.838
	c0.681-1.718,1.983-3.002,3.544-3.706c-3.407-1.121-7.138,0.586-8.478,3.964c-0.178,0.45-0.287,0.908-0.364,1.367
	c-2.63-1.012-4.858-2.827-6.354-5.174c-1.082-1.699-1.791-3.657-1.993-5.768c-0.04-0.416-0.064-0.837-0.064-1.263
	c0-1.889,0.407-3.681,1.126-5.303c0.004-0.01,0.01-0.02,0.014-0.03c0.807-1.809,2.009-3.402,3.5-4.667
	c0.259-0.22,0.534-0.422,0.809-0.621c1.481,1.162,2.341,2.913,2.383,4.743c0.782-0.573,1.444-1.333,1.902-2.263
	c0.722-1.465,0.81-3.076,0.376-4.527c0.298-0.068,0.589-0.155,0.872-0.258c0.695-0.114,1.404-0.188,2.132-0.188
	c1.998,0,3.884,0.457,5.575,1.259c0.098,0.061,0.201,0.117,0.309,0.16c0.233,0.094,0.487,0.149,0.754,0.149
	c1.115,0,2.019-0.904,2.019-2.019C43.993,12.834,43.936,12.569,43.834,12.327z"/>
<g>
</g>
<g>
</g>
<g>
</g>
<g>
</g>
<g>
</g>
<g>
</g>
<g>
</g>
<g>
</g>
<g>
</g>
<g>
</g>
<g>
</g>
<g>
</g>
<g>
</g>
<g>
</g>
<g>
</g>
</svg>
