<?xml version="1.0" encoding="UTF-8" standalone="no"?>
<!-- Created with Inkscape (http://www.inkscape.org/) -->

<svg
   xmlns:dc="http://purl.org/dc/elements/1.1/"
   xmlns:cc="http://creativecommons.org/ns#"
   xmlns:rdf="http://www.w3.org/1999/02/22-rdf-syntax-ns#"
   xmlns:svg="http://www.w3.org/2000/svg"
   xmlns="http://www.w3.org/2000/svg"
   xmlns:sodipodi="http://sodipodi.sourceforge.net/DTD/sodipodi-0.dtd"
   xmlns:inkscape="http://www.inkscape.org/namespaces/inkscape"
   width="256"
   height="256"
   viewBox="0 0 256 256"
   id="svg2"
   version="1.1"
   inkscape:version="0.91 r13725"
   sodipodi:docname="logo.svg">
  <defs
     id="defs4" />
  <sodipodi:namedview
     id="base"
     pagecolor="#ffffff"
     bordercolor="#666666"
     borderopacity="1.0"
     inkscape:pageopacity="0.0"
     inkscape:pageshadow="2"
     inkscape:zoom="1.4"
     inkscape:cx="174.58978"
     inkscape:cy="86.853992"
     inkscape:document-units="px"
     inkscape:current-layer="layer1"
     showgrid="false"
     showguides="true"
     inkscape:guide-bbox="true"
     units="px"
     inkscape:window-width="1097"
     inkscape:window-height="668"
     inkscape:window-x="-8"
     inkscape:window-y="-8"
     inkscape:window-maximized="1">
    <sodipodi:guide
       position="683.87328,362.64477"
       orientation="0,1"
       id="guide3470" />
    <sodipodi:guide
       position="365.71429,546.42858"
       orientation="0,1"
       id="guide4272" />
  </sodipodi:namedview>
  <metadata
     id="metadata7">
    <rdf:RDF>
      <cc:Work
         rdf:about="">
        <dc:format>image/svg+xml</dc:format>
        <dc:type
           rdf:resource="http://purl.org/dc/dcmitype/StillImage" />
        <dc:title></dc:title>
      </cc:Work>
    </rdf:RDF>
  </metadata>
  <g
     inkscape:label="Layer 1"
     inkscape:groupmode="layer"
     id="layer1"
     transform="translate(0,-796.36216)">
    <g
       id="g3366"
       transform="matrix(6.9615958,0,0,6.9615958,230.6351,230.64469)" />
    <g
       id="g3368"
       transform="matrix(6.9615958,0,0,6.9615958,230.6351,230.64469)" />
    <g
       id="g3370"
       transform="matrix(6.9615958,0,0,6.9615958,230.6351,230.64469)" />
    <g
       id="g3372"
       transform="matrix(6.9615958,0,0,6.9615958,230.6351,230.64469)" />
    <g
       id="g3374"
       transform="matrix(6.9615958,0,0,6.9615958,230.6351,230.64469)" />
    <g
       id="g3376"
       transform="matrix(6.9615958,0,0,6.9615958,230.6351,230.64469)" />
    <g
       id="g3378"
       transform="matrix(6.9615958,0,0,6.9615958,230.6351,230.64469)" />
    <g
       id="g3380"
       transform="matrix(6.9615958,0,0,6.9615958,230.6351,230.64469)" />
    <g
       id="g3382"
       transform="matrix(6.9615958,0,0,6.9615958,230.6351,230.64469)" />
    <g
       id="g3384"
       transform="matrix(6.9615958,0,0,6.9615958,230.6351,230.64469)" />
    <g
       id="g3386"
       transform="matrix(6.9615958,0,0,6.9615958,230.6351,230.64469)" />
    <g
       id="g3388"
       transform="matrix(6.9615958,0,0,6.9615958,230.6351,230.64469)" />
    <g
       id="g3390"
       transform="matrix(6.9615958,0,0,6.9615958,230.6351,230.64469)" />
    <g
       id="g3392"
       transform="matrix(6.9615958,0,0,6.9615958,230.6351,230.64469)" />
    <g
       id="g3394"
       transform="matrix(6.9615958,0,0,6.9615958,230.6351,230.64469)" />
    <path
       style="fill:#ff5555"
       d="M 114.16602,976.17857 A 37.963367,32.655437 0 0 0 90.037109,1006.5868 37.963367,32.655437 0 0 0 128,1039.2411 37.963367,32.655437 0 0 0 165.96289,1006.5868 37.963367,32.655437 0 0 0 141.81445,976.20396 L 128,993.63755 114.16602,976.17857 Z"
       id="path3438"
       inkscape:connector-curvature="0" />
    <path
       style="fill:#ff5555;stroke:none;stroke-width:9.90562439;stroke-miterlimit:4;stroke-dasharray:none;stroke-opacity:1"
       d="M 128.00195 10.728516 C 110.84426 10.728516 93.685508 16.447494 80.59375 27.886719 C 57.00312 48.502459 54.346887 87.320014 74.367188 110.64648 L 96.751953 138.89648 L 128 178.33398 L 181.63281 110.64648 C 201.65311 87.320014 198.99687 48.502459 175.40625 27.886719 C 162.31634 16.447494 145.15965 10.728516 128.00195 10.728516 z M 128 37.572266 A 35 35 0 0 1 163 72.572266 A 35 35 0 0 1 128 107.57227 A 35 35 0 0 1 93 72.572266 A 35 35 0 0 1 128 37.572266 z "
       transform="translate(0,796.36216)"
       id="path3364-7" />
  </g>
</svg>
