<?xml version="1.0" encoding="iso-8859-1"?>
<!-- Generator: Adobe Illustrator 18.0.0, SVG Export Plug-In . SVG Version: 6.00 Build 0)  -->
<!DOCTYPE svg PUBLIC "-//W3C//DTD SVG 1.1//EN" "http://www.w3.org/Graphics/SVG/1.1/DTD/svg11.dtd">
<svg version="1.1" id="Capa_1" xmlns="http://www.w3.org/2000/svg" xmlns:xlink="http://www.w3.org/1999/xlink" x="0px" y="0px"
	 viewBox="0 0 467.564 467.564" style="enable-background:new 0 0 467.564 467.564;" xml:space="preserve">
<path id="XMLID_184_" d="M444.173,23.456C429.192,8.474,411.618,0,398.19,0c-5.364,0-9.876,1.631-13.48,4.473L267.528,121
	c-4.801,4.801-4.878,12.375-0.542,17.443L146.314,259.109c-4.383,4.381-4.718,11.026-1.48,16.033L26.715,393.247l0,0
	c-6.096-6.096-15.988-6.096-22.07,0c-6.096,6.096-6.096,15.98,0,22.07l47.69,47.675c3.048,3.048,7.042,4.571,11.034,4.571
	c3.994,0,7.994-1.523,11.036-4.571c6.096-6.098,6.096-15.982,0-22.07l0,0l118.103-118.105c4.999,3.246,11.652,2.911,16.043-1.47
	l120.68-120.674c5.068,4.298,12.612,4.215,17.398-0.571L463.24,83.004C473.201,70.407,465.175,44.451,444.173,23.456z
	 M394.06,16.567c0.457-0.465,1.798-0.96,4.13-0.96c8.002,0,21.903,5.837,34.949,18.884c18.716,18.709,20.667,36.381,17.955,39.086
	c-0.457,0.465-1.798,0.96-4.145,0.96c-8.002,0-21.917-5.837-34.964-18.884c-8.61-8.619-15.073-18.701-17.695-27.655
	C392.369,21.421,393.13,17.497,394.06,16.567z"/>
<g>
</g>
<g>
</g>
<g>
</g>
<g>
</g>
<g>
</g>
<g>
</g>
<g>
</g>
<g>
</g>
<g>
</g>
<g>
</g>
<g>
</g>
<g>
</g>
<g>
</g>
<g>
</g>
<g>
</g>
</svg>
